G04*
G04 #@! TF.GenerationSoftware,Altium Limited,Altium Designer,24.2.2 (26)*
G04*
G04 Layer_Color=32896*
%FSLAX25Y25*%
%MOIN*%
G70*
G04*
G04 #@! TF.SameCoordinates,004D1183-16E1-436D-8927-E0D308D58255*
G04*
G04*
G04 #@! TF.FilePolarity,Positive*
G04*
G01*
G75*
%ADD12C,0.00787*%
%ADD13C,0.00500*%
%ADD14C,0.01000*%
D12*
X206029Y181597D02*
X208971D01*
X206029Y188487D02*
X208971D01*
X199661Y167331D02*
X209339D01*
X199661Y158669D02*
X209339D01*
X202529Y204445D02*
X205471D01*
X202529Y197555D02*
X205471D01*
D13*
X188936Y175700D02*
G03*
X188936Y188300I-3936J6300D01*
G01*
X181064D02*
G03*
X181064Y175700I3936J-6300D01*
G01*
X188937Y175701D02*
X189094D01*
X181063D02*
X188937D01*
X180905D02*
X181063D01*
X180905Y188299D02*
X181063D01*
X188937D01*
X189094D01*
X190905Y169795D02*
X194449D01*
X189331D02*
X190905D01*
X185787D02*
X189331D01*
X184213D02*
X185787D01*
X180669D02*
X184213D01*
X179095D02*
X180669D01*
X175551D02*
X179095D01*
X175551D02*
Y194205D01*
X179095D01*
X180669D01*
X184213D01*
X185787D01*
X189331D01*
X190905D01*
X194449D01*
Y169795D02*
Y194205D01*
X185787Y165858D02*
Y169795D01*
X184213Y165858D02*
X185787D01*
X184213D02*
Y169795D01*
X180669Y165858D02*
Y169795D01*
X179095Y165858D02*
X180669D01*
X179095D02*
Y169795D01*
X189331Y165858D02*
Y169795D01*
Y165858D02*
X190905D01*
Y169795D01*
X185787Y194205D02*
Y198142D01*
X184213D02*
X185787D01*
X184213Y194205D02*
Y198142D01*
X180669Y194205D02*
Y198142D01*
X179095D02*
X180669D01*
X179095Y194205D02*
Y198142D01*
X189331Y194205D02*
Y198142D01*
X190905D01*
Y194205D02*
Y198142D01*
D14*
X172498Y192999D02*
Y188001D01*
X171499Y187001D01*
X169499D01*
X168500Y188001D01*
Y192999D01*
X166500Y191999D02*
X165501Y192999D01*
X163501D01*
X162502Y191999D01*
Y191000D01*
X163501Y190000D01*
X164501D01*
X163501D01*
X162502Y189000D01*
Y188001D01*
X163501Y187001D01*
X165501D01*
X166500Y188001D01*
X209498Y207001D02*
Y212999D01*
X206499D01*
X205500Y211999D01*
Y210000D01*
X206499Y209000D01*
X209498D01*
X207499D02*
X205500Y207001D01*
X199502Y212999D02*
X203500D01*
Y210000D01*
X201501Y211000D01*
X200501D01*
X199502Y210000D01*
Y208001D01*
X200501Y207001D01*
X202501D01*
X203500Y208001D01*
X224498Y161001D02*
Y166999D01*
X221499D01*
X220500Y165999D01*
Y164000D01*
X221499Y163000D01*
X224498D01*
X222499D02*
X220500Y161001D01*
X215501D02*
Y166999D01*
X218500Y164000D01*
X214502D01*
X228498Y182001D02*
Y187999D01*
X225499D01*
X224500Y186999D01*
Y185000D01*
X225499Y184000D01*
X228498D01*
X226499D02*
X224500Y182001D01*
X222500Y186999D02*
X221501Y187999D01*
X219501D01*
X218502Y186999D01*
Y186000D01*
X219501Y185000D01*
X220501D01*
X219501D01*
X218502Y184000D01*
Y183001D01*
X219501Y182001D01*
X221501D01*
X222500Y183001D01*
M02*
