G04*
G04 #@! TF.GenerationSoftware,Altium Limited,Altium Designer,24.2.2 (26)*
G04*
G04 Layer_Color=8388736*
%FSLAX25Y25*%
%MOIN*%
G70*
G04*
G04 #@! TF.SameCoordinates,004D1183-16E1-436D-8927-E0D308D58255*
G04*
G04*
G04 #@! TF.FilePolarity,Negative*
G04*
G01*
G75*
%ADD15R,0.03740X0.06693*%
%ADD18R,0.08268X0.05512*%
%ADD19R,0.05180X0.03567*%
%ADD21R,0.06693X0.03740*%
%ADD22R,0.05709X0.03740*%
G04:AMPARAMS|DCode=23|XSize=33.59mil|YSize=72.96mil|CornerRadius=5.92mil|HoleSize=0mil|Usage=FLASHONLY|Rotation=180.000|XOffset=0mil|YOffset=0mil|HoleType=Round|Shape=RoundedRectangle|*
%AMROUNDEDRECTD23*
21,1,0.03359,0.06112,0,0,180.0*
21,1,0.02175,0.07296,0,0,180.0*
1,1,0.01184,-0.01088,0.03056*
1,1,0.01184,0.01088,0.03056*
1,1,0.01184,0.01088,-0.03056*
1,1,0.01184,-0.01088,-0.03056*
%
%ADD23ROUNDEDRECTD23*%
%ADD24R,0.06902X0.06115*%
G04:AMPARAMS|DCode=25|XSize=29.65mil|YSize=57.21mil|CornerRadius=5.95mil|HoleSize=0mil|Usage=FLASHONLY|Rotation=180.000|XOffset=0mil|YOffset=0mil|HoleType=Round|Shape=RoundedRectangle|*
%AMROUNDEDRECTD25*
21,1,0.02965,0.04532,0,0,180.0*
21,1,0.01776,0.05721,0,0,180.0*
1,1,0.01190,-0.00888,0.02266*
1,1,0.01190,0.00888,0.02266*
1,1,0.01190,0.00888,-0.02266*
1,1,0.01190,-0.00888,-0.02266*
%
%ADD25ROUNDEDRECTD25*%
%ADD26R,0.07493X0.07493*%
%ADD27C,0.07493*%
%ADD28C,0.15761*%
%ADD29C,0.06343*%
%ADD30R,0.06343X0.06343*%
%ADD31O,0.08280X0.15761*%
%ADD32O,0.15761X0.08280*%
%ADD33C,0.04724*%
%ADD34R,0.04724X0.04724*%
%ADD35R,0.07493X0.07493*%
%ADD36C,0.05800*%
%ADD37C,0.09658*%
%ADD38C,0.11811*%
%ADD39C,0.12000*%
D15*
X298488Y258500D02*
D03*
X309512D02*
D03*
X46012Y170000D02*
D03*
X34988D02*
D03*
X286988Y214500D02*
D03*
X298012D02*
D03*
X104012Y208881D02*
D03*
X92988D02*
D03*
X273488Y258500D02*
D03*
X284512D02*
D03*
D18*
X161913Y19642D02*
D03*
X126087D02*
D03*
X161913Y37358D02*
D03*
X126087D02*
D03*
X86913Y19642D02*
D03*
X51087D02*
D03*
X86913Y37358D02*
D03*
X51087D02*
D03*
X311913Y19642D02*
D03*
X276087D02*
D03*
X311913Y37358D02*
D03*
X276087D02*
D03*
X236913Y19642D02*
D03*
X201087D02*
D03*
X236913Y37358D02*
D03*
X201087D02*
D03*
D19*
X39500Y19555D02*
D03*
Y13445D02*
D03*
X97500Y160945D02*
D03*
Y167055D02*
D03*
X263500Y13445D02*
D03*
Y19555D02*
D03*
X189500Y13445D02*
D03*
Y19555D02*
D03*
X114500Y13445D02*
D03*
Y19555D02*
D03*
D21*
X111166Y181190D02*
D03*
Y170166D02*
D03*
X309759Y230666D02*
D03*
Y241690D02*
D03*
X306099Y214512D02*
D03*
Y203488D02*
D03*
X278901Y214512D02*
D03*
Y203488D02*
D03*
X35500Y194512D02*
D03*
Y183488D02*
D03*
D22*
X87500Y167339D02*
D03*
Y159661D02*
D03*
D23*
X299500Y247622D02*
D03*
X294500D02*
D03*
X289500D02*
D03*
X284500D02*
D03*
X299500Y225378D02*
D03*
X294500D02*
D03*
X289500D02*
D03*
X284500D02*
D03*
D24*
X273853Y232161D02*
D03*
Y239839D02*
D03*
D25*
X103000Y196835D02*
D03*
X98000D02*
D03*
X93000D02*
D03*
X88000D02*
D03*
X103000Y176165D02*
D03*
X98000D02*
D03*
X93000D02*
D03*
X88000D02*
D03*
D26*
X131000Y232500D02*
D03*
X202500D02*
D03*
D27*
X131000Y242500D02*
D03*
Y252500D02*
D03*
X202500Y242500D02*
D03*
Y252500D02*
D03*
X17500Y174000D02*
D03*
Y184000D02*
D03*
D28*
X185000Y182000D02*
D03*
D29*
X127000Y68000D02*
D03*
X117000D02*
D03*
X137000D02*
D03*
X147000D02*
D03*
X157000D02*
D03*
X167000D02*
D03*
X177000D02*
D03*
X187000D02*
D03*
X197000D02*
D03*
X207000D02*
D03*
X107000D02*
D03*
X97000D02*
D03*
X87000D02*
D03*
X77000D02*
D03*
X67000D02*
D03*
X57000D02*
D03*
X47000D02*
D03*
X37000D02*
D03*
X27000D02*
D03*
X127000Y138000D02*
D03*
X117000D02*
D03*
X137000D02*
D03*
X147000D02*
D03*
X157000D02*
D03*
X167000D02*
D03*
X177000D02*
D03*
X187000D02*
D03*
X197000D02*
D03*
X207000D02*
D03*
X107000D02*
D03*
X97000D02*
D03*
X87000D02*
D03*
X77000D02*
D03*
X67000D02*
D03*
X57000D02*
D03*
X47000D02*
D03*
X37000D02*
D03*
X27000D02*
D03*
D30*
X217000Y68000D02*
D03*
Y138000D02*
D03*
D31*
X65248Y248500D02*
D03*
X41902D02*
D03*
D32*
X51075Y229878D02*
D03*
D33*
X183000Y228988D02*
D03*
X111500D02*
D03*
D34*
X183000Y259012D02*
D03*
X111500D02*
D03*
D35*
X17500Y194000D02*
D03*
D36*
X179500Y107000D02*
D03*
X160000Y97000D02*
D03*
X172500Y201500D02*
D03*
X131000Y164500D02*
D03*
X168500Y177500D02*
D03*
X317268Y258204D02*
D03*
X52500Y183500D02*
D03*
X293000Y195500D02*
D03*
X295000Y236500D02*
D03*
X207500Y174000D02*
D03*
X218500Y201000D02*
D03*
X310000Y223000D02*
D03*
X322500Y37500D02*
D03*
X247000D02*
D03*
X171500Y37000D02*
D03*
X96500Y37500D02*
D03*
X264500Y258500D02*
D03*
X112500Y209000D02*
D03*
X122000Y181000D02*
D03*
D37*
X295776Y125925D02*
D03*
X255906Y98425D02*
D03*
X256405Y125925D02*
D03*
X334646Y98425D02*
D03*
X276406Y135925D02*
D03*
X316276Y156425D02*
D03*
X295776Y143925D02*
D03*
X335146D02*
D03*
X256405D02*
D03*
X295276Y98425D02*
D03*
X183075Y282965D02*
D03*
X202728D02*
D03*
X131110D02*
D03*
X110425D02*
D03*
D38*
X15748Y15748D02*
D03*
X338583D02*
D03*
Y284299D02*
D03*
D39*
X15748Y284300D02*
D03*
M02*
