G04*
G04 #@! TF.GenerationSoftware,Altium Limited,Altium Designer,24.2.2 (26)*
G04*
G04 Layer_Color=128*
%FSLAX25Y25*%
%MOIN*%
G70*
G04*
G04 #@! TF.SameCoordinates,004D1183-16E1-436D-8927-E0D308D58255*
G04*
G04*
G04 #@! TF.FilePolarity,Positive*
G04*
G01*
G75*
%ADD13C,0.00500*%
D13*
X128835Y232500D02*
X133165D01*
X131000Y230335D02*
Y234665D01*
X128835Y242500D02*
X133165D01*
X131000Y240335D02*
Y244665D01*
X128835Y252500D02*
X133165D01*
X131000Y250335D02*
Y254665D01*
X177520Y182000D02*
X192480D01*
X185000Y174520D02*
Y189480D01*
X125228Y68000D02*
X128772D01*
X127000Y66228D02*
Y69772D01*
X115228Y68000D02*
X118772D01*
X117000Y66228D02*
Y69772D01*
X135228Y68000D02*
X138772D01*
X137000Y66228D02*
Y69772D01*
X145228Y68000D02*
X148772D01*
X147000Y66228D02*
Y69772D01*
X155228Y68000D02*
X158772D01*
X157000Y66228D02*
Y69772D01*
X165228Y68000D02*
X168772D01*
X167000Y66228D02*
Y69772D01*
X175228Y68000D02*
X178772D01*
X177000Y66228D02*
Y69772D01*
X185228Y68000D02*
X188772D01*
X187000Y66228D02*
Y69772D01*
X195228Y68000D02*
X198772D01*
X197000Y66228D02*
Y69772D01*
X205228Y68000D02*
X208772D01*
X207000Y66228D02*
Y69772D01*
X215228Y68000D02*
X218772D01*
X217000Y66228D02*
Y69772D01*
X105228Y68000D02*
X108772D01*
X107000Y66228D02*
Y69772D01*
X95228Y68000D02*
X98772D01*
X97000Y66228D02*
Y69772D01*
X85228Y68000D02*
X88772D01*
X87000Y66228D02*
Y69772D01*
X75228Y68000D02*
X78772D01*
X77000Y66228D02*
Y69772D01*
X65228Y68000D02*
X68772D01*
X67000Y66228D02*
Y69772D01*
X55228Y68000D02*
X58772D01*
X57000Y66228D02*
Y69772D01*
X45228Y68000D02*
X48772D01*
X47000Y66228D02*
Y69772D01*
X35228Y68000D02*
X38772D01*
X37000Y66228D02*
Y69772D01*
X25228Y68000D02*
X28772D01*
X27000Y66228D02*
Y69772D01*
X125228Y138000D02*
X128772D01*
X127000Y136228D02*
Y139772D01*
X115228Y138000D02*
X118772D01*
X117000Y136228D02*
Y139772D01*
X135228Y138000D02*
X138772D01*
X137000Y136228D02*
Y139772D01*
X145228Y138000D02*
X148772D01*
X147000Y136228D02*
Y139772D01*
X155228Y138000D02*
X158772D01*
X157000Y136228D02*
Y139772D01*
X165228Y138000D02*
X168772D01*
X167000Y136228D02*
Y139772D01*
X175228Y138000D02*
X178772D01*
X177000Y136228D02*
Y139772D01*
X185228Y138000D02*
X188772D01*
X187000Y136228D02*
Y139772D01*
X195228Y138000D02*
X198772D01*
X197000Y136228D02*
Y139772D01*
X205228Y138000D02*
X208772D01*
X207000Y136228D02*
Y139772D01*
X215228Y138000D02*
X218772D01*
X217000Y136228D02*
Y139772D01*
X105228Y138000D02*
X108772D01*
X107000Y136228D02*
Y139772D01*
X95228Y138000D02*
X98772D01*
X97000Y136228D02*
Y139772D01*
X85228Y138000D02*
X88772D01*
X87000Y136228D02*
Y139772D01*
X75228Y138000D02*
X78772D01*
X77000Y136228D02*
Y139772D01*
X65228Y138000D02*
X68772D01*
X67000Y136228D02*
Y139772D01*
X55228Y138000D02*
X58772D01*
X57000Y136228D02*
Y139772D01*
X45228Y138000D02*
X48772D01*
X47000Y136228D02*
Y139772D01*
X35228Y138000D02*
X38772D01*
X37000Y136228D02*
Y139772D01*
X25228Y138000D02*
X28772D01*
X27000Y136228D02*
Y139772D01*
X63752Y248500D02*
X66744D01*
X65248Y247004D02*
Y249996D01*
X40405Y248500D02*
X43398D01*
X41902Y247004D02*
Y249996D01*
X49579Y229878D02*
X52571D01*
X51075Y228382D02*
Y231374D01*
X181622Y228988D02*
X184378D01*
X183000Y227610D02*
Y230366D01*
X181622Y259012D02*
X184378D01*
X183000Y257634D02*
Y260390D01*
X200335Y232500D02*
X204665D01*
X202500Y230335D02*
Y234665D01*
X200335Y242500D02*
X204665D01*
X202500Y240335D02*
Y244665D01*
X200335Y252500D02*
X204665D01*
X202500Y250335D02*
Y254665D01*
X110122Y259012D02*
X112878D01*
X111500Y257634D02*
Y260390D01*
X110122Y228988D02*
X112878D01*
X111500Y227610D02*
Y230366D01*
X15335Y174000D02*
X19665D01*
X17500Y171835D02*
Y176165D01*
X15335Y184000D02*
X19665D01*
X17500Y181835D02*
Y186165D01*
X15335Y194000D02*
X19665D01*
X17500Y191835D02*
Y196165D01*
X178100Y107000D02*
X180900D01*
X179500Y105600D02*
Y108400D01*
X158600Y97000D02*
X161400D01*
X160000Y95600D02*
Y98400D01*
X171100Y201500D02*
X173900D01*
X172500Y200100D02*
Y202900D01*
X129600Y164500D02*
X132400D01*
X131000Y163100D02*
Y165900D01*
X167100Y177500D02*
X169900D01*
X168500Y176100D02*
Y178900D01*
X315868Y258204D02*
X318668D01*
X317268Y256804D02*
Y259604D01*
X51100Y183500D02*
X53900D01*
X52500Y182100D02*
Y184900D01*
X292823Y125925D02*
X298728D01*
X295776Y122973D02*
Y128878D01*
X252953Y98425D02*
X258858D01*
X255906Y95473D02*
Y101378D01*
X253453Y125925D02*
X259358D01*
X256405Y122973D02*
Y128878D01*
X291600Y195500D02*
X294400D01*
X293000Y194100D02*
Y196900D01*
X293600Y236500D02*
X296400D01*
X295000Y235100D02*
Y237900D01*
X206100Y174000D02*
X208900D01*
X207500Y172600D02*
Y175400D01*
X217100Y201000D02*
X219900D01*
X218500Y199600D02*
Y202400D01*
X308600Y223000D02*
X311400D01*
X310000Y221600D02*
Y224400D01*
X321100Y37500D02*
X323900D01*
X322500Y36100D02*
Y38900D01*
X245600Y37500D02*
X248400D01*
X247000Y36100D02*
Y38900D01*
X170100Y37000D02*
X172900D01*
X171500Y35600D02*
Y38400D01*
X95100Y37500D02*
X97900D01*
X96500Y36100D02*
Y38900D01*
X331693Y98425D02*
X337598D01*
X334646Y95473D02*
Y101378D01*
X263100Y258500D02*
X265900D01*
X264500Y257100D02*
Y259900D01*
X111100Y209000D02*
X113900D01*
X112500Y207600D02*
Y210400D01*
X120600Y181000D02*
X123400D01*
X122000Y179600D02*
Y182400D01*
X273453Y135925D02*
X279358D01*
X276406Y132973D02*
Y138878D01*
X313323Y156425D02*
X319228D01*
X316276Y153472D02*
Y159378D01*
X292823Y143925D02*
X298728D01*
X295776Y140972D02*
Y146878D01*
X332193Y143925D02*
X338098D01*
X335146Y140972D02*
Y146878D01*
X253453Y143925D02*
X259358D01*
X256405Y140972D02*
Y146878D01*
X292323Y98425D02*
X298228D01*
X295276Y95473D02*
Y101378D01*
X9843Y15748D02*
X21654D01*
X15748Y9843D02*
Y21654D01*
X332677Y15748D02*
X344488D01*
X338583Y9843D02*
Y21654D01*
X332677Y284299D02*
X344488D01*
X338583Y278394D02*
Y290205D01*
X9748Y284300D02*
X21748D01*
X15748Y278300D02*
Y290300D01*
X180122Y282965D02*
X186028D01*
X183075Y280012D02*
Y285917D01*
X199776Y282965D02*
X205681D01*
X202728Y280012D02*
Y285917D01*
X128157Y282965D02*
X134063D01*
X131110Y280012D02*
Y285917D01*
X107473Y282965D02*
X113378D01*
X110425Y280012D02*
Y285917D01*
M02*
