G04*
G04 #@! TF.GenerationSoftware,Altium Limited,Altium Designer,24.2.2 (26)*
G04*
G04 Layer_Color=32768*
%FSLAX25Y25*%
%MOIN*%
G70*
G04*
G04 #@! TF.SameCoordinates,004D1183-16E1-436D-8927-E0D308D58255*
G04*
G04*
G04 #@! TF.FilePolarity,Positive*
G04*
G01*
G75*
%ADD12C,0.00787*%
%ADD71C,0.00394*%
%ADD72C,0.00197*%
D12*
X296126Y262437D02*
X311874D01*
Y254563D02*
Y262437D01*
X296126Y254563D02*
X311874D01*
X296126D02*
Y262437D01*
X32626Y166063D02*
Y173937D01*
Y166063D02*
X48374D01*
Y173937D01*
X32626D02*
X48374D01*
X121559Y15705D02*
Y41295D01*
Y15705D02*
X166441D01*
Y41295D01*
X121559D02*
X166441D01*
X36350Y11267D02*
X42650D01*
Y21733D01*
X36350D02*
X42650D01*
X36350Y11267D02*
Y21733D01*
X107229Y167804D02*
X115103D01*
Y183552D01*
X107229D02*
X115103D01*
X107229Y167804D02*
Y183552D01*
X94350Y169233D02*
X100650D01*
X94350Y158767D02*
Y169233D01*
Y158767D02*
X100650D01*
Y169233D01*
X84252Y157398D02*
X90748D01*
Y169602D01*
X84252D02*
X90748D01*
X84252Y157398D02*
Y169602D01*
X178847Y261768D02*
X187153D01*
X178847Y226232D02*
Y261768D01*
Y226232D02*
X187153D01*
Y261768D01*
X305822Y244052D02*
X313696D01*
X305822Y228304D02*
Y244052D01*
Y228304D02*
X313696D01*
Y244052D01*
X310036Y201126D02*
Y216874D01*
X302162Y201126D02*
X310036D01*
X302162D02*
Y216874D01*
X310036D01*
X282838Y201126D02*
Y216874D01*
X274964Y201126D02*
X282838D01*
X274964D02*
Y216874D01*
X282838D01*
X284626Y218437D02*
X300374D01*
Y210563D02*
Y218437D01*
X284626Y210563D02*
X300374D01*
X284626D02*
Y218437D01*
X90626Y204944D02*
Y212818D01*
Y204944D02*
X106374D01*
Y212818D01*
X90626D02*
X106374D01*
X286874Y254563D02*
Y262437D01*
X271126D02*
X286874D01*
X271126Y254563D02*
Y262437D01*
Y254563D02*
X286874D01*
X260350Y11267D02*
Y21733D01*
X266650D01*
Y11267D02*
Y21733D01*
X260350Y11267D02*
X266650D01*
X186350D02*
Y21733D01*
X192650D01*
Y11267D02*
Y21733D01*
X186350Y11267D02*
X192650D01*
X111350D02*
Y21733D01*
X117650D01*
Y11267D02*
Y21733D01*
X111350Y11267D02*
X117650D01*
X115654Y226232D02*
Y261768D01*
X107346Y226232D02*
X115654D01*
X107346D02*
Y261768D01*
X115654D01*
X39437Y181126D02*
Y196874D01*
X31563Y181126D02*
X39437D01*
X31563D02*
Y196874D01*
X39437D01*
X46559Y15705D02*
Y41295D01*
Y15705D02*
X91441D01*
Y41295D01*
X46559D02*
X91441D01*
X271559Y15705D02*
Y41295D01*
Y15705D02*
X316441D01*
Y41295D01*
X271559D02*
X316441D01*
X196559Y15705D02*
Y41295D01*
Y15705D02*
X241441D01*
Y41295D01*
X196559D02*
X241441D01*
D71*
X290032Y236500D02*
X293969D01*
X292000Y234531D02*
Y238469D01*
X273853Y234032D02*
Y237968D01*
X271885Y236000D02*
X275822D01*
X129032Y242500D02*
X132968D01*
X131000Y240531D02*
Y244468D01*
X93532Y186500D02*
X97469D01*
X95500Y184531D02*
Y188469D01*
X200532Y242500D02*
X204468D01*
X202500Y240531D02*
Y244468D01*
X17500Y182032D02*
Y185968D01*
X15531Y184000D02*
X19468D01*
D72*
X303811Y220161D02*
Y252839D01*
X280189Y220161D02*
Y252839D01*
X303811D01*
X280189Y220161D02*
X303811D01*
X268735Y227535D02*
X278971D01*
X268735Y244465D02*
X278971D01*
X268735Y227535D02*
Y244465D01*
X278971Y227535D02*
Y244465D01*
X140567Y221240D02*
Y263760D01*
X119504Y221240D02*
Y263760D01*
Y221240D02*
X140567D01*
X119504Y263760D02*
X140567D01*
X18654Y62055D02*
X225346D01*
X18654D02*
Y143945D01*
X225346D01*
Y62055D02*
Y143945D01*
X105736Y173311D02*
Y199689D01*
X85264Y173311D02*
Y199689D01*
X105736D01*
X85264Y173311D02*
X105736D01*
X69972Y225153D02*
Y267201D01*
X9736Y225153D02*
X69972D01*
X9736D02*
Y267201D01*
X69972D01*
X212067Y221240D02*
Y263760D01*
X191004Y221240D02*
Y263760D01*
Y221240D02*
X212067D01*
X191004Y263760D02*
X212067D01*
M02*
