G04*
G04 #@! TF.GenerationSoftware,Altium Limited,Altium Designer,24.2.2 (26)*
G04*
G04 Layer_Color=16711935*
%FSLAX25Y25*%
%MOIN*%
G70*
G04*
G04 #@! TF.SameCoordinates,004D1183-16E1-436D-8927-E0D308D58255*
G04*
G04*
G04 #@! TF.FilePolarity,Positive*
G04*
G01*
G75*
%ADD12C,0.00787*%
G36*
X307454Y261070D02*
X307480D01*
X307509Y261066D01*
X307578Y261052D01*
X307655Y261033D01*
X307735Y261004D01*
X307815Y260961D01*
X307855Y260935D01*
X307891Y260906D01*
X307895Y260902D01*
X307898Y260899D01*
X307909Y260888D01*
X307920Y260877D01*
X307938Y260859D01*
X307953Y260837D01*
X307993Y260786D01*
X308033Y260720D01*
X308069Y260640D01*
X308102Y260549D01*
X308124Y260447D01*
X307815Y260422D01*
Y260425D01*
X307811Y260429D01*
X307807Y260451D01*
X307797Y260484D01*
X307782Y260524D01*
X307767Y260567D01*
X307746Y260611D01*
X307720Y260651D01*
X307695Y260684D01*
X307687Y260691D01*
X307673Y260706D01*
X307647Y260728D01*
X307611Y260753D01*
X307563Y260775D01*
X307513Y260797D01*
X307451Y260811D01*
X307385Y260819D01*
X307360D01*
X307330Y260815D01*
X307298Y260808D01*
X307254Y260797D01*
X307210Y260782D01*
X307167Y260764D01*
X307123Y260735D01*
X307116Y260731D01*
X307098Y260717D01*
X307072Y260691D01*
X307039Y260655D01*
X307003Y260611D01*
X306963Y260560D01*
X306926Y260495D01*
X306890Y260422D01*
Y260418D01*
X306887Y260411D01*
X306883Y260400D01*
X306876Y260385D01*
X306872Y260364D01*
X306865Y260338D01*
X306857Y260309D01*
X306850Y260273D01*
X306839Y260233D01*
X306832Y260189D01*
X306825Y260142D01*
X306821Y260091D01*
X306814Y260032D01*
X306810Y259974D01*
X306806Y259909D01*
Y259843D01*
X306810Y259847D01*
X306825Y259869D01*
X306850Y259898D01*
X306883Y259934D01*
X306919Y259978D01*
X306967Y260018D01*
X307017Y260058D01*
X307076Y260094D01*
X307079D01*
X307083Y260098D01*
X307105Y260109D01*
X307138Y260120D01*
X307181Y260138D01*
X307232Y260153D01*
X307291Y260163D01*
X307352Y260174D01*
X307418Y260178D01*
X307447D01*
X307469Y260174D01*
X307498Y260171D01*
X307527Y260167D01*
X307563Y260160D01*
X307600Y260149D01*
X307684Y260123D01*
X307727Y260105D01*
X307771Y260080D01*
X307815Y260054D01*
X307862Y260025D01*
X307906Y259989D01*
X307946Y259949D01*
X307949Y259945D01*
X307957Y259938D01*
X307967Y259927D01*
X307979Y259909D01*
X307997Y259883D01*
X308015Y259858D01*
X308033Y259825D01*
X308055Y259788D01*
X308077Y259749D01*
X308095Y259705D01*
X308113Y259654D01*
X308131Y259603D01*
X308142Y259548D01*
X308153Y259486D01*
X308160Y259424D01*
X308164Y259359D01*
Y259355D01*
Y259348D01*
Y259337D01*
Y259319D01*
X308160Y259297D01*
Y259275D01*
X308150Y259217D01*
X308139Y259148D01*
X308120Y259075D01*
X308095Y258995D01*
X308059Y258919D01*
Y258915D01*
X308055Y258911D01*
X308048Y258900D01*
X308040Y258886D01*
X308018Y258849D01*
X307986Y258802D01*
X307946Y258751D01*
X307898Y258700D01*
X307840Y258649D01*
X307778Y258606D01*
X307775D01*
X307771Y258602D01*
X307760Y258595D01*
X307746Y258591D01*
X307709Y258573D01*
X307662Y258555D01*
X307600Y258533D01*
X307531Y258518D01*
X307454Y258504D01*
X307371Y258500D01*
X307352D01*
X307334Y258504D01*
X307305D01*
X307272Y258507D01*
X307236Y258514D01*
X307192Y258525D01*
X307149Y258536D01*
X307098Y258551D01*
X307047Y258569D01*
X306996Y258591D01*
X306941Y258620D01*
X306890Y258653D01*
X306839Y258689D01*
X306788Y258733D01*
X306741Y258784D01*
X306737Y258787D01*
X306730Y258798D01*
X306719Y258813D01*
X306704Y258839D01*
X306683Y258871D01*
X306664Y258908D01*
X306643Y258955D01*
X306621Y259006D01*
X306595Y259068D01*
X306573Y259137D01*
X306555Y259213D01*
X306537Y259297D01*
X306519Y259392D01*
X306508Y259494D01*
X306501Y259603D01*
X306497Y259719D01*
Y259723D01*
Y259727D01*
Y259738D01*
Y259752D01*
X306501Y259788D01*
Y259840D01*
X306504Y259898D01*
X306511Y259967D01*
X306519Y260043D01*
X306530Y260127D01*
X306544Y260211D01*
X306562Y260302D01*
X306584Y260389D01*
X306610Y260476D01*
X306643Y260560D01*
X306679Y260640D01*
X306719Y260717D01*
X306766Y260782D01*
X306770Y260786D01*
X306777Y260793D01*
X306792Y260808D01*
X306810Y260830D01*
X306832Y260851D01*
X306861Y260873D01*
X306897Y260902D01*
X306934Y260928D01*
X306978Y260953D01*
X307025Y260982D01*
X307079Y261004D01*
X307134Y261030D01*
X307196Y261048D01*
X307261Y261063D01*
X307330Y261070D01*
X307403Y261073D01*
X307433D01*
X307454Y261070D01*
D02*
G37*
G36*
X305248Y261103D02*
X305281Y261099D01*
X305321Y261095D01*
X305361Y261092D01*
X305409Y261081D01*
X305507Y261059D01*
X305616Y261026D01*
X305671Y261004D01*
X305722Y260979D01*
X305773Y260946D01*
X305824Y260913D01*
X305827Y260910D01*
X305835Y260906D01*
X305849Y260895D01*
X305867Y260877D01*
X305886Y260859D01*
X305911Y260833D01*
X305936Y260804D01*
X305965Y260775D01*
X305995Y260738D01*
X306024Y260695D01*
X306057Y260651D01*
X306086Y260604D01*
X306111Y260549D01*
X306140Y260495D01*
X306162Y260436D01*
X306184Y260371D01*
X305856Y260295D01*
Y260298D01*
X305853Y260305D01*
X305845Y260320D01*
X305838Y260338D01*
X305831Y260360D01*
X305820Y260389D01*
X305791Y260447D01*
X305754Y260513D01*
X305711Y260578D01*
X305656Y260640D01*
X305598Y260695D01*
X305591Y260702D01*
X305569Y260717D01*
X305532Y260735D01*
X305485Y260760D01*
X305423Y260782D01*
X305354Y260804D01*
X305270Y260819D01*
X305179Y260822D01*
X305150D01*
X305132Y260819D01*
X305106D01*
X305077Y260815D01*
X305008Y260804D01*
X304932Y260789D01*
X304852Y260764D01*
X304768Y260728D01*
X304692Y260680D01*
X304688D01*
X304684Y260673D01*
X304659Y260655D01*
X304626Y260626D01*
X304586Y260582D01*
X304539Y260527D01*
X304495Y260466D01*
X304455Y260389D01*
X304419Y260305D01*
Y260302D01*
X304415Y260295D01*
X304411Y260284D01*
X304408Y260265D01*
X304400Y260244D01*
X304393Y260218D01*
X304382Y260156D01*
X304368Y260083D01*
X304353Y260003D01*
X304346Y259916D01*
X304342Y259821D01*
Y259818D01*
Y259807D01*
Y259788D01*
Y259767D01*
X304346Y259741D01*
Y259708D01*
X304349Y259672D01*
X304353Y259632D01*
X304364Y259545D01*
X304382Y259450D01*
X304404Y259355D01*
X304433Y259261D01*
Y259257D01*
X304437Y259250D01*
X304444Y259239D01*
X304451Y259221D01*
X304473Y259177D01*
X304506Y259126D01*
X304546Y259068D01*
X304597Y259006D01*
X304655Y258951D01*
X304724Y258900D01*
X304728D01*
X304735Y258897D01*
X304746Y258889D01*
X304761Y258882D01*
X304779Y258875D01*
X304801Y258864D01*
X304852Y258842D01*
X304917Y258820D01*
X304990Y258802D01*
X305070Y258787D01*
X305154Y258784D01*
X305179D01*
X305201Y258787D01*
X305227D01*
X305252Y258791D01*
X305318Y258806D01*
X305394Y258824D01*
X305470Y258853D01*
X305551Y258893D01*
X305591Y258915D01*
X305627Y258944D01*
X305631Y258948D01*
X305634Y258951D01*
X305645Y258962D01*
X305660Y258973D01*
X305674Y258991D01*
X305693Y259013D01*
X305714Y259035D01*
X305733Y259064D01*
X305754Y259097D01*
X305780Y259133D01*
X305802Y259170D01*
X305824Y259213D01*
X305842Y259261D01*
X305860Y259312D01*
X305878Y259366D01*
X305893Y259424D01*
X306228Y259341D01*
Y259337D01*
X306224Y259323D01*
X306217Y259301D01*
X306206Y259272D01*
X306195Y259239D01*
X306180Y259199D01*
X306162Y259155D01*
X306140Y259108D01*
X306089Y259006D01*
X306024Y258904D01*
X305984Y258853D01*
X305944Y258802D01*
X305900Y258758D01*
X305849Y258715D01*
X305845Y258711D01*
X305838Y258704D01*
X305820Y258697D01*
X305802Y258682D01*
X305773Y258664D01*
X305744Y258646D01*
X305703Y258627D01*
X305663Y258609D01*
X305616Y258587D01*
X305565Y258569D01*
X305511Y258551D01*
X305452Y258533D01*
X305390Y258518D01*
X305325Y258511D01*
X305256Y258504D01*
X305183Y258500D01*
X305143D01*
X305114Y258504D01*
X305081D01*
X305041Y258507D01*
X304997Y258514D01*
X304946Y258522D01*
X304841Y258540D01*
X304732Y258569D01*
X304622Y258609D01*
X304571Y258635D01*
X304521Y258664D01*
X304517Y258667D01*
X304509Y258671D01*
X304495Y258682D01*
X304480Y258697D01*
X304459Y258711D01*
X304433Y258733D01*
X304404Y258758D01*
X304375Y258787D01*
X304346Y258820D01*
X304313Y258853D01*
X304247Y258937D01*
X304186Y259035D01*
X304131Y259144D01*
Y259148D01*
X304124Y259159D01*
X304120Y259177D01*
X304109Y259199D01*
X304102Y259228D01*
X304091Y259264D01*
X304076Y259304D01*
X304065Y259348D01*
X304055Y259395D01*
X304040Y259450D01*
X304022Y259563D01*
X304007Y259690D01*
X304000Y259821D01*
Y259825D01*
Y259840D01*
Y259861D01*
X304004Y259887D01*
Y259923D01*
X304007Y259960D01*
X304011Y260007D01*
X304018Y260054D01*
X304036Y260160D01*
X304062Y260276D01*
X304098Y260393D01*
X304149Y260506D01*
X304153Y260509D01*
X304156Y260520D01*
X304164Y260535D01*
X304178Y260553D01*
X304193Y260578D01*
X304211Y260608D01*
X304258Y260673D01*
X304320Y260746D01*
X304393Y260819D01*
X304477Y260891D01*
X304575Y260953D01*
X304579Y260957D01*
X304590Y260961D01*
X304604Y260968D01*
X304622Y260979D01*
X304651Y260990D01*
X304681Y261001D01*
X304717Y261015D01*
X304757Y261030D01*
X304801Y261044D01*
X304848Y261059D01*
X304950Y261081D01*
X305066Y261099D01*
X305187Y261106D01*
X305223D01*
X305248Y261103D01*
D02*
G37*
G36*
X41748Y172602D02*
X41781Y172599D01*
X41821Y172595D01*
X41861Y172592D01*
X41909Y172581D01*
X42007Y172559D01*
X42116Y172526D01*
X42171Y172504D01*
X42222Y172479D01*
X42273Y172446D01*
X42324Y172413D01*
X42327Y172410D01*
X42334Y172406D01*
X42349Y172395D01*
X42367Y172377D01*
X42386Y172359D01*
X42411Y172333D01*
X42436Y172304D01*
X42466Y172275D01*
X42495Y172239D01*
X42524Y172195D01*
X42557Y172151D01*
X42586Y172104D01*
X42611Y172049D01*
X42640Y171995D01*
X42662Y171936D01*
X42684Y171871D01*
X42356Y171794D01*
Y171798D01*
X42353Y171805D01*
X42345Y171820D01*
X42338Y171838D01*
X42331Y171860D01*
X42320Y171889D01*
X42291Y171947D01*
X42254Y172013D01*
X42211Y172078D01*
X42156Y172140D01*
X42098Y172195D01*
X42091Y172202D01*
X42069Y172217D01*
X42032Y172235D01*
X41985Y172260D01*
X41923Y172282D01*
X41854Y172304D01*
X41770Y172319D01*
X41679Y172322D01*
X41650D01*
X41632Y172319D01*
X41607D01*
X41577Y172315D01*
X41508Y172304D01*
X41432Y172290D01*
X41352Y172264D01*
X41268Y172228D01*
X41192Y172180D01*
X41188D01*
X41184Y172173D01*
X41159Y172155D01*
X41126Y172126D01*
X41086Y172082D01*
X41039Y172027D01*
X40995Y171966D01*
X40955Y171889D01*
X40918Y171805D01*
Y171802D01*
X40915Y171794D01*
X40911Y171783D01*
X40908Y171765D01*
X40900Y171744D01*
X40893Y171718D01*
X40882Y171656D01*
X40868Y171583D01*
X40853Y171503D01*
X40846Y171416D01*
X40842Y171321D01*
Y171318D01*
Y171307D01*
Y171289D01*
Y171267D01*
X40846Y171241D01*
Y171208D01*
X40849Y171172D01*
X40853Y171132D01*
X40864Y171045D01*
X40882Y170950D01*
X40904Y170855D01*
X40933Y170761D01*
Y170757D01*
X40937Y170750D01*
X40944Y170739D01*
X40951Y170721D01*
X40973Y170677D01*
X41006Y170626D01*
X41046Y170568D01*
X41097Y170506D01*
X41155Y170451D01*
X41224Y170400D01*
X41228D01*
X41235Y170397D01*
X41246Y170389D01*
X41261Y170382D01*
X41279Y170375D01*
X41301Y170364D01*
X41352Y170342D01*
X41417Y170320D01*
X41490Y170302D01*
X41570Y170288D01*
X41654Y170284D01*
X41679D01*
X41701Y170288D01*
X41727D01*
X41752Y170291D01*
X41818Y170306D01*
X41894Y170324D01*
X41971Y170353D01*
X42051Y170393D01*
X42091Y170415D01*
X42127Y170444D01*
X42131Y170448D01*
X42134Y170451D01*
X42145Y170462D01*
X42160Y170473D01*
X42174Y170491D01*
X42193Y170513D01*
X42214Y170535D01*
X42233Y170564D01*
X42254Y170597D01*
X42280Y170633D01*
X42302Y170670D01*
X42324Y170713D01*
X42342Y170761D01*
X42360Y170812D01*
X42378Y170866D01*
X42393Y170924D01*
X42728Y170841D01*
Y170837D01*
X42724Y170823D01*
X42717Y170801D01*
X42706Y170772D01*
X42695Y170739D01*
X42680Y170699D01*
X42662Y170655D01*
X42640Y170608D01*
X42589Y170506D01*
X42524Y170404D01*
X42484Y170353D01*
X42444Y170302D01*
X42400Y170258D01*
X42349Y170215D01*
X42345Y170211D01*
X42338Y170204D01*
X42320Y170196D01*
X42302Y170182D01*
X42273Y170164D01*
X42243Y170146D01*
X42204Y170127D01*
X42163Y170109D01*
X42116Y170087D01*
X42065Y170069D01*
X42011Y170051D01*
X41952Y170033D01*
X41890Y170018D01*
X41825Y170011D01*
X41756Y170004D01*
X41683Y170000D01*
X41643D01*
X41614Y170004D01*
X41581D01*
X41541Y170007D01*
X41497Y170015D01*
X41446Y170022D01*
X41341Y170040D01*
X41232Y170069D01*
X41122Y170109D01*
X41071Y170135D01*
X41021Y170164D01*
X41017Y170167D01*
X41010Y170171D01*
X40995Y170182D01*
X40980Y170196D01*
X40959Y170211D01*
X40933Y170233D01*
X40904Y170258D01*
X40875Y170288D01*
X40846Y170320D01*
X40813Y170353D01*
X40747Y170437D01*
X40686Y170535D01*
X40631Y170644D01*
Y170648D01*
X40624Y170659D01*
X40620Y170677D01*
X40609Y170699D01*
X40602Y170728D01*
X40591Y170764D01*
X40576Y170804D01*
X40565Y170848D01*
X40555Y170895D01*
X40540Y170950D01*
X40522Y171063D01*
X40507Y171190D01*
X40500Y171321D01*
Y171325D01*
Y171339D01*
Y171361D01*
X40504Y171387D01*
Y171423D01*
X40507Y171460D01*
X40511Y171507D01*
X40518Y171554D01*
X40536Y171660D01*
X40562Y171776D01*
X40598Y171893D01*
X40649Y172006D01*
X40653Y172009D01*
X40657Y172020D01*
X40664Y172035D01*
X40678Y172053D01*
X40693Y172078D01*
X40711Y172108D01*
X40758Y172173D01*
X40820Y172246D01*
X40893Y172319D01*
X40977Y172391D01*
X41075Y172453D01*
X41079Y172457D01*
X41090Y172461D01*
X41104Y172468D01*
X41122Y172479D01*
X41151Y172490D01*
X41181Y172501D01*
X41217Y172515D01*
X41257Y172530D01*
X41301Y172544D01*
X41348Y172559D01*
X41450Y172581D01*
X41567Y172599D01*
X41687Y172606D01*
X41723D01*
X41748Y172602D01*
D02*
G37*
G36*
X43907Y172570D02*
X43936Y172566D01*
X43973Y172563D01*
X44012Y172555D01*
X44053Y172548D01*
X44147Y172522D01*
X44242Y172486D01*
X44289Y172464D01*
X44337Y172439D01*
X44380Y172406D01*
X44420Y172370D01*
X44424Y172366D01*
X44431Y172362D01*
X44438Y172348D01*
X44453Y172333D01*
X44471Y172315D01*
X44489Y172290D01*
X44508Y172264D01*
X44529Y172231D01*
X44566Y172162D01*
X44602Y172075D01*
X44617Y172031D01*
X44624Y171980D01*
X44631Y171929D01*
X44635Y171874D01*
Y171867D01*
Y171849D01*
X44631Y171820D01*
X44628Y171780D01*
X44620Y171736D01*
X44606Y171685D01*
X44591Y171631D01*
X44570Y171576D01*
X44566Y171569D01*
X44559Y171551D01*
X44544Y171521D01*
X44522Y171481D01*
X44493Y171438D01*
X44457Y171383D01*
X44413Y171328D01*
X44362Y171267D01*
X44355Y171259D01*
X44337Y171238D01*
X44318Y171219D01*
X44300Y171201D01*
X44278Y171179D01*
X44249Y171150D01*
X44220Y171121D01*
X44184Y171088D01*
X44147Y171052D01*
X44104Y171012D01*
X44056Y170972D01*
X44005Y170924D01*
X43947Y170877D01*
X43889Y170826D01*
X43885Y170823D01*
X43878Y170815D01*
X43863Y170804D01*
X43845Y170790D01*
X43823Y170768D01*
X43798Y170746D01*
X43740Y170699D01*
X43678Y170644D01*
X43619Y170590D01*
X43569Y170542D01*
X43547Y170524D01*
X43528Y170506D01*
X43525Y170502D01*
X43514Y170491D01*
X43499Y170477D01*
X43481Y170455D01*
X43463Y170430D01*
X43441Y170404D01*
X43397Y170342D01*
X44639D01*
Y170044D01*
X42968D01*
Y170047D01*
Y170062D01*
Y170084D01*
X42972Y170113D01*
X42975Y170146D01*
X42982Y170182D01*
X42990Y170218D01*
X43004Y170258D01*
Y170262D01*
X43008Y170266D01*
X43015Y170288D01*
X43030Y170320D01*
X43052Y170364D01*
X43081Y170415D01*
X43117Y170473D01*
X43157Y170531D01*
X43208Y170593D01*
Y170597D01*
X43215Y170600D01*
X43234Y170622D01*
X43266Y170655D01*
X43314Y170703D01*
X43368Y170757D01*
X43437Y170823D01*
X43521Y170895D01*
X43612Y170972D01*
X43616Y170975D01*
X43630Y170986D01*
X43652Y171005D01*
X43678Y171026D01*
X43710Y171055D01*
X43751Y171088D01*
X43791Y171125D01*
X43838Y171165D01*
X43929Y171252D01*
X44020Y171339D01*
X44063Y171383D01*
X44104Y171427D01*
X44140Y171467D01*
X44169Y171507D01*
Y171511D01*
X44176Y171514D01*
X44184Y171525D01*
X44191Y171540D01*
X44216Y171580D01*
X44245Y171627D01*
X44271Y171685D01*
X44297Y171747D01*
X44311Y171816D01*
X44318Y171882D01*
Y171886D01*
Y171889D01*
X44315Y171911D01*
X44311Y171947D01*
X44300Y171987D01*
X44286Y172038D01*
X44260Y172089D01*
X44227Y172140D01*
X44184Y172191D01*
X44176Y172198D01*
X44158Y172213D01*
X44133Y172231D01*
X44093Y172257D01*
X44042Y172279D01*
X43983Y172300D01*
X43914Y172315D01*
X43838Y172319D01*
X43816D01*
X43801Y172315D01*
X43758Y172311D01*
X43707Y172300D01*
X43652Y172286D01*
X43590Y172260D01*
X43532Y172228D01*
X43477Y172184D01*
X43470Y172177D01*
X43456Y172159D01*
X43434Y172129D01*
X43412Y172086D01*
X43387Y172035D01*
X43365Y171969D01*
X43350Y171896D01*
X43343Y171813D01*
X43026Y171845D01*
Y171849D01*
X43030Y171860D01*
Y171878D01*
X43033Y171904D01*
X43041Y171933D01*
X43048Y171966D01*
X43059Y172006D01*
X43070Y172046D01*
X43099Y172133D01*
X43143Y172220D01*
X43168Y172264D01*
X43201Y172308D01*
X43234Y172348D01*
X43270Y172384D01*
X43274Y172388D01*
X43281Y172391D01*
X43292Y172402D01*
X43310Y172413D01*
X43332Y172428D01*
X43357Y172442D01*
X43387Y172461D01*
X43423Y172479D01*
X43463Y172497D01*
X43507Y172515D01*
X43554Y172530D01*
X43605Y172544D01*
X43659Y172555D01*
X43718Y172566D01*
X43780Y172570D01*
X43845Y172573D01*
X43881D01*
X43907Y172570D01*
D02*
G37*
G36*
X145052Y31103D02*
X145077D01*
X145147Y31095D01*
X145223Y31084D01*
X145303Y31066D01*
X145390Y31044D01*
X145470Y31015D01*
X145474D01*
X145481Y31012D01*
X145492Y31004D01*
X145507Y30997D01*
X145543Y30979D01*
X145591Y30946D01*
X145645Y30910D01*
X145700Y30862D01*
X145751Y30808D01*
X145798Y30746D01*
Y30742D01*
X145802Y30738D01*
X145809Y30728D01*
X145816Y30717D01*
X145835Y30680D01*
X145856Y30633D01*
X145882Y30575D01*
X145900Y30506D01*
X145918Y30433D01*
X145925Y30353D01*
X145605Y30327D01*
Y30331D01*
Y30338D01*
X145601Y30349D01*
X145598Y30367D01*
X145587Y30407D01*
X145572Y30462D01*
X145551Y30520D01*
X145518Y30578D01*
X145478Y30633D01*
X145427Y30684D01*
X145420Y30688D01*
X145401Y30702D01*
X145365Y30724D01*
X145318Y30746D01*
X145256Y30768D01*
X145183Y30790D01*
X145092Y30804D01*
X144990Y30808D01*
X144939D01*
X144917Y30804D01*
X144888Y30800D01*
X144823Y30793D01*
X144750Y30779D01*
X144677Y30760D01*
X144608Y30731D01*
X144579Y30713D01*
X144550Y30695D01*
X144542Y30691D01*
X144528Y30677D01*
X144506Y30651D01*
X144484Y30622D01*
X144459Y30582D01*
X144437Y30538D01*
X144422Y30487D01*
X144415Y30429D01*
Y30422D01*
Y30407D01*
X144419Y30382D01*
X144426Y30353D01*
X144437Y30316D01*
X144455Y30280D01*
X144477Y30244D01*
X144509Y30207D01*
X144513Y30204D01*
X144531Y30193D01*
X144546Y30182D01*
X144561Y30174D01*
X144582Y30163D01*
X144608Y30149D01*
X144641Y30138D01*
X144677Y30123D01*
X144717Y30109D01*
X144764Y30091D01*
X144815Y30076D01*
X144874Y30058D01*
X144939Y30043D01*
X145012Y30025D01*
X145016D01*
X145030Y30022D01*
X145052Y30018D01*
X145077Y30011D01*
X145110Y30003D01*
X145150Y29992D01*
X145190Y29981D01*
X145234Y29970D01*
X145328Y29945D01*
X145420Y29919D01*
X145463Y29905D01*
X145503Y29890D01*
X145540Y29880D01*
X145569Y29865D01*
X145572D01*
X145580Y29861D01*
X145591Y29854D01*
X145605Y29847D01*
X145645Y29825D01*
X145693Y29796D01*
X145747Y29756D01*
X145802Y29712D01*
X145853Y29661D01*
X145896Y29607D01*
X145900Y29599D01*
X145915Y29581D01*
X145929Y29548D01*
X145951Y29505D01*
X145969Y29454D01*
X145987Y29392D01*
X145998Y29323D01*
X146002Y29250D01*
Y29246D01*
Y29243D01*
Y29232D01*
Y29217D01*
X145995Y29177D01*
X145987Y29126D01*
X145973Y29068D01*
X145955Y29006D01*
X145925Y28940D01*
X145886Y28871D01*
Y28868D01*
X145882Y28864D01*
X145864Y28842D01*
X145838Y28809D01*
X145802Y28773D01*
X145754Y28729D01*
X145696Y28682D01*
X145631Y28638D01*
X145554Y28598D01*
X145551D01*
X145543Y28595D01*
X145532Y28591D01*
X145518Y28584D01*
X145496Y28576D01*
X145470Y28565D01*
X145412Y28551D01*
X145343Y28533D01*
X145259Y28515D01*
X145168Y28504D01*
X145070Y28500D01*
X145012D01*
X144983Y28504D01*
X144950D01*
X144914Y28507D01*
X144870Y28511D01*
X144779Y28525D01*
X144684Y28540D01*
X144590Y28565D01*
X144499Y28598D01*
X144495D01*
X144488Y28602D01*
X144477Y28609D01*
X144462Y28616D01*
X144419Y28638D01*
X144368Y28671D01*
X144309Y28715D01*
X144247Y28766D01*
X144189Y28828D01*
X144135Y28897D01*
Y28900D01*
X144127Y28908D01*
X144124Y28918D01*
X144113Y28933D01*
X144106Y28951D01*
X144095Y28973D01*
X144069Y29028D01*
X144044Y29097D01*
X144022Y29173D01*
X144007Y29261D01*
X144000Y29352D01*
X144313Y29381D01*
Y29377D01*
Y29374D01*
X144317Y29363D01*
Y29348D01*
X144324Y29315D01*
X144335Y29268D01*
X144349Y29221D01*
X144364Y29166D01*
X144389Y29115D01*
X144415Y29068D01*
X144419Y29064D01*
X144430Y29050D01*
X144448Y29024D01*
X144477Y28999D01*
X144513Y28966D01*
X144553Y28933D01*
X144608Y28900D01*
X144666Y28871D01*
X144670D01*
X144673Y28868D01*
X144684Y28864D01*
X144695Y28860D01*
X144732Y28849D01*
X144779Y28835D01*
X144837Y28820D01*
X144903Y28809D01*
X144975Y28802D01*
X145055Y28798D01*
X145088D01*
X145125Y28802D01*
X145168Y28806D01*
X145219Y28813D01*
X145278Y28820D01*
X145336Y28835D01*
X145390Y28853D01*
X145398Y28857D01*
X145416Y28864D01*
X145441Y28879D01*
X145474Y28893D01*
X145507Y28918D01*
X145543Y28944D01*
X145580Y28973D01*
X145609Y29010D01*
X145613Y29013D01*
X145620Y29028D01*
X145631Y29046D01*
X145645Y29075D01*
X145660Y29104D01*
X145671Y29141D01*
X145678Y29181D01*
X145682Y29224D01*
Y29228D01*
Y29246D01*
X145678Y29268D01*
X145674Y29297D01*
X145663Y29326D01*
X145652Y29363D01*
X145634Y29399D01*
X145609Y29432D01*
X145605Y29435D01*
X145594Y29446D01*
X145580Y29461D01*
X145554Y29483D01*
X145525Y29505D01*
X145485Y29530D01*
X145438Y29555D01*
X145383Y29577D01*
X145379Y29581D01*
X145361Y29585D01*
X145332Y29596D01*
X145314Y29599D01*
X145289Y29607D01*
X145263Y29617D01*
X145230Y29625D01*
X145194Y29636D01*
X145150Y29647D01*
X145106Y29658D01*
X145055Y29672D01*
X144997Y29687D01*
X144935Y29701D01*
X144932D01*
X144921Y29705D01*
X144903Y29708D01*
X144881Y29716D01*
X144852Y29723D01*
X144819Y29730D01*
X144746Y29752D01*
X144666Y29778D01*
X144582Y29803D01*
X144509Y29829D01*
X144477Y29843D01*
X144448Y29858D01*
X144444D01*
X144440Y29861D01*
X144419Y29876D01*
X144386Y29894D01*
X144349Y29923D01*
X144306Y29956D01*
X144262Y29996D01*
X144218Y30043D01*
X144182Y30094D01*
X144178Y30101D01*
X144167Y30120D01*
X144153Y30149D01*
X144138Y30185D01*
X144124Y30233D01*
X144109Y30287D01*
X144098Y30345D01*
X144095Y30407D01*
Y30411D01*
Y30415D01*
Y30426D01*
Y30440D01*
X144102Y30476D01*
X144109Y30524D01*
X144120Y30578D01*
X144138Y30640D01*
X144164Y30702D01*
X144200Y30764D01*
Y30768D01*
X144204Y30771D01*
X144222Y30793D01*
X144247Y30822D01*
X144280Y30859D01*
X144324Y30899D01*
X144378Y30942D01*
X144444Y30982D01*
X144517Y31019D01*
X144520D01*
X144528Y31023D01*
X144539Y31026D01*
X144553Y31033D01*
X144571Y31041D01*
X144597Y31048D01*
X144651Y31062D01*
X144721Y31077D01*
X144801Y31092D01*
X144885Y31103D01*
X144979Y31106D01*
X145026D01*
X145052Y31103D01*
D02*
G37*
G36*
X148779Y28544D02*
X148452D01*
X147924Y30462D01*
Y30466D01*
X147920Y30473D01*
X147917Y30484D01*
X147913Y30502D01*
X147902Y30542D01*
X147891Y30589D01*
X147877Y30640D01*
X147862Y30688D01*
X147851Y30728D01*
X147847Y30746D01*
X147844Y30757D01*
Y30753D01*
X147840Y30749D01*
X147836Y30728D01*
X147829Y30695D01*
X147818Y30655D01*
X147807Y30611D01*
X147793Y30560D01*
X147782Y30509D01*
X147767Y30462D01*
X147236Y28544D01*
X146887D01*
X146228Y31062D01*
X146573D01*
X146948Y29410D01*
Y29406D01*
X146952Y29399D01*
X146956Y29384D01*
X146959Y29366D01*
X146963Y29341D01*
X146970Y29315D01*
X146977Y29283D01*
X146985Y29246D01*
X147003Y29170D01*
X147021Y29082D01*
X147039Y28988D01*
X147057Y28893D01*
Y28897D01*
X147061Y28911D01*
X147069Y28929D01*
X147072Y28959D01*
X147079Y28988D01*
X147090Y29024D01*
X147108Y29104D01*
X147130Y29184D01*
X147138Y29224D01*
X147149Y29261D01*
X147156Y29294D01*
X147163Y29323D01*
X147170Y29344D01*
X147174Y29359D01*
X147651Y31062D01*
X148055D01*
X148412Y29785D01*
Y29781D01*
X148419Y29763D01*
X148426Y29737D01*
X148433Y29705D01*
X148444Y29661D01*
X148459Y29614D01*
X148474Y29559D01*
X148488Y29497D01*
X148506Y29428D01*
X148521Y29359D01*
X148554Y29210D01*
X148586Y29053D01*
X148612Y28893D01*
Y28897D01*
X148616Y28904D01*
Y28918D01*
X148623Y28937D01*
X148626Y28959D01*
X148634Y28984D01*
X148637Y29017D01*
X148648Y29053D01*
X148666Y29133D01*
X148688Y29228D01*
X148710Y29330D01*
X148739Y29443D01*
X149132Y31062D01*
X149471D01*
X148779Y28544D01*
D02*
G37*
G36*
X150552Y31070D02*
X150581Y31066D01*
X150618Y31062D01*
X150657Y31055D01*
X150698Y31048D01*
X150792Y31023D01*
X150887Y30986D01*
X150934Y30964D01*
X150981Y30939D01*
X151025Y30906D01*
X151065Y30870D01*
X151069Y30866D01*
X151076Y30862D01*
X151083Y30848D01*
X151098Y30833D01*
X151116Y30815D01*
X151134Y30790D01*
X151153Y30764D01*
X151174Y30731D01*
X151211Y30662D01*
X151247Y30575D01*
X151262Y30531D01*
X151269Y30480D01*
X151276Y30429D01*
X151280Y30375D01*
Y30367D01*
Y30349D01*
X151276Y30320D01*
X151273Y30280D01*
X151265Y30236D01*
X151251Y30185D01*
X151236Y30131D01*
X151214Y30076D01*
X151211Y30069D01*
X151204Y30051D01*
X151189Y30022D01*
X151167Y29981D01*
X151138Y29938D01*
X151102Y29883D01*
X151058Y29829D01*
X151007Y29767D01*
X151000Y29759D01*
X150981Y29737D01*
X150963Y29719D01*
X150945Y29701D01*
X150923Y29679D01*
X150894Y29650D01*
X150865Y29621D01*
X150829Y29588D01*
X150792Y29552D01*
X150749Y29512D01*
X150701Y29472D01*
X150650Y29425D01*
X150592Y29377D01*
X150534Y29326D01*
X150530Y29323D01*
X150523Y29315D01*
X150508Y29304D01*
X150490Y29290D01*
X150468Y29268D01*
X150443Y29246D01*
X150384Y29199D01*
X150323Y29144D01*
X150264Y29090D01*
X150213Y29042D01*
X150192Y29024D01*
X150173Y29006D01*
X150170Y29002D01*
X150159Y28991D01*
X150144Y28977D01*
X150126Y28955D01*
X150108Y28929D01*
X150086Y28904D01*
X150042Y28842D01*
X151284D01*
Y28544D01*
X149613D01*
Y28547D01*
Y28562D01*
Y28584D01*
X149617Y28613D01*
X149620Y28646D01*
X149627Y28682D01*
X149635Y28718D01*
X149649Y28758D01*
Y28762D01*
X149653Y28766D01*
X149660Y28787D01*
X149675Y28820D01*
X149697Y28864D01*
X149726Y28915D01*
X149762Y28973D01*
X149802Y29031D01*
X149853Y29093D01*
Y29097D01*
X149860Y29100D01*
X149879Y29122D01*
X149911Y29155D01*
X149959Y29202D01*
X150013Y29257D01*
X150082Y29323D01*
X150166Y29395D01*
X150257Y29472D01*
X150261Y29476D01*
X150275Y29486D01*
X150297Y29505D01*
X150323Y29526D01*
X150355Y29555D01*
X150395Y29588D01*
X150435Y29625D01*
X150483Y29665D01*
X150574Y29752D01*
X150665Y29840D01*
X150708Y29883D01*
X150749Y29927D01*
X150785Y29967D01*
X150814Y30007D01*
Y30011D01*
X150821Y30014D01*
X150829Y30025D01*
X150836Y30040D01*
X150861Y30080D01*
X150891Y30127D01*
X150916Y30185D01*
X150941Y30247D01*
X150956Y30316D01*
X150963Y30382D01*
Y30386D01*
Y30389D01*
X150960Y30411D01*
X150956Y30447D01*
X150945Y30487D01*
X150931Y30538D01*
X150905Y30589D01*
X150872Y30640D01*
X150829Y30691D01*
X150821Y30698D01*
X150803Y30713D01*
X150778Y30731D01*
X150738Y30757D01*
X150687Y30779D01*
X150628Y30800D01*
X150559Y30815D01*
X150483Y30819D01*
X150461D01*
X150446Y30815D01*
X150403Y30811D01*
X150352Y30800D01*
X150297Y30786D01*
X150235Y30760D01*
X150177Y30728D01*
X150122Y30684D01*
X150115Y30677D01*
X150101Y30659D01*
X150079Y30629D01*
X150057Y30586D01*
X150031Y30535D01*
X150010Y30469D01*
X149995Y30396D01*
X149988Y30313D01*
X149671Y30345D01*
Y30349D01*
X149675Y30360D01*
Y30378D01*
X149678Y30404D01*
X149686Y30433D01*
X149693Y30466D01*
X149704Y30506D01*
X149715Y30546D01*
X149744Y30633D01*
X149788Y30720D01*
X149813Y30764D01*
X149846Y30808D01*
X149879Y30848D01*
X149915Y30884D01*
X149919Y30888D01*
X149926Y30891D01*
X149937Y30902D01*
X149955Y30913D01*
X149977Y30928D01*
X150002Y30942D01*
X150031Y30961D01*
X150068Y30979D01*
X150108Y30997D01*
X150152Y31015D01*
X150199Y31030D01*
X150250Y31044D01*
X150304Y31055D01*
X150363Y31066D01*
X150425Y31070D01*
X150490Y31073D01*
X150526D01*
X150552Y31070D01*
D02*
G37*
G36*
X37261Y20559D02*
X37269Y20551D01*
X37283Y20537D01*
X37305Y20522D01*
X37331Y20500D01*
X37360Y20471D01*
X37396Y20442D01*
X37440Y20409D01*
X37484Y20377D01*
X37534Y20336D01*
X37593Y20297D01*
X37651Y20256D01*
X37716Y20213D01*
X37786Y20169D01*
X37862Y20125D01*
X37938Y20082D01*
X37942Y20078D01*
X37957Y20071D01*
X37979Y20060D01*
X38011Y20042D01*
X38051Y20023D01*
X38095Y20002D01*
X38146Y19976D01*
X38204Y19951D01*
X38270Y19921D01*
X38335Y19889D01*
X38408Y19860D01*
X38484Y19830D01*
X38641Y19772D01*
X38808Y19718D01*
X38812D01*
X38823Y19714D01*
X38841Y19710D01*
X38863Y19703D01*
X38892Y19696D01*
X38929Y19689D01*
X38969Y19678D01*
X39012Y19670D01*
X39063Y19659D01*
X39118Y19649D01*
X39234Y19630D01*
X39362Y19612D01*
X39500Y19601D01*
Y19285D01*
X39496D01*
X39485D01*
X39471D01*
X39449Y19288D01*
X39420D01*
X39384Y19292D01*
X39344Y19296D01*
X39300Y19299D01*
X39249Y19306D01*
X39198Y19314D01*
X39136Y19325D01*
X39074Y19335D01*
X39009Y19346D01*
X38936Y19361D01*
X38787Y19397D01*
X38783D01*
X38768Y19401D01*
X38747Y19408D01*
X38714Y19419D01*
X38677Y19430D01*
X38634Y19445D01*
X38583Y19459D01*
X38528Y19481D01*
X38466Y19503D01*
X38404Y19525D01*
X38266Y19579D01*
X38120Y19645D01*
X37975Y19718D01*
X37971Y19721D01*
X37957Y19729D01*
X37938Y19739D01*
X37909Y19754D01*
X37877Y19772D01*
X37837Y19798D01*
X37793Y19823D01*
X37745Y19852D01*
X37640Y19921D01*
X37531Y19994D01*
X37418Y20078D01*
X37312Y20165D01*
Y18932D01*
X37014D01*
Y20562D01*
X37258D01*
X37261Y20559D01*
D02*
G37*
G36*
X39500Y18298D02*
X38976Y17967D01*
X38972D01*
X38965Y17960D01*
X38954Y17952D01*
X38939Y17941D01*
X38899Y17916D01*
X38849Y17883D01*
X38794Y17843D01*
X38736Y17803D01*
X38681Y17763D01*
X38630Y17727D01*
X38626Y17723D01*
X38612Y17712D01*
X38590Y17694D01*
X38565Y17668D01*
X38510Y17614D01*
X38484Y17585D01*
X38463Y17556D01*
X38459Y17552D01*
X38455Y17545D01*
X38448Y17530D01*
X38437Y17508D01*
X38426Y17486D01*
X38415Y17461D01*
X38397Y17403D01*
Y17399D01*
X38394Y17392D01*
Y17377D01*
X38390Y17359D01*
X38386Y17334D01*
Y17304D01*
X38383Y17264D01*
Y16835D01*
X39500D01*
Y16500D01*
X36981D01*
Y17668D01*
X36985Y17697D01*
Y17730D01*
X36988Y17807D01*
X36999Y17887D01*
X37010Y17974D01*
X37029Y18054D01*
X37039Y18094D01*
X37050Y18127D01*
Y18131D01*
X37054Y18134D01*
X37065Y18156D01*
X37079Y18189D01*
X37105Y18229D01*
X37138Y18273D01*
X37181Y18320D01*
X37232Y18364D01*
X37291Y18407D01*
X37294D01*
X37298Y18411D01*
X37320Y18426D01*
X37356Y18440D01*
X37403Y18462D01*
X37458Y18480D01*
X37523Y18498D01*
X37593Y18509D01*
X37669Y18513D01*
X37673D01*
X37680D01*
X37695D01*
X37713Y18509D01*
X37738D01*
X37764Y18506D01*
X37826Y18491D01*
X37898Y18469D01*
X37975Y18440D01*
X38051Y18396D01*
X38088Y18367D01*
X38124Y18338D01*
X38128Y18335D01*
X38131Y18331D01*
X38142Y18320D01*
X38153Y18305D01*
X38168Y18287D01*
X38182Y18265D01*
X38201Y18236D01*
X38222Y18207D01*
X38241Y18171D01*
X38259Y18131D01*
X38281Y18087D01*
X38299Y18040D01*
X38313Y17985D01*
X38332Y17931D01*
X38342Y17869D01*
X38353Y17803D01*
X38357Y17810D01*
X38364Y17825D01*
X38379Y17847D01*
X38394Y17876D01*
X38434Y17941D01*
X38459Y17974D01*
X38481Y18003D01*
X38488Y18011D01*
X38506Y18029D01*
X38535Y18058D01*
X38572Y18094D01*
X38623Y18134D01*
X38677Y18182D01*
X38743Y18229D01*
X38816Y18280D01*
X39500Y18713D01*
Y18298D01*
D02*
G37*
G36*
X110519Y179489D02*
X111123D01*
Y179180D01*
X110519D01*
Y178084D01*
X110234D01*
X108604Y179238D01*
Y179489D01*
X110234D01*
Y179831D01*
X110519D01*
Y179489D01*
D02*
G37*
G36*
X110344Y177902D02*
X110366Y177895D01*
X110395Y177884D01*
X110427Y177873D01*
X110468Y177858D01*
X110511Y177840D01*
X110558Y177818D01*
X110660Y177768D01*
X110762Y177702D01*
X110813Y177662D01*
X110864Y177622D01*
X110908Y177578D01*
X110952Y177527D01*
X110955Y177524D01*
X110963Y177516D01*
X110970Y177498D01*
X110984Y177480D01*
X111003Y177451D01*
X111021Y177422D01*
X111039Y177382D01*
X111057Y177342D01*
X111079Y177294D01*
X111097Y177243D01*
X111115Y177189D01*
X111134Y177130D01*
X111148Y177069D01*
X111155Y177003D01*
X111163Y176934D01*
X111166Y176861D01*
Y176821D01*
X111163Y176792D01*
Y176759D01*
X111159Y176719D01*
X111152Y176675D01*
X111145Y176625D01*
X111126Y176519D01*
X111097Y176410D01*
X111057Y176301D01*
X111032Y176250D01*
X111003Y176199D01*
X110999Y176195D01*
X110995Y176188D01*
X110984Y176173D01*
X110970Y176159D01*
X110955Y176137D01*
X110933Y176111D01*
X110908Y176082D01*
X110879Y176053D01*
X110846Y176024D01*
X110813Y175991D01*
X110730Y175926D01*
X110631Y175864D01*
X110522Y175809D01*
X110519D01*
X110508Y175802D01*
X110489Y175798D01*
X110468Y175787D01*
X110438Y175780D01*
X110402Y175769D01*
X110362Y175755D01*
X110318Y175744D01*
X110271Y175733D01*
X110216Y175718D01*
X110103Y175700D01*
X109976Y175685D01*
X109845Y175678D01*
X109841D01*
X109827D01*
X109805D01*
X109780Y175682D01*
X109743D01*
X109707Y175685D01*
X109659Y175689D01*
X109612Y175696D01*
X109506Y175715D01*
X109390Y175740D01*
X109274Y175776D01*
X109161Y175827D01*
X109157Y175831D01*
X109146Y175835D01*
X109132Y175842D01*
X109113Y175856D01*
X109088Y175871D01*
X109059Y175889D01*
X108993Y175937D01*
X108921Y175998D01*
X108848Y176071D01*
X108775Y176155D01*
X108713Y176253D01*
X108709Y176257D01*
X108706Y176268D01*
X108698Y176282D01*
X108688Y176301D01*
X108677Y176330D01*
X108666Y176359D01*
X108651Y176395D01*
X108637Y176435D01*
X108622Y176479D01*
X108607Y176526D01*
X108586Y176628D01*
X108567Y176745D01*
X108560Y176865D01*
Y176901D01*
X108564Y176927D01*
X108567Y176959D01*
X108571Y176999D01*
X108575Y177040D01*
X108586Y177087D01*
X108607Y177185D01*
X108640Y177294D01*
X108662Y177349D01*
X108688Y177400D01*
X108720Y177451D01*
X108753Y177502D01*
X108757Y177505D01*
X108760Y177513D01*
X108771Y177527D01*
X108790Y177545D01*
X108808Y177564D01*
X108833Y177589D01*
X108862Y177615D01*
X108891Y177644D01*
X108928Y177673D01*
X108972Y177702D01*
X109015Y177735D01*
X109063Y177764D01*
X109117Y177789D01*
X109172Y177818D01*
X109230Y177840D01*
X109295Y177862D01*
X109372Y177534D01*
X109368D01*
X109361Y177531D01*
X109346Y177524D01*
X109328Y177516D01*
X109306Y177509D01*
X109277Y177498D01*
X109219Y177469D01*
X109153Y177433D01*
X109088Y177389D01*
X109026Y177334D01*
X108972Y177276D01*
X108964Y177269D01*
X108950Y177247D01*
X108931Y177211D01*
X108906Y177163D01*
X108884Y177101D01*
X108862Y177032D01*
X108848Y176948D01*
X108844Y176857D01*
Y176828D01*
X108848Y176810D01*
Y176785D01*
X108851Y176756D01*
X108862Y176686D01*
X108877Y176610D01*
X108902Y176530D01*
X108939Y176446D01*
X108986Y176370D01*
Y176366D01*
X108993Y176362D01*
X109011Y176337D01*
X109041Y176304D01*
X109084Y176264D01*
X109139Y176217D01*
X109201Y176173D01*
X109277Y176133D01*
X109361Y176097D01*
X109365D01*
X109372Y176093D01*
X109383Y176089D01*
X109401Y176086D01*
X109423Y176078D01*
X109448Y176071D01*
X109510Y176060D01*
X109583Y176046D01*
X109663Y176031D01*
X109750Y176024D01*
X109845Y176020D01*
X109849D01*
X109860D01*
X109878D01*
X109900D01*
X109925Y176024D01*
X109958D01*
X109994Y176028D01*
X110034Y176031D01*
X110122Y176042D01*
X110216Y176060D01*
X110311Y176082D01*
X110406Y176111D01*
X110409D01*
X110417Y176115D01*
X110427Y176122D01*
X110446Y176129D01*
X110489Y176151D01*
X110540Y176184D01*
X110599Y176224D01*
X110660Y176275D01*
X110715Y176333D01*
X110766Y176402D01*
Y176406D01*
X110770Y176413D01*
X110777Y176424D01*
X110784Y176439D01*
X110792Y176457D01*
X110802Y176479D01*
X110824Y176530D01*
X110846Y176595D01*
X110864Y176668D01*
X110879Y176748D01*
X110882Y176832D01*
Y176857D01*
X110879Y176879D01*
Y176905D01*
X110875Y176930D01*
X110861Y176996D01*
X110842Y177072D01*
X110813Y177149D01*
X110773Y177229D01*
X110751Y177269D01*
X110722Y177305D01*
X110719Y177309D01*
X110715Y177313D01*
X110704Y177323D01*
X110693Y177338D01*
X110675Y177352D01*
X110653Y177371D01*
X110631Y177393D01*
X110602Y177411D01*
X110569Y177433D01*
X110533Y177458D01*
X110497Y177480D01*
X110453Y177502D01*
X110406Y177520D01*
X110355Y177538D01*
X110300Y177556D01*
X110242Y177571D01*
X110326Y177906D01*
X110329D01*
X110344Y177902D01*
D02*
G37*
G36*
X100019Y162832D02*
X100015Y162803D01*
Y162770D01*
X100012Y162693D01*
X100001Y162613D01*
X99990Y162526D01*
X99971Y162446D01*
X99961Y162406D01*
X99950Y162373D01*
Y162369D01*
X99946Y162366D01*
X99935Y162344D01*
X99921Y162311D01*
X99895Y162271D01*
X99862Y162227D01*
X99819Y162180D01*
X99768Y162136D01*
X99709Y162093D01*
X99706D01*
X99702Y162089D01*
X99680Y162074D01*
X99644Y162060D01*
X99597Y162038D01*
X99542Y162020D01*
X99476Y162002D01*
X99407Y161991D01*
X99331Y161987D01*
X99327D01*
X99320D01*
X99305D01*
X99287Y161991D01*
X99262D01*
X99236Y161994D01*
X99174Y162009D01*
X99102Y162031D01*
X99025Y162060D01*
X98949Y162104D01*
X98912Y162133D01*
X98876Y162162D01*
X98872Y162165D01*
X98869Y162169D01*
X98858Y162180D01*
X98847Y162195D01*
X98832Y162213D01*
X98818Y162235D01*
X98799Y162264D01*
X98778Y162293D01*
X98759Y162329D01*
X98741Y162369D01*
X98719Y162413D01*
X98701Y162460D01*
X98687Y162515D01*
X98668Y162569D01*
X98658Y162631D01*
X98647Y162697D01*
X98643Y162690D01*
X98636Y162675D01*
X98621Y162653D01*
X98606Y162624D01*
X98567Y162559D01*
X98541Y162526D01*
X98519Y162497D01*
X98512Y162489D01*
X98494Y162471D01*
X98465Y162442D01*
X98428Y162406D01*
X98377Y162366D01*
X98323Y162318D01*
X98257Y162271D01*
X98184Y162220D01*
X97500Y161787D01*
Y162202D01*
X98024Y162533D01*
X98028D01*
X98035Y162540D01*
X98046Y162548D01*
X98061Y162559D01*
X98101Y162584D01*
X98151Y162617D01*
X98206Y162657D01*
X98264Y162697D01*
X98319Y162737D01*
X98370Y162773D01*
X98374Y162777D01*
X98388Y162788D01*
X98410Y162806D01*
X98435Y162832D01*
X98490Y162886D01*
X98515Y162915D01*
X98537Y162944D01*
X98541Y162948D01*
X98545Y162955D01*
X98552Y162970D01*
X98563Y162992D01*
X98574Y163014D01*
X98585Y163039D01*
X98603Y163097D01*
Y163101D01*
X98606Y163108D01*
Y163123D01*
X98610Y163141D01*
X98614Y163166D01*
Y163196D01*
X98617Y163236D01*
Y163665D01*
X97500D01*
Y164000D01*
X100019D01*
Y162832D01*
D02*
G37*
G36*
X97569Y161630D02*
X97602Y161627D01*
X97638Y161619D01*
X97675Y161612D01*
X97715Y161598D01*
X97718D01*
X97722Y161594D01*
X97744Y161587D01*
X97777Y161572D01*
X97820Y161550D01*
X97871Y161521D01*
X97930Y161485D01*
X97988Y161445D01*
X98050Y161394D01*
X98053D01*
X98057Y161387D01*
X98079Y161368D01*
X98111Y161336D01*
X98159Y161288D01*
X98213Y161234D01*
X98279Y161164D01*
X98352Y161081D01*
X98428Y160990D01*
X98432Y160986D01*
X98443Y160972D01*
X98461Y160950D01*
X98483Y160924D01*
X98512Y160891D01*
X98545Y160851D01*
X98581Y160811D01*
X98621Y160764D01*
X98708Y160673D01*
X98796Y160582D01*
X98839Y160538D01*
X98883Y160498D01*
X98923Y160462D01*
X98963Y160433D01*
X98967D01*
X98971Y160425D01*
X98981Y160418D01*
X98996Y160411D01*
X99036Y160386D01*
X99083Y160356D01*
X99142Y160331D01*
X99203Y160305D01*
X99273Y160291D01*
X99338Y160284D01*
X99342D01*
X99345D01*
X99367Y160287D01*
X99404Y160291D01*
X99444Y160302D01*
X99495Y160316D01*
X99546Y160342D01*
X99597Y160375D01*
X99648Y160418D01*
X99655Y160425D01*
X99669Y160444D01*
X99688Y160469D01*
X99713Y160509D01*
X99735Y160560D01*
X99757Y160618D01*
X99771Y160688D01*
X99775Y160764D01*
Y160786D01*
X99771Y160801D01*
X99768Y160844D01*
X99757Y160895D01*
X99742Y160950D01*
X99717Y161012D01*
X99684Y161070D01*
X99640Y161124D01*
X99633Y161132D01*
X99615Y161146D01*
X99586Y161168D01*
X99542Y161190D01*
X99491Y161215D01*
X99426Y161237D01*
X99353Y161252D01*
X99269Y161259D01*
X99302Y161576D01*
X99305D01*
X99316Y161572D01*
X99335D01*
X99360Y161568D01*
X99389Y161561D01*
X99422Y161554D01*
X99462Y161543D01*
X99502Y161532D01*
X99589Y161503D01*
X99677Y161459D01*
X99720Y161434D01*
X99764Y161401D01*
X99804Y161368D01*
X99840Y161332D01*
X99844Y161328D01*
X99848Y161321D01*
X99859Y161310D01*
X99870Y161292D01*
X99884Y161270D01*
X99899Y161245D01*
X99917Y161215D01*
X99935Y161179D01*
X99953Y161139D01*
X99971Y161095D01*
X99986Y161048D01*
X100001Y160997D01*
X100012Y160942D01*
X100022Y160884D01*
X100026Y160822D01*
X100030Y160757D01*
Y160720D01*
X100026Y160695D01*
X100022Y160666D01*
X100019Y160629D01*
X100012Y160589D01*
X100004Y160549D01*
X99979Y160455D01*
X99942Y160360D01*
X99921Y160313D01*
X99895Y160265D01*
X99862Y160222D01*
X99826Y160182D01*
X99822Y160178D01*
X99819Y160171D01*
X99804Y160163D01*
X99790Y160149D01*
X99771Y160131D01*
X99746Y160113D01*
X99720Y160094D01*
X99688Y160073D01*
X99618Y160036D01*
X99531Y160000D01*
X99487Y159985D01*
X99436Y159978D01*
X99385Y159971D01*
X99331Y159967D01*
X99324D01*
X99305D01*
X99276Y159971D01*
X99236Y159974D01*
X99193Y159982D01*
X99142Y159996D01*
X99087Y160011D01*
X99032Y160032D01*
X99025Y160036D01*
X99007Y160043D01*
X98978Y160058D01*
X98938Y160080D01*
X98894Y160109D01*
X98839Y160145D01*
X98785Y160189D01*
X98723Y160240D01*
X98716Y160247D01*
X98694Y160265D01*
X98676Y160284D01*
X98658Y160302D01*
X98636Y160324D01*
X98606Y160353D01*
X98577Y160382D01*
X98545Y160418D01*
X98508Y160455D01*
X98468Y160498D01*
X98428Y160546D01*
X98381Y160597D01*
X98334Y160655D01*
X98283Y160713D01*
X98279Y160717D01*
X98272Y160724D01*
X98261Y160739D01*
X98246Y160757D01*
X98224Y160779D01*
X98203Y160804D01*
X98155Y160862D01*
X98101Y160924D01*
X98046Y160983D01*
X97999Y161033D01*
X97980Y161055D01*
X97962Y161074D01*
X97959Y161077D01*
X97948Y161088D01*
X97933Y161103D01*
X97911Y161121D01*
X97886Y161139D01*
X97860Y161161D01*
X97798Y161205D01*
Y159963D01*
X97500D01*
Y161634D01*
X97504D01*
X97518D01*
X97540D01*
X97569Y161630D01*
D02*
G37*
G36*
X87500Y166765D02*
X85531D01*
X85534Y166761D01*
X85549Y166743D01*
X85571Y166721D01*
X85596Y166685D01*
X85629Y166645D01*
X85666Y166594D01*
X85706Y166536D01*
X85746Y166470D01*
Y166467D01*
X85749Y166463D01*
X85764Y166441D01*
X85782Y166405D01*
X85804Y166361D01*
X85829Y166310D01*
X85855Y166255D01*
X85880Y166201D01*
X85902Y166146D01*
X85604D01*
Y166150D01*
X85596Y166157D01*
X85593Y166172D01*
X85582Y166190D01*
X85571Y166212D01*
X85556Y166237D01*
X85520Y166299D01*
X85480Y166372D01*
X85429Y166445D01*
X85371Y166521D01*
X85309Y166598D01*
X85305Y166601D01*
X85302Y166605D01*
X85290Y166616D01*
X85280Y166630D01*
X85243Y166663D01*
X85199Y166707D01*
X85149Y166751D01*
X85090Y166798D01*
X85032Y166838D01*
X84970Y166874D01*
Y167074D01*
X87500D01*
Y166765D01*
D02*
G37*
G36*
Y165298D02*
X86976Y164967D01*
X86972D01*
X86965Y164960D01*
X86954Y164952D01*
X86940Y164941D01*
X86899Y164916D01*
X86848Y164883D01*
X86794Y164843D01*
X86736Y164803D01*
X86681Y164763D01*
X86630Y164727D01*
X86626Y164723D01*
X86612Y164712D01*
X86590Y164694D01*
X86564Y164668D01*
X86510Y164614D01*
X86484Y164585D01*
X86463Y164556D01*
X86459Y164552D01*
X86455Y164545D01*
X86448Y164530D01*
X86437Y164508D01*
X86426Y164486D01*
X86415Y164461D01*
X86397Y164403D01*
Y164399D01*
X86393Y164392D01*
Y164377D01*
X86390Y164359D01*
X86386Y164333D01*
Y164304D01*
X86383Y164264D01*
Y163835D01*
X87500D01*
Y163500D01*
X84981D01*
Y164668D01*
X84985Y164698D01*
Y164730D01*
X84988Y164807D01*
X84999Y164887D01*
X85010Y164974D01*
X85028Y165054D01*
X85039Y165094D01*
X85050Y165127D01*
Y165131D01*
X85054Y165134D01*
X85065Y165156D01*
X85079Y165189D01*
X85105Y165229D01*
X85138Y165273D01*
X85181Y165320D01*
X85232Y165364D01*
X85290Y165407D01*
X85294D01*
X85298Y165411D01*
X85320Y165426D01*
X85356Y165440D01*
X85403Y165462D01*
X85458Y165480D01*
X85523Y165498D01*
X85593Y165509D01*
X85669Y165513D01*
X85673D01*
X85680D01*
X85695D01*
X85713Y165509D01*
X85738D01*
X85764Y165506D01*
X85826Y165491D01*
X85898Y165469D01*
X85975Y165440D01*
X86051Y165396D01*
X86088Y165367D01*
X86124Y165338D01*
X86128Y165334D01*
X86131Y165331D01*
X86142Y165320D01*
X86153Y165305D01*
X86168Y165287D01*
X86182Y165265D01*
X86200Y165236D01*
X86222Y165207D01*
X86241Y165171D01*
X86259Y165131D01*
X86281Y165087D01*
X86299Y165040D01*
X86313Y164985D01*
X86332Y164930D01*
X86343Y164869D01*
X86353Y164803D01*
X86357Y164810D01*
X86364Y164825D01*
X86379Y164847D01*
X86393Y164876D01*
X86434Y164941D01*
X86459Y164974D01*
X86481Y165003D01*
X86488Y165010D01*
X86506Y165029D01*
X86535Y165058D01*
X86572Y165094D01*
X86623Y165134D01*
X86677Y165182D01*
X86743Y165229D01*
X86816Y165280D01*
X87500Y165713D01*
Y165298D01*
D02*
G37*
G36*
X185519Y243032D02*
X185515Y242966D01*
X185512Y242894D01*
X185504Y242821D01*
X185493Y242748D01*
X185482Y242686D01*
Y242682D01*
X185479Y242675D01*
Y242664D01*
X185471Y242650D01*
X185461Y242610D01*
X185442Y242559D01*
X185417Y242500D01*
X185384Y242439D01*
X185348Y242377D01*
X185300Y242318D01*
X185297Y242315D01*
X185293Y242311D01*
X185282Y242300D01*
X185271Y242286D01*
X185235Y242249D01*
X185184Y242206D01*
X185122Y242158D01*
X185049Y242107D01*
X184966Y242060D01*
X184871Y242020D01*
X184867D01*
X184860Y242016D01*
X184845Y242009D01*
X184824Y242005D01*
X184798Y241994D01*
X184769Y241987D01*
X184736Y241980D01*
X184696Y241969D01*
X184656Y241958D01*
X184609Y241951D01*
X184507Y241933D01*
X184394Y241922D01*
X184270Y241918D01*
X184267D01*
X184259D01*
X184241D01*
X184223D01*
X184197Y241922D01*
X184168D01*
X184099Y241925D01*
X184019Y241936D01*
X183935Y241947D01*
X183848Y241965D01*
X183761Y241987D01*
X183757D01*
X183750Y241991D01*
X183739Y241994D01*
X183724Y241998D01*
X183684Y242013D01*
X183633Y242034D01*
X183575Y242056D01*
X183517Y242085D01*
X183455Y242122D01*
X183397Y242158D01*
X183389Y242162D01*
X183371Y242176D01*
X183346Y242198D01*
X183313Y242227D01*
X183277Y242260D01*
X183240Y242300D01*
X183200Y242340D01*
X183167Y242388D01*
X183164Y242395D01*
X183153Y242409D01*
X183138Y242435D01*
X183120Y242471D01*
X183098Y242515D01*
X183080Y242566D01*
X183058Y242624D01*
X183040Y242690D01*
Y242697D01*
X183036Y242708D01*
X183033Y242719D01*
X183029Y242755D01*
X183022Y242806D01*
X183015Y242864D01*
X183007Y242934D01*
X183004Y243010D01*
X183000Y243094D01*
Y244000D01*
X185519D01*
Y243032D01*
D02*
G37*
G36*
X183069Y241627D02*
X183102Y241623D01*
X183138Y241616D01*
X183175Y241609D01*
X183215Y241594D01*
X183218D01*
X183222Y241590D01*
X183244Y241583D01*
X183277Y241568D01*
X183320Y241547D01*
X183371Y241517D01*
X183430Y241481D01*
X183488Y241441D01*
X183550Y241390D01*
X183553D01*
X183557Y241383D01*
X183579Y241365D01*
X183612Y241332D01*
X183659Y241285D01*
X183713Y241230D01*
X183779Y241161D01*
X183852Y241077D01*
X183928Y240986D01*
X183932Y240983D01*
X183943Y240968D01*
X183961Y240946D01*
X183983Y240921D01*
X184012Y240888D01*
X184045Y240848D01*
X184081Y240808D01*
X184121Y240760D01*
X184208Y240669D01*
X184296Y240578D01*
X184339Y240535D01*
X184383Y240495D01*
X184423Y240458D01*
X184463Y240429D01*
X184467D01*
X184470Y240422D01*
X184481Y240415D01*
X184496Y240407D01*
X184536Y240382D01*
X184583Y240353D01*
X184642Y240327D01*
X184704Y240302D01*
X184773Y240287D01*
X184838Y240280D01*
X184842D01*
X184845D01*
X184867Y240284D01*
X184904Y240287D01*
X184944Y240298D01*
X184995Y240313D01*
X185046Y240338D01*
X185097Y240371D01*
X185148Y240415D01*
X185155Y240422D01*
X185169Y240440D01*
X185188Y240466D01*
X185213Y240506D01*
X185235Y240557D01*
X185257Y240615D01*
X185271Y240684D01*
X185275Y240760D01*
Y240782D01*
X185271Y240797D01*
X185268Y240841D01*
X185257Y240892D01*
X185242Y240946D01*
X185217Y241008D01*
X185184Y241066D01*
X185140Y241121D01*
X185133Y241128D01*
X185115Y241143D01*
X185086Y241164D01*
X185042Y241186D01*
X184991Y241212D01*
X184925Y241234D01*
X184853Y241248D01*
X184769Y241255D01*
X184802Y241572D01*
X184805D01*
X184816Y241568D01*
X184835D01*
X184860Y241565D01*
X184889Y241558D01*
X184922Y241550D01*
X184962Y241539D01*
X185002Y241529D01*
X185089Y241499D01*
X185177Y241456D01*
X185220Y241430D01*
X185264Y241397D01*
X185304Y241365D01*
X185340Y241328D01*
X185344Y241325D01*
X185348Y241317D01*
X185359Y241306D01*
X185370Y241288D01*
X185384Y241266D01*
X185399Y241241D01*
X185417Y241212D01*
X185435Y241175D01*
X185453Y241135D01*
X185471Y241092D01*
X185486Y241044D01*
X185501Y240993D01*
X185512Y240939D01*
X185522Y240880D01*
X185526Y240819D01*
X185530Y240753D01*
Y240717D01*
X185526Y240691D01*
X185522Y240662D01*
X185519Y240626D01*
X185512Y240586D01*
X185504Y240546D01*
X185479Y240451D01*
X185442Y240356D01*
X185421Y240309D01*
X185395Y240262D01*
X185362Y240218D01*
X185326Y240178D01*
X185322Y240174D01*
X185319Y240167D01*
X185304Y240160D01*
X185290Y240145D01*
X185271Y240127D01*
X185246Y240109D01*
X185220Y240091D01*
X185188Y240069D01*
X185118Y240032D01*
X185031Y239996D01*
X184987Y239982D01*
X184936Y239974D01*
X184886Y239967D01*
X184831Y239963D01*
X184824D01*
X184805D01*
X184776Y239967D01*
X184736Y239971D01*
X184693Y239978D01*
X184642Y239992D01*
X184587Y240007D01*
X184532Y240029D01*
X184525Y240032D01*
X184507Y240040D01*
X184478Y240054D01*
X184438Y240076D01*
X184394Y240105D01*
X184339Y240142D01*
X184285Y240185D01*
X184223Y240236D01*
X184216Y240244D01*
X184194Y240262D01*
X184176Y240280D01*
X184158Y240298D01*
X184136Y240320D01*
X184107Y240349D01*
X184077Y240378D01*
X184045Y240415D01*
X184008Y240451D01*
X183968Y240495D01*
X183928Y240542D01*
X183881Y240593D01*
X183834Y240651D01*
X183782Y240709D01*
X183779Y240713D01*
X183772Y240720D01*
X183761Y240735D01*
X183746Y240753D01*
X183724Y240775D01*
X183703Y240800D01*
X183655Y240859D01*
X183600Y240921D01*
X183546Y240979D01*
X183499Y241030D01*
X183480Y241052D01*
X183462Y241070D01*
X183459Y241073D01*
X183448Y241084D01*
X183433Y241099D01*
X183411Y241117D01*
X183386Y241135D01*
X183360Y241157D01*
X183298Y241201D01*
Y239960D01*
X183000D01*
Y241630D01*
X183004D01*
X183018D01*
X183040D01*
X183069Y241627D01*
D02*
G37*
G36*
X311146Y236175D02*
X311182D01*
X311218Y236171D01*
X311266Y236167D01*
X311313Y236160D01*
X311419Y236142D01*
X311535Y236116D01*
X311652Y236080D01*
X311764Y236029D01*
X311768Y236025D01*
X311779Y236022D01*
X311794Y236014D01*
X311812Y236000D01*
X311837Y235985D01*
X311866Y235967D01*
X311932Y235920D01*
X312005Y235858D01*
X312077Y235785D01*
X312150Y235701D01*
X312212Y235603D01*
X312216Y235599D01*
X312219Y235589D01*
X312227Y235574D01*
X312238Y235556D01*
X312248Y235527D01*
X312260Y235497D01*
X312274Y235461D01*
X312289Y235421D01*
X312303Y235377D01*
X312318Y235330D01*
X312340Y235228D01*
X312358Y235112D01*
X312365Y234992D01*
Y234955D01*
X312361Y234930D01*
X312358Y234897D01*
X312354Y234857D01*
X312351Y234817D01*
X312340Y234770D01*
X312318Y234671D01*
X312285Y234562D01*
X312263Y234507D01*
X312238Y234456D01*
X312205Y234405D01*
X312172Y234355D01*
X312169Y234351D01*
X312165Y234344D01*
X312154Y234329D01*
X312136Y234311D01*
X312118Y234293D01*
X312092Y234267D01*
X312063Y234242D01*
X312034Y234213D01*
X311997Y234184D01*
X311954Y234154D01*
X311910Y234122D01*
X311863Y234092D01*
X311808Y234067D01*
X311754Y234038D01*
X311695Y234016D01*
X311630Y233994D01*
X311553Y234322D01*
X311557D01*
X311564Y234325D01*
X311579Y234333D01*
X311597Y234340D01*
X311619Y234347D01*
X311648Y234358D01*
X311706Y234387D01*
X311772Y234424D01*
X311837Y234467D01*
X311899Y234522D01*
X311954Y234580D01*
X311961Y234588D01*
X311976Y234609D01*
X311994Y234646D01*
X312019Y234693D01*
X312041Y234755D01*
X312063Y234824D01*
X312077Y234908D01*
X312081Y234999D01*
Y235028D01*
X312077Y235046D01*
Y235072D01*
X312074Y235101D01*
X312063Y235170D01*
X312048Y235246D01*
X312023Y235326D01*
X311986Y235410D01*
X311939Y235487D01*
Y235490D01*
X311932Y235494D01*
X311914Y235519D01*
X311884Y235552D01*
X311841Y235592D01*
X311786Y235640D01*
X311724Y235683D01*
X311648Y235723D01*
X311564Y235760D01*
X311561D01*
X311553Y235763D01*
X311542Y235767D01*
X311524Y235771D01*
X311502Y235778D01*
X311477Y235785D01*
X311415Y235796D01*
X311342Y235811D01*
X311262Y235825D01*
X311175Y235832D01*
X311080Y235836D01*
X311076D01*
X311066D01*
X311047D01*
X311026D01*
X311000Y235832D01*
X310967D01*
X310931Y235829D01*
X310891Y235825D01*
X310804Y235814D01*
X310709Y235796D01*
X310614Y235774D01*
X310520Y235745D01*
X310516D01*
X310509Y235741D01*
X310498Y235734D01*
X310479Y235727D01*
X310436Y235705D01*
X310385Y235672D01*
X310327Y235632D01*
X310265Y235581D01*
X310210Y235523D01*
X310159Y235454D01*
Y235450D01*
X310156Y235443D01*
X310148Y235432D01*
X310141Y235417D01*
X310134Y235399D01*
X310123Y235377D01*
X310101Y235326D01*
X310079Y235261D01*
X310061Y235188D01*
X310046Y235108D01*
X310043Y235024D01*
Y234999D01*
X310046Y234977D01*
Y234951D01*
X310050Y234926D01*
X310065Y234860D01*
X310083Y234784D01*
X310112Y234708D01*
X310152Y234628D01*
X310174Y234588D01*
X310203Y234551D01*
X310207Y234547D01*
X310210Y234544D01*
X310221Y234533D01*
X310232Y234518D01*
X310250Y234504D01*
X310272Y234486D01*
X310294Y234464D01*
X310323Y234446D01*
X310356Y234424D01*
X310392Y234398D01*
X310429Y234376D01*
X310472Y234355D01*
X310520Y234336D01*
X310571Y234318D01*
X310625Y234300D01*
X310683Y234285D01*
X310600Y233950D01*
X310596D01*
X310581Y233954D01*
X310560Y233961D01*
X310530Y233972D01*
X310498Y233983D01*
X310458Y233998D01*
X310414Y234016D01*
X310367Y234038D01*
X310265Y234089D01*
X310163Y234154D01*
X310112Y234194D01*
X310061Y234234D01*
X310017Y234278D01*
X309974Y234329D01*
X309970Y234333D01*
X309963Y234340D01*
X309955Y234358D01*
X309941Y234376D01*
X309923Y234405D01*
X309904Y234435D01*
X309886Y234475D01*
X309868Y234515D01*
X309846Y234562D01*
X309828Y234613D01*
X309810Y234668D01*
X309792Y234726D01*
X309777Y234788D01*
X309770Y234853D01*
X309762Y234922D01*
X309759Y234995D01*
Y235035D01*
X309762Y235064D01*
Y235097D01*
X309766Y235137D01*
X309773Y235181D01*
X309781Y235232D01*
X309799Y235337D01*
X309828Y235447D01*
X309868Y235556D01*
X309893Y235607D01*
X309923Y235658D01*
X309926Y235661D01*
X309930Y235669D01*
X309941Y235683D01*
X309955Y235698D01*
X309970Y235720D01*
X309992Y235745D01*
X310017Y235774D01*
X310046Y235803D01*
X310079Y235832D01*
X310112Y235865D01*
X310196Y235931D01*
X310294Y235993D01*
X310403Y236047D01*
X310407D01*
X310418Y236054D01*
X310436Y236058D01*
X310458Y236069D01*
X310487Y236076D01*
X310523Y236087D01*
X310563Y236102D01*
X310607Y236113D01*
X310654Y236124D01*
X310709Y236138D01*
X310822Y236156D01*
X310949Y236171D01*
X311080Y236178D01*
X311084D01*
X311098D01*
X311120D01*
X311146Y236175D01*
D02*
G37*
G36*
X311699Y233426D02*
X311706Y233419D01*
X311710Y233404D01*
X311721Y233386D01*
X311732Y233365D01*
X311746Y233339D01*
X311783Y233277D01*
X311823Y233204D01*
X311874Y233132D01*
X311932Y233055D01*
X311994Y232979D01*
X311997Y232975D01*
X312001Y232971D01*
X312012Y232960D01*
X312023Y232946D01*
X312059Y232913D01*
X312103Y232869D01*
X312154Y232826D01*
X312212Y232778D01*
X312270Y232738D01*
X312332Y232702D01*
Y232502D01*
X309803D01*
Y232811D01*
X311772D01*
X311768Y232815D01*
X311754Y232833D01*
X311732Y232855D01*
X311706Y232891D01*
X311673Y232931D01*
X311637Y232982D01*
X311597Y233040D01*
X311557Y233106D01*
Y233110D01*
X311553Y233113D01*
X311539Y233135D01*
X311521Y233172D01*
X311499Y233215D01*
X311473Y233266D01*
X311448Y233321D01*
X311422Y233375D01*
X311400Y233430D01*
X311699D01*
Y233426D01*
D02*
G37*
G36*
X311157Y231705D02*
X311200D01*
X311248Y231701D01*
X311302Y231697D01*
X311415Y231686D01*
X311535Y231668D01*
X311655Y231646D01*
X311710Y231632D01*
X311764Y231617D01*
X311768D01*
X311775Y231614D01*
X311790Y231606D01*
X311808Y231599D01*
X311834Y231592D01*
X311859Y231577D01*
X311921Y231548D01*
X311986Y231512D01*
X312056Y231464D01*
X312125Y231410D01*
X312183Y231344D01*
Y231341D01*
X312190Y231337D01*
X312198Y231326D01*
X312205Y231311D01*
X312219Y231293D01*
X312230Y231272D01*
X312260Y231217D01*
X312285Y231151D01*
X312310Y231075D01*
X312325Y230984D01*
X312332Y230886D01*
Y230853D01*
X312329Y230813D01*
X312321Y230766D01*
X312310Y230711D01*
X312296Y230653D01*
X312278Y230591D01*
X312248Y230533D01*
Y230529D01*
X312245Y230525D01*
X312234Y230507D01*
X312216Y230478D01*
X312190Y230442D01*
X312154Y230401D01*
X312114Y230358D01*
X312067Y230318D01*
X312012Y230278D01*
X312005Y230274D01*
X311986Y230260D01*
X311954Y230245D01*
X311906Y230220D01*
X311852Y230198D01*
X311790Y230169D01*
X311717Y230143D01*
X311637Y230121D01*
X311633D01*
X311626Y230118D01*
X311615Y230114D01*
X311597Y230110D01*
X311575Y230107D01*
X311550Y230103D01*
X311517Y230096D01*
X311480Y230092D01*
X311440Y230085D01*
X311397Y230081D01*
X311346Y230078D01*
X311295Y230070D01*
X311237Y230067D01*
X311178D01*
X311113Y230063D01*
X311044D01*
X311040D01*
X311026D01*
X311000D01*
X310971D01*
X310931Y230067D01*
X310887D01*
X310840Y230070D01*
X310789Y230074D01*
X310672Y230085D01*
X310552Y230103D01*
X310436Y230125D01*
X310381Y230139D01*
X310327Y230158D01*
X310323D01*
X310316Y230161D01*
X310301Y230169D01*
X310283Y230176D01*
X310258Y230183D01*
X310232Y230198D01*
X310170Y230227D01*
X310105Y230263D01*
X310032Y230311D01*
X309966Y230365D01*
X309904Y230431D01*
Y230434D01*
X309897Y230438D01*
X309890Y230449D01*
X309882Y230463D01*
X309872Y230482D01*
X309857Y230500D01*
X309832Y230554D01*
X309806Y230620D01*
X309781Y230696D01*
X309766Y230787D01*
X309759Y230886D01*
Y230922D01*
X309762Y230947D01*
X309766Y230977D01*
X309773Y231013D01*
X309781Y231053D01*
X309792Y231097D01*
X309806Y231140D01*
X309821Y231188D01*
X309842Y231235D01*
X309868Y231282D01*
X309897Y231330D01*
X309933Y231377D01*
X309974Y231421D01*
X310017Y231461D01*
X310021Y231464D01*
X310032Y231472D01*
X310050Y231483D01*
X310079Y231501D01*
X310112Y231519D01*
X310156Y231537D01*
X310207Y231563D01*
X310265Y231585D01*
X310330Y231606D01*
X310407Y231628D01*
X310490Y231650D01*
X310585Y231668D01*
X310687Y231686D01*
X310796Y231697D01*
X310916Y231705D01*
X311044Y231708D01*
X311047D01*
X311062D01*
X311087D01*
X311117D01*
X311157Y231705D01*
D02*
G37*
G36*
X307486Y208996D02*
X307523D01*
X307559Y208993D01*
X307606Y208989D01*
X307654Y208982D01*
X307759Y208964D01*
X307876Y208938D01*
X307992Y208902D01*
X308105Y208851D01*
X308109Y208847D01*
X308120Y208843D01*
X308134Y208836D01*
X308152Y208822D01*
X308178Y208807D01*
X308207Y208789D01*
X308272Y208742D01*
X308345Y208680D01*
X308418Y208607D01*
X308491Y208523D01*
X308553Y208425D01*
X308556Y208421D01*
X308560Y208410D01*
X308567Y208396D01*
X308578Y208378D01*
X308589Y208348D01*
X308600Y208319D01*
X308615Y208283D01*
X308629Y208243D01*
X308644Y208199D01*
X308658Y208152D01*
X308680Y208050D01*
X308698Y207933D01*
X308706Y207813D01*
Y207777D01*
X308702Y207751D01*
X308698Y207719D01*
X308695Y207679D01*
X308691Y207639D01*
X308680Y207591D01*
X308658Y207493D01*
X308626Y207384D01*
X308604Y207329D01*
X308578Y207278D01*
X308545Y207227D01*
X308513Y207176D01*
X308509Y207173D01*
X308505Y207166D01*
X308494Y207151D01*
X308476Y207133D01*
X308458Y207115D01*
X308433Y207089D01*
X308403Y207064D01*
X308374Y207034D01*
X308338Y207005D01*
X308294Y206976D01*
X308251Y206943D01*
X308203Y206914D01*
X308149Y206889D01*
X308094Y206860D01*
X308036Y206838D01*
X307970Y206816D01*
X307894Y207144D01*
X307897D01*
X307905Y207147D01*
X307919Y207155D01*
X307938Y207162D01*
X307959Y207169D01*
X307989Y207180D01*
X308047Y207209D01*
X308112Y207246D01*
X308178Y207289D01*
X308240Y207344D01*
X308294Y207402D01*
X308302Y207409D01*
X308316Y207431D01*
X308334Y207468D01*
X308360Y207515D01*
X308382Y207577D01*
X308403Y207646D01*
X308418Y207730D01*
X308422Y207821D01*
Y207850D01*
X308418Y207868D01*
Y207893D01*
X308414Y207923D01*
X308403Y207992D01*
X308389Y208068D01*
X308364Y208148D01*
X308327Y208232D01*
X308280Y208308D01*
Y208312D01*
X308272Y208316D01*
X308254Y208341D01*
X308225Y208374D01*
X308181Y208414D01*
X308127Y208461D01*
X308065Y208505D01*
X307989Y208545D01*
X307905Y208581D01*
X307901D01*
X307894Y208585D01*
X307883Y208589D01*
X307865Y208592D01*
X307843Y208600D01*
X307818Y208607D01*
X307756Y208618D01*
X307683Y208632D01*
X307603Y208647D01*
X307515Y208654D01*
X307421Y208658D01*
X307417D01*
X307406D01*
X307388D01*
X307366D01*
X307341Y208654D01*
X307308D01*
X307272Y208651D01*
X307231Y208647D01*
X307144Y208636D01*
X307049Y208618D01*
X306955Y208596D01*
X306860Y208567D01*
X306856D01*
X306849Y208563D01*
X306838Y208556D01*
X306820Y208549D01*
X306776Y208527D01*
X306726Y208494D01*
X306667Y208454D01*
X306605Y208403D01*
X306551Y208345D01*
X306500Y208276D01*
Y208272D01*
X306496Y208265D01*
X306489Y208254D01*
X306482Y208239D01*
X306474Y208221D01*
X306463Y208199D01*
X306441Y208148D01*
X306420Y208083D01*
X306401Y208010D01*
X306387Y207930D01*
X306383Y207846D01*
Y207821D01*
X306387Y207799D01*
Y207773D01*
X306391Y207748D01*
X306405Y207682D01*
X306423Y207606D01*
X306452Y207529D01*
X306492Y207449D01*
X306514Y207409D01*
X306543Y207373D01*
X306547Y207369D01*
X306551Y207366D01*
X306562Y207355D01*
X306573Y207340D01*
X306591Y207326D01*
X306613Y207307D01*
X306634Y207286D01*
X306664Y207267D01*
X306696Y207246D01*
X306733Y207220D01*
X306769Y207198D01*
X306813Y207176D01*
X306860Y207158D01*
X306911Y207140D01*
X306966Y207122D01*
X307024Y207107D01*
X306940Y206772D01*
X306937D01*
X306922Y206776D01*
X306900Y206783D01*
X306871Y206794D01*
X306838Y206805D01*
X306798Y206820D01*
X306755Y206838D01*
X306707Y206860D01*
X306605Y206911D01*
X306503Y206976D01*
X306452Y207016D01*
X306401Y207056D01*
X306358Y207100D01*
X306314Y207151D01*
X306311Y207155D01*
X306303Y207162D01*
X306296Y207180D01*
X306281Y207198D01*
X306263Y207227D01*
X306245Y207257D01*
X306227Y207296D01*
X306209Y207337D01*
X306187Y207384D01*
X306169Y207435D01*
X306150Y207489D01*
X306132Y207548D01*
X306118Y207610D01*
X306110Y207675D01*
X306103Y207744D01*
X306099Y207817D01*
Y207857D01*
X306103Y207886D01*
Y207919D01*
X306107Y207959D01*
X306114Y208003D01*
X306121Y208054D01*
X306139Y208159D01*
X306169Y208268D01*
X306209Y208378D01*
X306234Y208429D01*
X306263Y208479D01*
X306267Y208483D01*
X306270Y208490D01*
X306281Y208505D01*
X306296Y208520D01*
X306311Y208541D01*
X306332Y208567D01*
X306358Y208596D01*
X306387Y208625D01*
X306420Y208654D01*
X306452Y208687D01*
X306536Y208752D01*
X306634Y208814D01*
X306744Y208869D01*
X306747D01*
X306758Y208876D01*
X306776Y208880D01*
X306798Y208891D01*
X306827Y208898D01*
X306864Y208909D01*
X306904Y208924D01*
X306947Y208934D01*
X306995Y208945D01*
X307049Y208960D01*
X307162Y208978D01*
X307290Y208993D01*
X307421Y209000D01*
X307424D01*
X307439D01*
X307461D01*
X307486Y208996D01*
D02*
G37*
G36*
X306908Y206488D02*
X306929D01*
X306955Y206485D01*
X307013Y206477D01*
X307079Y206463D01*
X307144Y206441D01*
X307213Y206408D01*
X307279Y206368D01*
X307282D01*
X307286Y206361D01*
X307304Y206347D01*
X307333Y206317D01*
X307370Y206277D01*
X307406Y206226D01*
X307446Y206165D01*
X307479Y206095D01*
X307504Y206012D01*
Y206015D01*
X307508Y206019D01*
X307512Y206030D01*
X307519Y206044D01*
X307534Y206077D01*
X307555Y206121D01*
X307585Y206168D01*
X307621Y206215D01*
X307661Y206259D01*
X307705Y206299D01*
X307712Y206303D01*
X307727Y206314D01*
X307756Y206328D01*
X307792Y206343D01*
X307839Y206361D01*
X307894Y206376D01*
X307956Y206386D01*
X308021Y206390D01*
X308025D01*
X308032D01*
X308047D01*
X308069Y206386D01*
X308090Y206383D01*
X308120Y206379D01*
X308181Y206365D01*
X308254Y206343D01*
X308331Y206306D01*
X308371Y206285D01*
X308411Y206259D01*
X308447Y206226D01*
X308484Y206194D01*
X308487Y206190D01*
X308491Y206183D01*
X308502Y206172D01*
X308513Y206157D01*
X308527Y206139D01*
X308542Y206114D01*
X308560Y206084D01*
X308578Y206055D01*
X308596Y206019D01*
X308615Y205979D01*
X308629Y205935D01*
X308644Y205888D01*
X308666Y205786D01*
X308669Y205728D01*
X308673Y205669D01*
Y205637D01*
X308669Y205615D01*
X308666Y205586D01*
X308662Y205553D01*
X308658Y205517D01*
X308647Y205480D01*
X308626Y205393D01*
X308593Y205305D01*
X308571Y205262D01*
X308545Y205218D01*
X308513Y205178D01*
X308480Y205138D01*
X308476Y205134D01*
X308473Y205131D01*
X308462Y205120D01*
X308447Y205105D01*
X308425Y205091D01*
X308403Y205072D01*
X308349Y205036D01*
X308280Y205000D01*
X308200Y204967D01*
X308109Y204941D01*
X308061Y204938D01*
X308010Y204934D01*
X308007D01*
X308003D01*
X307981D01*
X307948Y204938D01*
X307908Y204945D01*
X307857Y204956D01*
X307806Y204974D01*
X307756Y204996D01*
X307705Y205029D01*
X307697Y205032D01*
X307683Y205047D01*
X307661Y205069D01*
X307632Y205098D01*
X307599Y205138D01*
X307566Y205185D01*
X307534Y205240D01*
X307504Y205305D01*
Y205302D01*
X307501Y205294D01*
X307497Y205284D01*
X307490Y205269D01*
X307472Y205225D01*
X307446Y205174D01*
X307410Y205120D01*
X307370Y205062D01*
X307319Y205007D01*
X307260Y204956D01*
X307257D01*
X307253Y204952D01*
X307231Y204938D01*
X307195Y204916D01*
X307148Y204894D01*
X307089Y204872D01*
X307020Y204850D01*
X306944Y204836D01*
X306860Y204832D01*
X306856D01*
X306846D01*
X306827D01*
X306805Y204836D01*
X306780Y204839D01*
X306747Y204843D01*
X306711Y204850D01*
X306671Y204861D01*
X306587Y204887D01*
X306540Y204905D01*
X306496Y204930D01*
X306449Y204956D01*
X306405Y204985D01*
X306362Y205022D01*
X306318Y205062D01*
X306314Y205065D01*
X306307Y205072D01*
X306296Y205083D01*
X306285Y205102D01*
X306267Y205127D01*
X306249Y205153D01*
X306230Y205185D01*
X306209Y205222D01*
X306187Y205262D01*
X306169Y205309D01*
X306150Y205360D01*
X306132Y205411D01*
X306121Y205469D01*
X306110Y205531D01*
X306103Y205593D01*
X306099Y205662D01*
Y205699D01*
X306103Y205724D01*
X306107Y205757D01*
X306110Y205793D01*
X306118Y205833D01*
X306129Y205877D01*
X306154Y205975D01*
X306172Y206026D01*
X306190Y206073D01*
X306216Y206124D01*
X306245Y206175D01*
X306278Y206223D01*
X306318Y206266D01*
X306321Y206270D01*
X306329Y206277D01*
X306340Y206288D01*
X306358Y206303D01*
X306380Y206317D01*
X306405Y206339D01*
X306434Y206357D01*
X306471Y206379D01*
X306507Y206401D01*
X306551Y206419D01*
X306642Y206456D01*
X306696Y206470D01*
X306751Y206481D01*
X306809Y206488D01*
X306867Y206492D01*
X306871D01*
X306878D01*
X306893D01*
X306908Y206488D01*
D02*
G37*
G36*
X280287Y208996D02*
X280324D01*
X280360Y208993D01*
X280408Y208989D01*
X280455Y208982D01*
X280560Y208964D01*
X280677Y208938D01*
X280793Y208902D01*
X280906Y208851D01*
X280910Y208847D01*
X280921Y208843D01*
X280935Y208836D01*
X280954Y208822D01*
X280979Y208807D01*
X281008Y208789D01*
X281074Y208742D01*
X281146Y208680D01*
X281219Y208607D01*
X281292Y208523D01*
X281354Y208425D01*
X281358Y208421D01*
X281361Y208410D01*
X281368Y208396D01*
X281379Y208378D01*
X281390Y208348D01*
X281401Y208319D01*
X281416Y208283D01*
X281430Y208243D01*
X281445Y208199D01*
X281459Y208152D01*
X281481Y208050D01*
X281500Y207933D01*
X281507Y207813D01*
Y207777D01*
X281503Y207751D01*
X281500Y207719D01*
X281496Y207679D01*
X281492Y207639D01*
X281481Y207591D01*
X281459Y207493D01*
X281427Y207384D01*
X281405Y207329D01*
X281379Y207278D01*
X281347Y207227D01*
X281314Y207176D01*
X281310Y207173D01*
X281307Y207166D01*
X281296Y207151D01*
X281277Y207133D01*
X281259Y207115D01*
X281234Y207089D01*
X281205Y207064D01*
X281175Y207034D01*
X281139Y207005D01*
X281095Y206976D01*
X281052Y206943D01*
X281004Y206914D01*
X280950Y206889D01*
X280895Y206860D01*
X280837Y206838D01*
X280771Y206816D01*
X280695Y207144D01*
X280699D01*
X280706Y207147D01*
X280720Y207155D01*
X280739Y207162D01*
X280761Y207169D01*
X280790Y207180D01*
X280848Y207209D01*
X280913Y207246D01*
X280979Y207289D01*
X281041Y207344D01*
X281095Y207402D01*
X281103Y207409D01*
X281117Y207431D01*
X281136Y207468D01*
X281161Y207515D01*
X281183Y207577D01*
X281205Y207646D01*
X281219Y207730D01*
X281223Y207821D01*
Y207850D01*
X281219Y207868D01*
Y207893D01*
X281216Y207923D01*
X281205Y207992D01*
X281190Y208068D01*
X281165Y208148D01*
X281128Y208232D01*
X281081Y208308D01*
Y208312D01*
X281074Y208316D01*
X281055Y208341D01*
X281026Y208374D01*
X280983Y208414D01*
X280928Y208461D01*
X280866Y208505D01*
X280790Y208545D01*
X280706Y208581D01*
X280702D01*
X280695Y208585D01*
X280684Y208589D01*
X280666Y208592D01*
X280644Y208600D01*
X280619Y208607D01*
X280557Y208618D01*
X280484Y208632D01*
X280404Y208647D01*
X280316Y208654D01*
X280222Y208658D01*
X280218D01*
X280207D01*
X280189D01*
X280167D01*
X280142Y208654D01*
X280109D01*
X280073Y208651D01*
X280032Y208647D01*
X279945Y208636D01*
X279851Y208618D01*
X279756Y208596D01*
X279661Y208567D01*
X279658D01*
X279650Y208563D01*
X279639Y208556D01*
X279621Y208549D01*
X279578Y208527D01*
X279527Y208494D01*
X279468Y208454D01*
X279406Y208403D01*
X279352Y208345D01*
X279301Y208276D01*
Y208272D01*
X279297Y208265D01*
X279290Y208254D01*
X279283Y208239D01*
X279275Y208221D01*
X279264Y208199D01*
X279243Y208148D01*
X279221Y208083D01*
X279203Y208010D01*
X279188Y207930D01*
X279184Y207846D01*
Y207821D01*
X279188Y207799D01*
Y207773D01*
X279192Y207748D01*
X279206Y207682D01*
X279224Y207606D01*
X279254Y207529D01*
X279294Y207449D01*
X279315Y207409D01*
X279345Y207373D01*
X279348Y207369D01*
X279352Y207366D01*
X279363Y207355D01*
X279374Y207340D01*
X279392Y207326D01*
X279414Y207307D01*
X279436Y207286D01*
X279465Y207267D01*
X279498Y207246D01*
X279534Y207220D01*
X279570Y207198D01*
X279614Y207176D01*
X279661Y207158D01*
X279712Y207140D01*
X279767Y207122D01*
X279825Y207107D01*
X279741Y206772D01*
X279738D01*
X279723Y206776D01*
X279701Y206783D01*
X279672Y206794D01*
X279639Y206805D01*
X279599Y206820D01*
X279556Y206838D01*
X279508Y206860D01*
X279406Y206911D01*
X279305Y206976D01*
X279254Y207016D01*
X279203Y207056D01*
X279159Y207100D01*
X279115Y207151D01*
X279112Y207155D01*
X279104Y207162D01*
X279097Y207180D01*
X279082Y207198D01*
X279064Y207227D01*
X279046Y207257D01*
X279028Y207296D01*
X279010Y207337D01*
X278988Y207384D01*
X278970Y207435D01*
X278952Y207489D01*
X278933Y207548D01*
X278919Y207610D01*
X278911Y207675D01*
X278904Y207744D01*
X278901Y207817D01*
Y207857D01*
X278904Y207886D01*
Y207919D01*
X278908Y207959D01*
X278915Y208003D01*
X278922Y208054D01*
X278941Y208159D01*
X278970Y208268D01*
X279010Y208378D01*
X279035Y208429D01*
X279064Y208479D01*
X279068Y208483D01*
X279072Y208490D01*
X279082Y208505D01*
X279097Y208520D01*
X279112Y208541D01*
X279134Y208567D01*
X279159Y208596D01*
X279188Y208625D01*
X279221Y208654D01*
X279254Y208687D01*
X279337Y208752D01*
X279436Y208814D01*
X279545Y208869D01*
X279548D01*
X279559Y208876D01*
X279578Y208880D01*
X279599Y208891D01*
X279628Y208898D01*
X279665Y208909D01*
X279705Y208924D01*
X279749Y208934D01*
X279796Y208945D01*
X279851Y208960D01*
X279963Y208978D01*
X280091Y208993D01*
X280222Y209000D01*
X280225D01*
X280240D01*
X280262D01*
X280287Y208996D01*
D02*
G37*
G36*
X281430Y204836D02*
X281186D01*
X281183Y204839D01*
X281175Y204847D01*
X281161Y204861D01*
X281139Y204876D01*
X281114Y204898D01*
X281084Y204927D01*
X281048Y204956D01*
X281004Y204989D01*
X280961Y205022D01*
X280910Y205062D01*
X280852Y205102D01*
X280793Y205142D01*
X280728Y205185D01*
X280659Y205229D01*
X280582Y205273D01*
X280506Y205316D01*
X280502Y205320D01*
X280488Y205327D01*
X280466Y205338D01*
X280433Y205356D01*
X280393Y205375D01*
X280349Y205396D01*
X280298Y205422D01*
X280240Y205447D01*
X280174Y205476D01*
X280109Y205509D01*
X280036Y205538D01*
X279960Y205568D01*
X279803Y205626D01*
X279636Y205680D01*
X279632D01*
X279621Y205684D01*
X279603Y205688D01*
X279581Y205695D01*
X279552Y205702D01*
X279516Y205710D01*
X279476Y205720D01*
X279432Y205728D01*
X279381Y205739D01*
X279326Y205750D01*
X279210Y205768D01*
X279082Y205786D01*
X278944Y205797D01*
Y206114D01*
X278948D01*
X278959D01*
X278973D01*
X278995Y206110D01*
X279024D01*
X279061Y206106D01*
X279101Y206103D01*
X279144Y206099D01*
X279195Y206092D01*
X279246Y206084D01*
X279308Y206073D01*
X279370Y206063D01*
X279436Y206052D01*
X279508Y206037D01*
X279658Y206001D01*
X279661D01*
X279676Y205997D01*
X279698Y205990D01*
X279730Y205979D01*
X279767Y205968D01*
X279811Y205953D01*
X279861Y205939D01*
X279916Y205917D01*
X279978Y205895D01*
X280040Y205873D01*
X280178Y205819D01*
X280324Y205753D01*
X280469Y205680D01*
X280473Y205677D01*
X280488Y205669D01*
X280506Y205659D01*
X280535Y205644D01*
X280568Y205626D01*
X280608Y205600D01*
X280651Y205575D01*
X280699Y205546D01*
X280804Y205476D01*
X280913Y205404D01*
X281026Y205320D01*
X281132Y205233D01*
Y206467D01*
X281430D01*
Y204836D01*
D02*
G37*
G36*
X293748Y217103D02*
X293781Y217099D01*
X293821Y217095D01*
X293861Y217092D01*
X293909Y217081D01*
X294007Y217059D01*
X294116Y217026D01*
X294171Y217004D01*
X294222Y216979D01*
X294273Y216946D01*
X294324Y216913D01*
X294327Y216910D01*
X294335Y216906D01*
X294349Y216895D01*
X294367Y216877D01*
X294386Y216859D01*
X294411Y216833D01*
X294436Y216804D01*
X294465Y216775D01*
X294495Y216739D01*
X294524Y216695D01*
X294557Y216651D01*
X294586Y216604D01*
X294611Y216549D01*
X294640Y216495D01*
X294662Y216436D01*
X294684Y216371D01*
X294356Y216295D01*
Y216298D01*
X294353Y216305D01*
X294345Y216320D01*
X294338Y216338D01*
X294331Y216360D01*
X294320Y216389D01*
X294291Y216447D01*
X294254Y216513D01*
X294211Y216578D01*
X294156Y216640D01*
X294098Y216695D01*
X294091Y216702D01*
X294069Y216717D01*
X294032Y216735D01*
X293985Y216760D01*
X293923Y216782D01*
X293854Y216804D01*
X293770Y216819D01*
X293679Y216822D01*
X293650D01*
X293632Y216819D01*
X293606D01*
X293577Y216815D01*
X293508Y216804D01*
X293432Y216790D01*
X293352Y216764D01*
X293268Y216728D01*
X293192Y216680D01*
X293188D01*
X293184Y216673D01*
X293159Y216655D01*
X293126Y216626D01*
X293086Y216582D01*
X293039Y216527D01*
X292995Y216465D01*
X292955Y216389D01*
X292919Y216305D01*
Y216302D01*
X292915Y216295D01*
X292911Y216284D01*
X292908Y216265D01*
X292900Y216244D01*
X292893Y216218D01*
X292882Y216156D01*
X292868Y216083D01*
X292853Y216003D01*
X292846Y215916D01*
X292842Y215821D01*
Y215818D01*
Y215807D01*
Y215789D01*
Y215767D01*
X292846Y215741D01*
Y215708D01*
X292849Y215672D01*
X292853Y215632D01*
X292864Y215545D01*
X292882Y215450D01*
X292904Y215355D01*
X292933Y215261D01*
Y215257D01*
X292937Y215250D01*
X292944Y215239D01*
X292951Y215221D01*
X292973Y215177D01*
X293006Y215126D01*
X293046Y215068D01*
X293097Y215006D01*
X293155Y214951D01*
X293224Y214900D01*
X293228D01*
X293235Y214897D01*
X293246Y214889D01*
X293261Y214882D01*
X293279Y214875D01*
X293301Y214864D01*
X293352Y214842D01*
X293417Y214820D01*
X293490Y214802D01*
X293570Y214788D01*
X293654Y214784D01*
X293679D01*
X293701Y214788D01*
X293727D01*
X293752Y214791D01*
X293818Y214806D01*
X293894Y214824D01*
X293970Y214853D01*
X294051Y214893D01*
X294091Y214915D01*
X294127Y214944D01*
X294131Y214948D01*
X294134Y214951D01*
X294145Y214962D01*
X294160Y214973D01*
X294174Y214991D01*
X294193Y215013D01*
X294214Y215035D01*
X294233Y215064D01*
X294254Y215097D01*
X294280Y215133D01*
X294302Y215170D01*
X294324Y215213D01*
X294342Y215261D01*
X294360Y215312D01*
X294378Y215366D01*
X294393Y215424D01*
X294728Y215341D01*
Y215337D01*
X294724Y215323D01*
X294717Y215301D01*
X294706Y215272D01*
X294695Y215239D01*
X294680Y215199D01*
X294662Y215155D01*
X294640Y215108D01*
X294589Y215006D01*
X294524Y214904D01*
X294484Y214853D01*
X294444Y214802D01*
X294400Y214758D01*
X294349Y214715D01*
X294345Y214711D01*
X294338Y214704D01*
X294320Y214697D01*
X294302Y214682D01*
X294273Y214664D01*
X294244Y214646D01*
X294203Y214627D01*
X294163Y214609D01*
X294116Y214587D01*
X294065Y214569D01*
X294011Y214551D01*
X293952Y214533D01*
X293890Y214518D01*
X293825Y214511D01*
X293756Y214504D01*
X293683Y214500D01*
X293643D01*
X293614Y214504D01*
X293581D01*
X293541Y214507D01*
X293497Y214514D01*
X293446Y214522D01*
X293341Y214540D01*
X293232Y214569D01*
X293122Y214609D01*
X293071Y214635D01*
X293021Y214664D01*
X293017Y214667D01*
X293009Y214671D01*
X292995Y214682D01*
X292980Y214697D01*
X292959Y214711D01*
X292933Y214733D01*
X292904Y214758D01*
X292875Y214788D01*
X292846Y214820D01*
X292813Y214853D01*
X292747Y214937D01*
X292686Y215035D01*
X292631Y215144D01*
Y215148D01*
X292624Y215159D01*
X292620Y215177D01*
X292609Y215199D01*
X292602Y215228D01*
X292591Y215264D01*
X292576Y215304D01*
X292565Y215348D01*
X292555Y215395D01*
X292540Y215450D01*
X292522Y215563D01*
X292507Y215690D01*
X292500Y215821D01*
Y215825D01*
Y215840D01*
Y215861D01*
X292504Y215887D01*
Y215923D01*
X292507Y215960D01*
X292511Y216007D01*
X292518Y216054D01*
X292536Y216160D01*
X292562Y216276D01*
X292598Y216393D01*
X292649Y216506D01*
X292653Y216509D01*
X292656Y216520D01*
X292664Y216535D01*
X292678Y216553D01*
X292693Y216578D01*
X292711Y216607D01*
X292758Y216673D01*
X292820Y216746D01*
X292893Y216819D01*
X292977Y216891D01*
X293075Y216953D01*
X293079Y216957D01*
X293090Y216961D01*
X293104Y216968D01*
X293122Y216979D01*
X293151Y216990D01*
X293181Y217001D01*
X293217Y217015D01*
X293257Y217030D01*
X293301Y217044D01*
X293348Y217059D01*
X293450Y217081D01*
X293566Y217099D01*
X293687Y217106D01*
X293723D01*
X293748Y217103D01*
D02*
G37*
G36*
X296562Y216735D02*
X295554D01*
X295419Y216054D01*
X295423Y216058D01*
X295430Y216061D01*
X295441Y216069D01*
X295459Y216080D01*
X295481Y216091D01*
X295507Y216105D01*
X295565Y216134D01*
X295638Y216163D01*
X295718Y216189D01*
X295805Y216207D01*
X295849Y216214D01*
X295929D01*
X295951Y216211D01*
X295980Y216207D01*
X296013Y216203D01*
X296049Y216196D01*
X296089Y216185D01*
X296176Y216160D01*
X296224Y216142D01*
X296271Y216116D01*
X296318Y216091D01*
X296366Y216061D01*
X296409Y216025D01*
X296453Y215985D01*
X296457Y215981D01*
X296464Y215974D01*
X296475Y215963D01*
X296489Y215945D01*
X296508Y215919D01*
X296526Y215894D01*
X296548Y215861D01*
X296569Y215825D01*
X296588Y215785D01*
X296609Y215741D01*
X296628Y215690D01*
X296646Y215639D01*
X296660Y215585D01*
X296671Y215523D01*
X296679Y215461D01*
X296682Y215395D01*
Y215392D01*
Y215381D01*
Y215363D01*
X296679Y215337D01*
X296675Y215308D01*
X296671Y215275D01*
X296664Y215235D01*
X296657Y215195D01*
X296635Y215101D01*
X296599Y215002D01*
X296577Y214951D01*
X296548Y214904D01*
X296518Y214853D01*
X296482Y214806D01*
X296479Y214802D01*
X296471Y214791D01*
X296457Y214777D01*
X296438Y214758D01*
X296413Y214737D01*
X296384Y214707D01*
X296347Y214682D01*
X296307Y214653D01*
X296264Y214624D01*
X296213Y214598D01*
X296158Y214573D01*
X296100Y214547D01*
X296038Y214529D01*
X295969Y214514D01*
X295896Y214504D01*
X295820Y214500D01*
X295787D01*
X295761Y214504D01*
X295732Y214507D01*
X295700Y214511D01*
X295659Y214514D01*
X295619Y214525D01*
X295528Y214547D01*
X295437Y214580D01*
X295390Y214602D01*
X295343Y214627D01*
X295299Y214656D01*
X295255Y214689D01*
X295252Y214693D01*
X295245Y214697D01*
X295237Y214711D01*
X295223Y214726D01*
X295204Y214744D01*
X295186Y214766D01*
X295164Y214795D01*
X295146Y214828D01*
X295124Y214860D01*
X295103Y214900D01*
X295062Y214988D01*
X295030Y215090D01*
X295019Y215144D01*
X295011Y215202D01*
X295336Y215228D01*
Y215224D01*
Y215217D01*
X295339Y215206D01*
X295343Y215188D01*
X295354Y215148D01*
X295368Y215093D01*
X295390Y215039D01*
X295419Y214977D01*
X295456Y214922D01*
X295499Y214871D01*
X295507Y214868D01*
X295521Y214853D01*
X295550Y214835D01*
X295590Y214813D01*
X295634Y214791D01*
X295689Y214773D01*
X295750Y214758D01*
X295820Y214755D01*
X295842D01*
X295856Y214758D01*
X295900Y214762D01*
X295951Y214777D01*
X296013Y214795D01*
X296074Y214824D01*
X296140Y214868D01*
X296169Y214893D01*
X296198Y214922D01*
X296202Y214926D01*
X296205Y214930D01*
X296213Y214940D01*
X296224Y214951D01*
X296249Y214991D01*
X296278Y215042D01*
X296304Y215104D01*
X296329Y215181D01*
X296347Y215272D01*
X296355Y215319D01*
Y215370D01*
Y215373D01*
Y215381D01*
Y215395D01*
X296351Y215414D01*
Y215435D01*
X296347Y215461D01*
X296337Y215519D01*
X296318Y215588D01*
X296293Y215657D01*
X296256Y215723D01*
X296205Y215785D01*
Y215789D01*
X296198Y215792D01*
X296180Y215810D01*
X296147Y215836D01*
X296104Y215865D01*
X296045Y215890D01*
X295980Y215916D01*
X295903Y215934D01*
X295860Y215941D01*
X295791D01*
X295761Y215938D01*
X295725Y215934D01*
X295681Y215923D01*
X295638Y215912D01*
X295590Y215894D01*
X295543Y215872D01*
X295539Y215869D01*
X295525Y215861D01*
X295503Y215843D01*
X295474Y215825D01*
X295445Y215799D01*
X295416Y215767D01*
X295383Y215734D01*
X295357Y215694D01*
X295066Y215734D01*
X295310Y217030D01*
X296562D01*
Y216735D01*
D02*
G37*
G36*
X99748Y211483D02*
X99781Y211480D01*
X99821Y211476D01*
X99861Y211473D01*
X99909Y211462D01*
X100007Y211440D01*
X100116Y211407D01*
X100171Y211385D01*
X100222Y211360D01*
X100273Y211327D01*
X100324Y211294D01*
X100327Y211291D01*
X100335Y211287D01*
X100349Y211276D01*
X100367Y211258D01*
X100385Y211240D01*
X100411Y211214D01*
X100436Y211185D01*
X100466Y211156D01*
X100495Y211119D01*
X100524Y211076D01*
X100557Y211032D01*
X100586Y210985D01*
X100611Y210930D01*
X100640Y210876D01*
X100662Y210817D01*
X100684Y210752D01*
X100356Y210675D01*
Y210679D01*
X100353Y210686D01*
X100345Y210701D01*
X100338Y210719D01*
X100331Y210741D01*
X100320Y210770D01*
X100291Y210828D01*
X100254Y210894D01*
X100211Y210959D01*
X100156Y211021D01*
X100098Y211076D01*
X100091Y211083D01*
X100069Y211098D01*
X100032Y211116D01*
X99985Y211141D01*
X99923Y211163D01*
X99854Y211185D01*
X99770Y211199D01*
X99679Y211203D01*
X99650D01*
X99632Y211199D01*
X99607D01*
X99577Y211196D01*
X99508Y211185D01*
X99432Y211170D01*
X99352Y211145D01*
X99268Y211108D01*
X99191Y211061D01*
X99188D01*
X99184Y211054D01*
X99159Y211036D01*
X99126Y211007D01*
X99086Y210963D01*
X99039Y210908D01*
X98995Y210846D01*
X98955Y210770D01*
X98919Y210686D01*
Y210683D01*
X98915Y210675D01*
X98911Y210664D01*
X98908Y210646D01*
X98900Y210624D01*
X98893Y210599D01*
X98882Y210537D01*
X98868Y210464D01*
X98853Y210384D01*
X98846Y210297D01*
X98842Y210202D01*
Y210198D01*
Y210188D01*
Y210169D01*
Y210148D01*
X98846Y210122D01*
Y210089D01*
X98849Y210053D01*
X98853Y210013D01*
X98864Y209926D01*
X98882Y209831D01*
X98904Y209736D01*
X98933Y209642D01*
Y209638D01*
X98937Y209631D01*
X98944Y209620D01*
X98951Y209602D01*
X98973Y209558D01*
X99006Y209507D01*
X99046Y209449D01*
X99097Y209387D01*
X99155Y209332D01*
X99224Y209281D01*
X99228D01*
X99235Y209278D01*
X99246Y209270D01*
X99261Y209263D01*
X99279Y209256D01*
X99301Y209245D01*
X99352Y209223D01*
X99417Y209201D01*
X99490Y209183D01*
X99570Y209168D01*
X99654Y209165D01*
X99679D01*
X99701Y209168D01*
X99727D01*
X99752Y209172D01*
X99818Y209187D01*
X99894Y209205D01*
X99971Y209234D01*
X100051Y209274D01*
X100091Y209296D01*
X100127Y209325D01*
X100131Y209329D01*
X100134Y209332D01*
X100145Y209343D01*
X100160Y209354D01*
X100174Y209372D01*
X100193Y209394D01*
X100214Y209416D01*
X100233Y209445D01*
X100254Y209478D01*
X100280Y209514D01*
X100302Y209551D01*
X100324Y209594D01*
X100342Y209642D01*
X100360Y209693D01*
X100378Y209747D01*
X100393Y209805D01*
X100728Y209722D01*
Y209718D01*
X100724Y209703D01*
X100717Y209682D01*
X100706Y209652D01*
X100695Y209620D01*
X100680Y209580D01*
X100662Y209536D01*
X100640Y209489D01*
X100589Y209387D01*
X100524Y209285D01*
X100484Y209234D01*
X100444Y209183D01*
X100400Y209139D01*
X100349Y209096D01*
X100345Y209092D01*
X100338Y209085D01*
X100320Y209077D01*
X100302Y209063D01*
X100273Y209045D01*
X100243Y209026D01*
X100204Y209008D01*
X100163Y208990D01*
X100116Y208968D01*
X100065Y208950D01*
X100011Y208932D01*
X99952Y208914D01*
X99890Y208899D01*
X99825Y208892D01*
X99756Y208885D01*
X99683Y208881D01*
X99643D01*
X99614Y208885D01*
X99581D01*
X99541Y208888D01*
X99497Y208895D01*
X99446Y208903D01*
X99341Y208921D01*
X99232Y208950D01*
X99122Y208990D01*
X99071Y209015D01*
X99020Y209045D01*
X99017Y209048D01*
X99010Y209052D01*
X98995Y209063D01*
X98980Y209077D01*
X98959Y209092D01*
X98933Y209114D01*
X98904Y209139D01*
X98875Y209168D01*
X98846Y209201D01*
X98813Y209234D01*
X98747Y209318D01*
X98686Y209416D01*
X98631Y209525D01*
Y209529D01*
X98624Y209540D01*
X98620Y209558D01*
X98609Y209580D01*
X98602Y209609D01*
X98591Y209645D01*
X98576Y209685D01*
X98566Y209729D01*
X98554Y209776D01*
X98540Y209831D01*
X98522Y209944D01*
X98507Y210071D01*
X98500Y210202D01*
Y210206D01*
Y210220D01*
Y210242D01*
X98504Y210268D01*
Y210304D01*
X98507Y210340D01*
X98511Y210388D01*
X98518Y210435D01*
X98536Y210541D01*
X98562Y210657D01*
X98598Y210774D01*
X98649Y210887D01*
X98653Y210890D01*
X98656Y210901D01*
X98664Y210916D01*
X98678Y210934D01*
X98693Y210959D01*
X98711Y210988D01*
X98758Y211054D01*
X98820Y211127D01*
X98893Y211199D01*
X98977Y211272D01*
X99075Y211334D01*
X99079Y211338D01*
X99090Y211342D01*
X99104Y211349D01*
X99122Y211360D01*
X99151Y211371D01*
X99181Y211382D01*
X99217Y211396D01*
X99257Y211411D01*
X99301Y211425D01*
X99348Y211440D01*
X99450Y211462D01*
X99567Y211480D01*
X99687Y211487D01*
X99723D01*
X99748Y211483D01*
D02*
G37*
G36*
X101878Y211451D02*
X101925Y211443D01*
X101983Y211433D01*
X102049Y211414D01*
X102114Y211392D01*
X102180Y211363D01*
X102184D01*
X102187Y211360D01*
X102209Y211349D01*
X102242Y211327D01*
X102278Y211301D01*
X102322Y211265D01*
X102366Y211225D01*
X102409Y211178D01*
X102446Y211123D01*
X102449Y211116D01*
X102460Y211098D01*
X102475Y211065D01*
X102493Y211025D01*
X102511Y210978D01*
X102526Y210923D01*
X102537Y210861D01*
X102540Y210799D01*
Y210792D01*
Y210770D01*
X102537Y210741D01*
X102529Y210701D01*
X102518Y210653D01*
X102500Y210603D01*
X102479Y210552D01*
X102449Y210501D01*
X102446Y210493D01*
X102435Y210479D01*
X102413Y210453D01*
X102384Y210424D01*
X102347Y210391D01*
X102304Y210355D01*
X102253Y210322D01*
X102191Y210290D01*
X102195D01*
X102202Y210286D01*
X102213Y210282D01*
X102227Y210279D01*
X102267Y210264D01*
X102318Y210242D01*
X102376Y210213D01*
X102435Y210177D01*
X102489Y210129D01*
X102540Y210075D01*
X102544Y210068D01*
X102559Y210046D01*
X102580Y210009D01*
X102602Y209962D01*
X102624Y209904D01*
X102646Y209835D01*
X102661Y209754D01*
X102664Y209667D01*
Y209663D01*
Y209652D01*
Y209634D01*
X102661Y209612D01*
X102657Y209583D01*
X102649Y209551D01*
X102642Y209514D01*
X102635Y209474D01*
X102606Y209387D01*
X102584Y209339D01*
X102562Y209296D01*
X102533Y209248D01*
X102500Y209201D01*
X102464Y209154D01*
X102420Y209110D01*
X102417Y209106D01*
X102409Y209099D01*
X102395Y209088D01*
X102376Y209074D01*
X102355Y209056D01*
X102326Y209037D01*
X102293Y209015D01*
X102253Y208997D01*
X102213Y208976D01*
X102165Y208954D01*
X102118Y208935D01*
X102064Y208917D01*
X102005Y208903D01*
X101943Y208892D01*
X101882Y208885D01*
X101812Y208881D01*
X101780D01*
X101758Y208885D01*
X101729Y208888D01*
X101696Y208892D01*
X101660Y208899D01*
X101619Y208906D01*
X101532Y208928D01*
X101441Y208965D01*
X101394Y208986D01*
X101350Y209012D01*
X101306Y209045D01*
X101263Y209077D01*
X101259Y209081D01*
X101252Y209088D01*
X101241Y209099D01*
X101230Y209114D01*
X101212Y209132D01*
X101194Y209157D01*
X101172Y209183D01*
X101150Y209216D01*
X101128Y209252D01*
X101106Y209289D01*
X101066Y209376D01*
X101033Y209478D01*
X101023Y209532D01*
X101015Y209591D01*
X101325Y209631D01*
Y209627D01*
X101328Y209620D01*
X101332Y209605D01*
X101336Y209587D01*
X101339Y209565D01*
X101346Y209540D01*
X101365Y209485D01*
X101390Y209420D01*
X101423Y209358D01*
X101459Y209299D01*
X101503Y209248D01*
X101510Y209245D01*
X101525Y209230D01*
X101554Y209212D01*
X101590Y209194D01*
X101634Y209172D01*
X101689Y209154D01*
X101751Y209139D01*
X101816Y209136D01*
X101838D01*
X101852Y209139D01*
X101892Y209143D01*
X101943Y209154D01*
X102002Y209172D01*
X102064Y209197D01*
X102125Y209234D01*
X102184Y209285D01*
X102191Y209292D01*
X102209Y209314D01*
X102231Y209347D01*
X102260Y209390D01*
X102289Y209445D01*
X102311Y209507D01*
X102329Y209580D01*
X102337Y209660D01*
Y209663D01*
Y209671D01*
Y209682D01*
X102333Y209696D01*
X102329Y209736D01*
X102318Y209784D01*
X102304Y209842D01*
X102278Y209900D01*
X102242Y209958D01*
X102195Y210013D01*
X102187Y210020D01*
X102169Y210035D01*
X102140Y210057D01*
X102100Y210082D01*
X102049Y210107D01*
X101987Y210129D01*
X101918Y210144D01*
X101841Y210151D01*
X101809D01*
X101783Y210148D01*
X101751Y210144D01*
X101714Y210137D01*
X101670Y210129D01*
X101623Y210118D01*
X101660Y210391D01*
X101678D01*
X101692Y210388D01*
X101740D01*
X101780Y210395D01*
X101827Y210402D01*
X101882Y210413D01*
X101943Y210432D01*
X102002Y210457D01*
X102064Y210490D01*
X102067D01*
X102071Y210493D01*
X102089Y210508D01*
X102114Y210533D01*
X102144Y210566D01*
X102173Y210613D01*
X102198Y210668D01*
X102216Y210730D01*
X102224Y210766D01*
Y210806D01*
Y210810D01*
Y210814D01*
Y210836D01*
X102216Y210865D01*
X102209Y210905D01*
X102195Y210948D01*
X102176Y210996D01*
X102147Y211043D01*
X102107Y211087D01*
X102103Y211090D01*
X102085Y211105D01*
X102060Y211123D01*
X102027Y211145D01*
X101983Y211163D01*
X101933Y211181D01*
X101874Y211196D01*
X101809Y211199D01*
X101780D01*
X101747Y211192D01*
X101703Y211185D01*
X101656Y211170D01*
X101609Y211152D01*
X101558Y211123D01*
X101510Y211087D01*
X101507Y211083D01*
X101492Y211065D01*
X101470Y211039D01*
X101445Y211003D01*
X101419Y210956D01*
X101394Y210897D01*
X101372Y210828D01*
X101357Y210748D01*
X101048Y210803D01*
Y210806D01*
X101052Y210817D01*
X101055Y210832D01*
X101059Y210854D01*
X101066Y210879D01*
X101077Y210908D01*
X101099Y210978D01*
X101135Y211058D01*
X101179Y211138D01*
X101234Y211214D01*
X101303Y211283D01*
X101306Y211287D01*
X101314Y211291D01*
X101325Y211298D01*
X101339Y211309D01*
X101357Y211323D01*
X101383Y211338D01*
X101408Y211352D01*
X101441Y211371D01*
X101514Y211400D01*
X101598Y211429D01*
X101696Y211447D01*
X101747Y211454D01*
X101838D01*
X101878Y211451D01*
D02*
G37*
G36*
X275782Y258496D02*
X275808D01*
X275837Y258493D01*
X275906Y258478D01*
X275982Y258460D01*
X276063Y258431D01*
X276143Y258391D01*
X276183Y258365D01*
X276219Y258336D01*
X276223Y258333D01*
X276226Y258329D01*
X276237Y258318D01*
X276248Y258307D01*
X276263Y258289D01*
X276281Y258267D01*
X276317Y258216D01*
X276354Y258151D01*
X276390Y258070D01*
X276419Y257979D01*
X276441Y257874D01*
X276143Y257849D01*
Y257852D01*
X276139Y257859D01*
Y257867D01*
X276135Y257881D01*
X276124Y257921D01*
X276110Y257965D01*
X276092Y258016D01*
X276066Y258067D01*
X276037Y258114D01*
X276001Y258154D01*
X275997Y258158D01*
X275982Y258169D01*
X275957Y258183D01*
X275928Y258198D01*
X275888Y258216D01*
X275840Y258231D01*
X275786Y258242D01*
X275728Y258245D01*
X275702D01*
X275677Y258242D01*
X275644Y258238D01*
X275604Y258231D01*
X275564Y258220D01*
X275520Y258205D01*
X275480Y258183D01*
X275477Y258180D01*
X275462Y258172D01*
X275440Y258158D01*
X275418Y258136D01*
X275389Y258111D01*
X275360Y258081D01*
X275331Y258049D01*
X275302Y258009D01*
X275298Y258005D01*
X275291Y257987D01*
X275276Y257961D01*
X275262Y257928D01*
X275244Y257885D01*
X275225Y257834D01*
X275207Y257776D01*
X275189Y257710D01*
Y257706D01*
X275185Y257703D01*
Y257692D01*
X275182Y257677D01*
X275174Y257641D01*
X275164Y257594D01*
X275156Y257535D01*
X275149Y257473D01*
X275145Y257404D01*
X275142Y257332D01*
Y257328D01*
Y257317D01*
Y257299D01*
Y257270D01*
X275145Y257277D01*
X275160Y257295D01*
X275182Y257321D01*
X275207Y257357D01*
X275244Y257394D01*
X275287Y257434D01*
X275338Y257473D01*
X275396Y257510D01*
X275404Y257514D01*
X275426Y257524D01*
X275458Y257539D01*
X275498Y257554D01*
X275553Y257572D01*
X275611Y257586D01*
X275677Y257597D01*
X275746Y257601D01*
X275775D01*
X275797Y257597D01*
X275826Y257594D01*
X275855Y257590D01*
X275891Y257583D01*
X275928Y257572D01*
X276012Y257546D01*
X276055Y257528D01*
X276099Y257506D01*
X276146Y257481D01*
X276190Y257448D01*
X276234Y257415D01*
X276274Y257375D01*
X276277Y257372D01*
X276285Y257364D01*
X276292Y257353D01*
X276306Y257335D01*
X276325Y257310D01*
X276343Y257284D01*
X276361Y257252D01*
X276379Y257215D01*
X276401Y257175D01*
X276419Y257131D01*
X276437Y257080D01*
X276456Y257030D01*
X276470Y256971D01*
X276478Y256909D01*
X276485Y256848D01*
X276488Y256778D01*
Y256775D01*
Y256760D01*
Y256742D01*
X276485Y256716D01*
X276481Y256684D01*
X276478Y256644D01*
X276470Y256604D01*
X276459Y256556D01*
X276434Y256462D01*
X276416Y256411D01*
X276394Y256356D01*
X276368Y256305D01*
X276336Y256258D01*
X276303Y256207D01*
X276263Y256163D01*
X276259Y256159D01*
X276252Y256152D01*
X276241Y256141D01*
X276223Y256127D01*
X276201Y256109D01*
X276172Y256087D01*
X276143Y256068D01*
X276106Y256043D01*
X276070Y256021D01*
X276026Y256003D01*
X275928Y255963D01*
X275877Y255948D01*
X275819Y255938D01*
X275760Y255930D01*
X275698Y255926D01*
X275673D01*
X275655Y255930D01*
X275637D01*
X275611Y255934D01*
X275549Y255945D01*
X275480Y255959D01*
X275404Y255985D01*
X275327Y256017D01*
X275251Y256061D01*
X275247D01*
X275244Y256068D01*
X275233Y256076D01*
X275218Y256087D01*
X275182Y256116D01*
X275134Y256156D01*
X275087Y256210D01*
X275032Y256276D01*
X274985Y256352D01*
X274941Y256440D01*
Y256443D01*
X274938Y256451D01*
X274931Y256465D01*
X274923Y256484D01*
X274916Y256509D01*
X274905Y256542D01*
X274898Y256578D01*
X274887Y256618D01*
X274876Y256665D01*
X274865Y256720D01*
X274858Y256778D01*
X274850Y256840D01*
X274843Y256909D01*
X274836Y256982D01*
X274832Y257062D01*
Y257146D01*
Y257150D01*
Y257168D01*
Y257193D01*
Y257226D01*
X274836Y257266D01*
Y257313D01*
X274839Y257368D01*
X274847Y257423D01*
X274858Y257546D01*
X274876Y257677D01*
X274901Y257801D01*
X274920Y257863D01*
X274938Y257918D01*
Y257921D01*
X274941Y257928D01*
X274949Y257943D01*
X274956Y257965D01*
X274967Y257987D01*
X274981Y258016D01*
X275018Y258078D01*
X275061Y258147D01*
X275113Y258220D01*
X275178Y258289D01*
X275251Y258351D01*
X275255D01*
X275262Y258358D01*
X275273Y258365D01*
X275287Y258373D01*
X275309Y258384D01*
X275331Y258398D01*
X275360Y258413D01*
X275389Y258424D01*
X275458Y258453D01*
X275542Y258478D01*
X275633Y258493D01*
X275735Y258500D01*
X275764D01*
X275782Y258496D01*
D02*
G37*
G36*
X277886D02*
X277919D01*
X277959Y258493D01*
X278003Y258486D01*
X278054Y258478D01*
X278159Y258460D01*
X278268Y258431D01*
X278378Y258391D01*
X278429Y258365D01*
X278480Y258336D01*
X278483Y258333D01*
X278490Y258329D01*
X278505Y258318D01*
X278520Y258303D01*
X278541Y258289D01*
X278567Y258267D01*
X278596Y258242D01*
X278625Y258212D01*
X278654Y258180D01*
X278687Y258147D01*
X278752Y258063D01*
X278814Y257965D01*
X278869Y257856D01*
Y257852D01*
X278876Y257841D01*
X278880Y257823D01*
X278891Y257801D01*
X278898Y257772D01*
X278909Y257736D01*
X278924Y257696D01*
X278935Y257652D01*
X278945Y257605D01*
X278960Y257550D01*
X278978Y257437D01*
X278993Y257310D01*
X279000Y257179D01*
Y257175D01*
Y257160D01*
Y257139D01*
X278996Y257113D01*
Y257077D01*
X278993Y257040D01*
X278989Y256993D01*
X278982Y256946D01*
X278964Y256840D01*
X278938Y256724D01*
X278902Y256607D01*
X278851Y256494D01*
X278847Y256491D01*
X278843Y256480D01*
X278836Y256465D01*
X278822Y256447D01*
X278807Y256422D01*
X278789Y256393D01*
X278742Y256327D01*
X278680Y256254D01*
X278607Y256181D01*
X278523Y256109D01*
X278425Y256047D01*
X278421Y256043D01*
X278410Y256039D01*
X278396Y256032D01*
X278378Y256021D01*
X278348Y256010D01*
X278319Y255999D01*
X278283Y255985D01*
X278243Y255970D01*
X278199Y255956D01*
X278152Y255941D01*
X278050Y255919D01*
X277934Y255901D01*
X277813Y255894D01*
X277777D01*
X277751Y255897D01*
X277719Y255901D01*
X277679Y255905D01*
X277639Y255908D01*
X277591Y255919D01*
X277493Y255941D01*
X277384Y255974D01*
X277329Y255996D01*
X277278Y256021D01*
X277227Y256054D01*
X277176Y256087D01*
X277173Y256090D01*
X277166Y256094D01*
X277151Y256105D01*
X277133Y256123D01*
X277115Y256141D01*
X277089Y256167D01*
X277063Y256196D01*
X277034Y256225D01*
X277005Y256261D01*
X276976Y256305D01*
X276943Y256349D01*
X276914Y256396D01*
X276889Y256451D01*
X276860Y256505D01*
X276838Y256563D01*
X276816Y256629D01*
X277144Y256705D01*
Y256702D01*
X277147Y256695D01*
X277155Y256680D01*
X277162Y256662D01*
X277169Y256640D01*
X277180Y256611D01*
X277209Y256553D01*
X277246Y256487D01*
X277289Y256422D01*
X277344Y256360D01*
X277402Y256305D01*
X277409Y256298D01*
X277431Y256283D01*
X277468Y256265D01*
X277515Y256240D01*
X277577Y256218D01*
X277646Y256196D01*
X277730Y256181D01*
X277821Y256178D01*
X277850D01*
X277868Y256181D01*
X277893D01*
X277923Y256185D01*
X277992Y256196D01*
X278068Y256210D01*
X278148Y256236D01*
X278232Y256272D01*
X278308Y256320D01*
X278312D01*
X278316Y256327D01*
X278341Y256345D01*
X278374Y256374D01*
X278414Y256418D01*
X278461Y256473D01*
X278505Y256534D01*
X278545Y256611D01*
X278581Y256695D01*
Y256698D01*
X278585Y256705D01*
X278589Y256716D01*
X278592Y256735D01*
X278600Y256756D01*
X278607Y256782D01*
X278618Y256844D01*
X278632Y256917D01*
X278647Y256997D01*
X278654Y257084D01*
X278658Y257179D01*
Y257182D01*
Y257193D01*
Y257211D01*
Y257233D01*
X278654Y257259D01*
Y257292D01*
X278651Y257328D01*
X278647Y257368D01*
X278636Y257455D01*
X278618Y257550D01*
X278596Y257645D01*
X278567Y257739D01*
Y257743D01*
X278563Y257750D01*
X278556Y257761D01*
X278549Y257779D01*
X278527Y257823D01*
X278494Y257874D01*
X278454Y257932D01*
X278403Y257994D01*
X278345Y258049D01*
X278276Y258100D01*
X278272D01*
X278265Y258103D01*
X278254Y258111D01*
X278239Y258118D01*
X278221Y258125D01*
X278199Y258136D01*
X278148Y258158D01*
X278083Y258180D01*
X278010Y258198D01*
X277930Y258212D01*
X277846Y258216D01*
X277821D01*
X277799Y258212D01*
X277773D01*
X277748Y258209D01*
X277682Y258194D01*
X277606Y258176D01*
X277530Y258147D01*
X277449Y258107D01*
X277409Y258085D01*
X277373Y258056D01*
X277369Y258052D01*
X277366Y258049D01*
X277355Y258038D01*
X277340Y258027D01*
X277326Y258009D01*
X277307Y257987D01*
X277286Y257965D01*
X277267Y257936D01*
X277246Y257903D01*
X277220Y257867D01*
X277198Y257830D01*
X277176Y257787D01*
X277158Y257739D01*
X277140Y257688D01*
X277122Y257634D01*
X277107Y257575D01*
X276772Y257659D01*
Y257663D01*
X276776Y257677D01*
X276783Y257699D01*
X276794Y257728D01*
X276805Y257761D01*
X276820Y257801D01*
X276838Y257845D01*
X276860Y257892D01*
X276911Y257994D01*
X276976Y258096D01*
X277016Y258147D01*
X277056Y258198D01*
X277100Y258242D01*
X277151Y258285D01*
X277155Y258289D01*
X277162Y258296D01*
X277180Y258303D01*
X277198Y258318D01*
X277227Y258336D01*
X277256Y258354D01*
X277296Y258373D01*
X277337Y258391D01*
X277384Y258413D01*
X277435Y258431D01*
X277489Y258449D01*
X277548Y258467D01*
X277609Y258482D01*
X277675Y258489D01*
X277744Y258496D01*
X277817Y258500D01*
X277857D01*
X277886Y258496D01*
D02*
G37*
G36*
X262328Y22510D02*
X262372D01*
X262419Y22506D01*
X262470Y22502D01*
X262586Y22491D01*
X262706Y22473D01*
X262823Y22451D01*
X262878Y22437D01*
X262932Y22419D01*
X262936D01*
X262943Y22415D01*
X262958Y22408D01*
X262976Y22400D01*
X263001Y22393D01*
X263027Y22379D01*
X263089Y22349D01*
X263154Y22313D01*
X263227Y22266D01*
X263293Y22211D01*
X263354Y22146D01*
Y22142D01*
X263362Y22138D01*
X263369Y22127D01*
X263376Y22113D01*
X263387Y22095D01*
X263402Y22076D01*
X263427Y22022D01*
X263453Y21956D01*
X263478Y21880D01*
X263493Y21789D01*
X263500Y21691D01*
Y21654D01*
X263496Y21629D01*
X263493Y21600D01*
X263486Y21563D01*
X263478Y21523D01*
X263467Y21479D01*
X263453Y21436D01*
X263438Y21388D01*
X263416Y21341D01*
X263391Y21294D01*
X263362Y21247D01*
X263325Y21199D01*
X263285Y21156D01*
X263242Y21115D01*
X263238Y21112D01*
X263227Y21105D01*
X263209Y21094D01*
X263180Y21075D01*
X263147Y21057D01*
X263103Y21039D01*
X263052Y21014D01*
X262994Y20992D01*
X262929Y20970D01*
X262852Y20948D01*
X262768Y20926D01*
X262674Y20908D01*
X262572Y20890D01*
X262463Y20879D01*
X262343Y20872D01*
X262215Y20868D01*
X262211D01*
X262197D01*
X262171D01*
X262142D01*
X262102Y20872D01*
X262059D01*
X262011Y20875D01*
X261957Y20879D01*
X261844Y20890D01*
X261724Y20908D01*
X261604Y20930D01*
X261549Y20944D01*
X261494Y20959D01*
X261491D01*
X261484Y20963D01*
X261469Y20970D01*
X261451Y20977D01*
X261425Y20984D01*
X261400Y20999D01*
X261338Y21028D01*
X261272Y21065D01*
X261203Y21112D01*
X261134Y21166D01*
X261076Y21232D01*
Y21236D01*
X261069Y21239D01*
X261061Y21250D01*
X261054Y21265D01*
X261039Y21283D01*
X261029Y21305D01*
X260999Y21359D01*
X260974Y21425D01*
X260948Y21501D01*
X260934Y21592D01*
X260927Y21691D01*
Y21723D01*
X260930Y21763D01*
X260938Y21811D01*
X260948Y21865D01*
X260963Y21924D01*
X260981Y21985D01*
X261010Y22044D01*
Y22047D01*
X261014Y22051D01*
X261025Y22069D01*
X261043Y22098D01*
X261069Y22135D01*
X261105Y22175D01*
X261145Y22218D01*
X261192Y22258D01*
X261247Y22298D01*
X261254Y22302D01*
X261272Y22317D01*
X261305Y22331D01*
X261352Y22357D01*
X261407Y22379D01*
X261469Y22408D01*
X261542Y22433D01*
X261622Y22455D01*
X261625D01*
X261633Y22459D01*
X261644Y22462D01*
X261662Y22466D01*
X261684Y22470D01*
X261709Y22473D01*
X261742Y22480D01*
X261778Y22484D01*
X261818Y22491D01*
X261862Y22495D01*
X261913Y22499D01*
X261964Y22506D01*
X262022Y22510D01*
X262080D01*
X262146Y22513D01*
X262215D01*
X262219D01*
X262233D01*
X262259D01*
X262288D01*
X262328Y22510D01*
D02*
G37*
G36*
X263456Y19765D02*
X261487D01*
X261491Y19761D01*
X261505Y19743D01*
X261527Y19721D01*
X261553Y19685D01*
X261585Y19645D01*
X261622Y19594D01*
X261662Y19536D01*
X261702Y19470D01*
Y19467D01*
X261705Y19463D01*
X261720Y19441D01*
X261738Y19405D01*
X261760Y19361D01*
X261786Y19310D01*
X261811Y19255D01*
X261837Y19201D01*
X261858Y19146D01*
X261560D01*
Y19150D01*
X261553Y19157D01*
X261549Y19172D01*
X261538Y19190D01*
X261527Y19212D01*
X261513Y19237D01*
X261476Y19299D01*
X261436Y19372D01*
X261385Y19445D01*
X261327Y19521D01*
X261265Y19598D01*
X261261Y19601D01*
X261258Y19605D01*
X261247Y19616D01*
X261236Y19630D01*
X261199Y19663D01*
X261156Y19707D01*
X261105Y19750D01*
X261047Y19798D01*
X260988Y19838D01*
X260927Y19874D01*
Y20074D01*
X263456D01*
Y19765D01*
D02*
G37*
G36*
Y18298D02*
X262932Y17967D01*
X262929D01*
X262921Y17960D01*
X262910Y17952D01*
X262896Y17941D01*
X262856Y17916D01*
X262805Y17883D01*
X262750Y17843D01*
X262692Y17803D01*
X262637Y17763D01*
X262586Y17727D01*
X262583Y17723D01*
X262568Y17712D01*
X262546Y17694D01*
X262521Y17668D01*
X262466Y17614D01*
X262441Y17585D01*
X262419Y17556D01*
X262415Y17552D01*
X262412Y17545D01*
X262404Y17530D01*
X262393Y17508D01*
X262383Y17486D01*
X262372Y17461D01*
X262353Y17403D01*
Y17399D01*
X262350Y17392D01*
Y17377D01*
X262346Y17359D01*
X262343Y17334D01*
Y17304D01*
X262339Y17264D01*
Y16835D01*
X263456D01*
Y16500D01*
X260938D01*
Y17668D01*
X260941Y17697D01*
Y17730D01*
X260945Y17807D01*
X260956Y17887D01*
X260967Y17974D01*
X260985Y18054D01*
X260996Y18094D01*
X261007Y18127D01*
Y18131D01*
X261010Y18134D01*
X261021Y18156D01*
X261036Y18189D01*
X261061Y18229D01*
X261094Y18273D01*
X261138Y18320D01*
X261189Y18364D01*
X261247Y18407D01*
X261250D01*
X261254Y18411D01*
X261276Y18426D01*
X261312Y18440D01*
X261360Y18462D01*
X261414Y18480D01*
X261480Y18498D01*
X261549Y18509D01*
X261625Y18513D01*
X261629D01*
X261636D01*
X261651D01*
X261669Y18509D01*
X261695D01*
X261720Y18506D01*
X261782Y18491D01*
X261855Y18469D01*
X261931Y18440D01*
X262008Y18396D01*
X262044Y18367D01*
X262080Y18338D01*
X262084Y18335D01*
X262088Y18331D01*
X262099Y18320D01*
X262109Y18305D01*
X262124Y18287D01*
X262139Y18265D01*
X262157Y18236D01*
X262179Y18207D01*
X262197Y18171D01*
X262215Y18131D01*
X262237Y18087D01*
X262255Y18040D01*
X262270Y17985D01*
X262288Y17931D01*
X262299Y17869D01*
X262310Y17803D01*
X262313Y17810D01*
X262321Y17825D01*
X262335Y17847D01*
X262350Y17876D01*
X262390Y17941D01*
X262415Y17974D01*
X262437Y18003D01*
X262444Y18011D01*
X262463Y18029D01*
X262492Y18058D01*
X262528Y18094D01*
X262579Y18134D01*
X262634Y18182D01*
X262699Y18229D01*
X262772Y18280D01*
X263456Y18713D01*
Y18298D01*
D02*
G37*
G36*
X188266Y20562D02*
X188313D01*
X188368Y20559D01*
X188423Y20551D01*
X188546Y20540D01*
X188677Y20522D01*
X188801Y20497D01*
X188863Y20479D01*
X188918Y20460D01*
X188921D01*
X188928Y20457D01*
X188943Y20449D01*
X188965Y20442D01*
X188987Y20431D01*
X189016Y20417D01*
X189078Y20380D01*
X189147Y20336D01*
X189220Y20286D01*
X189289Y20220D01*
X189351Y20147D01*
Y20144D01*
X189358Y20136D01*
X189365Y20125D01*
X189373Y20111D01*
X189383Y20089D01*
X189398Y20067D01*
X189413Y20038D01*
X189424Y20009D01*
X189453Y19940D01*
X189478Y19856D01*
X189493Y19765D01*
X189500Y19663D01*
Y19634D01*
X189496Y19616D01*
Y19590D01*
X189493Y19561D01*
X189478Y19492D01*
X189460Y19416D01*
X189431Y19335D01*
X189391Y19255D01*
X189365Y19215D01*
X189336Y19179D01*
X189333Y19175D01*
X189329Y19172D01*
X189318Y19161D01*
X189307Y19150D01*
X189289Y19135D01*
X189267Y19117D01*
X189216Y19081D01*
X189151Y19044D01*
X189070Y19008D01*
X188979Y18979D01*
X188874Y18957D01*
X188848Y19255D01*
X188852D01*
X188859Y19259D01*
X188867D01*
X188881Y19263D01*
X188921Y19274D01*
X188965Y19288D01*
X189016Y19306D01*
X189067Y19332D01*
X189114Y19361D01*
X189154Y19397D01*
X189158Y19401D01*
X189169Y19416D01*
X189183Y19441D01*
X189198Y19470D01*
X189216Y19510D01*
X189231Y19558D01*
X189242Y19612D01*
X189245Y19670D01*
Y19696D01*
X189242Y19721D01*
X189238Y19754D01*
X189231Y19794D01*
X189220Y19834D01*
X189205Y19878D01*
X189183Y19918D01*
X189180Y19921D01*
X189172Y19936D01*
X189158Y19958D01*
X189136Y19980D01*
X189111Y20009D01*
X189081Y20038D01*
X189049Y20067D01*
X189009Y20096D01*
X189005Y20100D01*
X188987Y20107D01*
X188961Y20122D01*
X188928Y20136D01*
X188885Y20155D01*
X188834Y20173D01*
X188776Y20191D01*
X188710Y20209D01*
X188707D01*
X188703Y20213D01*
X188692D01*
X188677Y20216D01*
X188641Y20224D01*
X188594Y20235D01*
X188535Y20242D01*
X188474Y20249D01*
X188404Y20253D01*
X188332Y20256D01*
X188328D01*
X188317D01*
X188299D01*
X188270D01*
X188277Y20253D01*
X188295Y20238D01*
X188321Y20216D01*
X188357Y20191D01*
X188393Y20155D01*
X188434Y20111D01*
X188474Y20060D01*
X188510Y20002D01*
X188514Y19994D01*
X188524Y19973D01*
X188539Y19940D01*
X188554Y19900D01*
X188572Y19845D01*
X188586Y19787D01*
X188597Y19721D01*
X188601Y19652D01*
Y19623D01*
X188597Y19601D01*
X188594Y19572D01*
X188590Y19543D01*
X188583Y19507D01*
X188572Y19470D01*
X188546Y19387D01*
X188528Y19343D01*
X188506Y19299D01*
X188481Y19252D01*
X188448Y19208D01*
X188415Y19164D01*
X188375Y19124D01*
X188372Y19121D01*
X188364Y19114D01*
X188353Y19106D01*
X188335Y19092D01*
X188310Y19073D01*
X188284Y19055D01*
X188251Y19037D01*
X188215Y19019D01*
X188175Y18997D01*
X188131Y18979D01*
X188080Y18961D01*
X188030Y18942D01*
X187971Y18928D01*
X187909Y18921D01*
X187847Y18913D01*
X187778Y18910D01*
X187775D01*
X187760D01*
X187742D01*
X187716Y18913D01*
X187684Y18917D01*
X187644Y18921D01*
X187604Y18928D01*
X187556Y18939D01*
X187462Y18964D01*
X187411Y18982D01*
X187356Y19004D01*
X187305Y19030D01*
X187258Y19062D01*
X187207Y19095D01*
X187163Y19135D01*
X187160Y19139D01*
X187152Y19146D01*
X187141Y19157D01*
X187127Y19175D01*
X187109Y19197D01*
X187087Y19226D01*
X187068Y19255D01*
X187043Y19292D01*
X187021Y19328D01*
X187003Y19372D01*
X186963Y19470D01*
X186948Y19521D01*
X186937Y19579D01*
X186930Y19638D01*
X186926Y19700D01*
Y19725D01*
X186930Y19743D01*
Y19761D01*
X186934Y19787D01*
X186945Y19849D01*
X186959Y19918D01*
X186985Y19994D01*
X187018Y20071D01*
X187061Y20147D01*
Y20151D01*
X187068Y20155D01*
X187076Y20165D01*
X187087Y20180D01*
X187116Y20216D01*
X187156Y20264D01*
X187211Y20311D01*
X187276Y20366D01*
X187352Y20413D01*
X187440Y20457D01*
X187443D01*
X187451Y20460D01*
X187465Y20468D01*
X187484Y20475D01*
X187509Y20482D01*
X187542Y20493D01*
X187578Y20500D01*
X187618Y20511D01*
X187665Y20522D01*
X187720Y20533D01*
X187778Y20540D01*
X187840Y20548D01*
X187909Y20555D01*
X187982Y20562D01*
X188062Y20566D01*
X188146D01*
X188150D01*
X188168D01*
X188193D01*
X188226D01*
X188266Y20562D01*
D02*
G37*
G36*
X189456Y18298D02*
X188932Y17967D01*
X188928D01*
X188921Y17960D01*
X188910Y17952D01*
X188896Y17941D01*
X188856Y17916D01*
X188805Y17883D01*
X188750Y17843D01*
X188692Y17803D01*
X188637Y17763D01*
X188586Y17727D01*
X188583Y17723D01*
X188568Y17712D01*
X188546Y17694D01*
X188521Y17668D01*
X188466Y17614D01*
X188441Y17585D01*
X188419Y17556D01*
X188415Y17552D01*
X188412Y17545D01*
X188404Y17530D01*
X188393Y17508D01*
X188382Y17486D01*
X188372Y17461D01*
X188353Y17403D01*
Y17399D01*
X188350Y17392D01*
Y17377D01*
X188346Y17359D01*
X188342Y17334D01*
Y17304D01*
X188339Y17264D01*
Y16835D01*
X189456D01*
Y16500D01*
X186937D01*
Y17668D01*
X186941Y17697D01*
Y17730D01*
X186945Y17807D01*
X186956Y17887D01*
X186967Y17974D01*
X186985Y18054D01*
X186996Y18094D01*
X187007Y18127D01*
Y18131D01*
X187010Y18134D01*
X187021Y18156D01*
X187036Y18189D01*
X187061Y18229D01*
X187094Y18273D01*
X187138Y18320D01*
X187189Y18364D01*
X187247Y18407D01*
X187250D01*
X187254Y18411D01*
X187276Y18426D01*
X187312Y18440D01*
X187360Y18462D01*
X187414Y18480D01*
X187480Y18498D01*
X187549Y18509D01*
X187625Y18513D01*
X187629D01*
X187636D01*
X187651D01*
X187669Y18509D01*
X187695D01*
X187720Y18506D01*
X187782Y18491D01*
X187855Y18469D01*
X187931Y18440D01*
X188008Y18396D01*
X188044Y18367D01*
X188080Y18338D01*
X188084Y18335D01*
X188088Y18331D01*
X188099Y18320D01*
X188110Y18305D01*
X188124Y18287D01*
X188139Y18265D01*
X188157Y18236D01*
X188179Y18207D01*
X188197Y18171D01*
X188215Y18131D01*
X188237Y18087D01*
X188255Y18040D01*
X188270Y17985D01*
X188288Y17931D01*
X188299Y17869D01*
X188310Y17803D01*
X188313Y17810D01*
X188321Y17825D01*
X188335Y17847D01*
X188350Y17876D01*
X188390Y17941D01*
X188415Y17974D01*
X188437Y18003D01*
X188444Y18011D01*
X188463Y18029D01*
X188492Y18058D01*
X188528Y18094D01*
X188579Y18134D01*
X188634Y18182D01*
X188699Y18229D01*
X188772Y18280D01*
X189456Y18713D01*
Y18298D01*
D02*
G37*
G36*
X113794Y20562D02*
X113819Y20559D01*
X113852Y20555D01*
X113889Y20548D01*
X113928Y20537D01*
X114012Y20511D01*
X114060Y20493D01*
X114103Y20468D01*
X114151Y20442D01*
X114194Y20413D01*
X114238Y20377D01*
X114282Y20336D01*
X114285Y20333D01*
X114293Y20326D01*
X114304Y20315D01*
X114314Y20297D01*
X114333Y20271D01*
X114351Y20245D01*
X114369Y20213D01*
X114391Y20176D01*
X114413Y20136D01*
X114431Y20089D01*
X114449Y20038D01*
X114467Y19987D01*
X114478Y19929D01*
X114489Y19867D01*
X114496Y19805D01*
X114500Y19736D01*
Y19700D01*
X114496Y19674D01*
X114493Y19641D01*
X114489Y19605D01*
X114482Y19565D01*
X114471Y19521D01*
X114445Y19423D01*
X114427Y19372D01*
X114409Y19325D01*
X114383Y19274D01*
X114354Y19223D01*
X114322Y19175D01*
X114282Y19132D01*
X114278Y19128D01*
X114271Y19121D01*
X114260Y19110D01*
X114242Y19095D01*
X114220Y19081D01*
X114194Y19059D01*
X114165Y19041D01*
X114129Y19019D01*
X114092Y18997D01*
X114049Y18979D01*
X113958Y18942D01*
X113903Y18928D01*
X113848Y18917D01*
X113790Y18910D01*
X113732Y18906D01*
X113728D01*
X113721D01*
X113707D01*
X113692Y18910D01*
X113670D01*
X113645Y18913D01*
X113586Y18921D01*
X113521Y18935D01*
X113455Y18957D01*
X113386Y18990D01*
X113321Y19030D01*
X113317D01*
X113313Y19037D01*
X113295Y19052D01*
X113266Y19081D01*
X113230Y19121D01*
X113193Y19172D01*
X113153Y19234D01*
X113120Y19303D01*
X113095Y19387D01*
Y19383D01*
X113091Y19379D01*
X113088Y19368D01*
X113080Y19354D01*
X113066Y19321D01*
X113044Y19277D01*
X113015Y19230D01*
X112978Y19183D01*
X112938Y19139D01*
X112895Y19099D01*
X112888Y19095D01*
X112873Y19084D01*
X112844Y19070D01*
X112807Y19055D01*
X112760Y19037D01*
X112706Y19023D01*
X112644Y19012D01*
X112578Y19008D01*
X112575D01*
X112567D01*
X112553D01*
X112531Y19012D01*
X112509Y19015D01*
X112480Y19019D01*
X112418Y19033D01*
X112345Y19055D01*
X112269Y19092D01*
X112229Y19114D01*
X112189Y19139D01*
X112152Y19172D01*
X112116Y19205D01*
X112112Y19208D01*
X112109Y19215D01*
X112098Y19226D01*
X112087Y19241D01*
X112072Y19259D01*
X112058Y19285D01*
X112039Y19314D01*
X112021Y19343D01*
X112003Y19379D01*
X111985Y19419D01*
X111970Y19463D01*
X111956Y19510D01*
X111934Y19612D01*
X111930Y19670D01*
X111926Y19729D01*
Y19761D01*
X111930Y19783D01*
X111934Y19812D01*
X111937Y19845D01*
X111941Y19882D01*
X111952Y19918D01*
X111974Y20005D01*
X112007Y20093D01*
X112029Y20136D01*
X112054Y20180D01*
X112087Y20220D01*
X112119Y20260D01*
X112123Y20264D01*
X112127Y20267D01*
X112138Y20278D01*
X112152Y20293D01*
X112174Y20307D01*
X112196Y20326D01*
X112250Y20362D01*
X112320Y20398D01*
X112400Y20431D01*
X112491Y20457D01*
X112538Y20460D01*
X112589Y20464D01*
X112593D01*
X112596D01*
X112618D01*
X112651Y20460D01*
X112691Y20453D01*
X112742Y20442D01*
X112793Y20424D01*
X112844Y20402D01*
X112895Y20369D01*
X112902Y20366D01*
X112917Y20351D01*
X112938Y20329D01*
X112968Y20300D01*
X113000Y20260D01*
X113033Y20213D01*
X113066Y20158D01*
X113095Y20093D01*
Y20096D01*
X113099Y20104D01*
X113102Y20114D01*
X113110Y20129D01*
X113128Y20173D01*
X113153Y20224D01*
X113190Y20278D01*
X113230Y20336D01*
X113281Y20391D01*
X113339Y20442D01*
X113342D01*
X113346Y20446D01*
X113368Y20460D01*
X113404Y20482D01*
X113452Y20504D01*
X113510Y20526D01*
X113579Y20548D01*
X113655Y20562D01*
X113739Y20566D01*
X113743D01*
X113754D01*
X113772D01*
X113794Y20562D01*
D02*
G37*
G36*
X114456Y18298D02*
X113932Y17967D01*
X113928D01*
X113921Y17960D01*
X113910Y17952D01*
X113896Y17941D01*
X113856Y17916D01*
X113805Y17883D01*
X113750Y17843D01*
X113692Y17803D01*
X113637Y17763D01*
X113586Y17727D01*
X113583Y17723D01*
X113568Y17712D01*
X113546Y17694D01*
X113521Y17668D01*
X113466Y17614D01*
X113441Y17585D01*
X113419Y17556D01*
X113415Y17552D01*
X113412Y17545D01*
X113404Y17530D01*
X113393Y17508D01*
X113382Y17486D01*
X113372Y17461D01*
X113353Y17403D01*
Y17399D01*
X113350Y17392D01*
Y17377D01*
X113346Y17359D01*
X113342Y17334D01*
Y17304D01*
X113339Y17264D01*
Y16835D01*
X114456D01*
Y16500D01*
X111937D01*
Y17668D01*
X111941Y17697D01*
Y17730D01*
X111945Y17807D01*
X111956Y17887D01*
X111967Y17974D01*
X111985Y18054D01*
X111996Y18094D01*
X112007Y18127D01*
Y18131D01*
X112010Y18134D01*
X112021Y18156D01*
X112036Y18189D01*
X112061Y18229D01*
X112094Y18273D01*
X112138Y18320D01*
X112189Y18364D01*
X112247Y18407D01*
X112250D01*
X112254Y18411D01*
X112276Y18426D01*
X112312Y18440D01*
X112360Y18462D01*
X112414Y18480D01*
X112480Y18498D01*
X112549Y18509D01*
X112625Y18513D01*
X112629D01*
X112636D01*
X112651D01*
X112669Y18509D01*
X112695D01*
X112720Y18506D01*
X112782Y18491D01*
X112855Y18469D01*
X112931Y18440D01*
X113008Y18396D01*
X113044Y18367D01*
X113080Y18338D01*
X113084Y18335D01*
X113088Y18331D01*
X113099Y18320D01*
X113110Y18305D01*
X113124Y18287D01*
X113139Y18265D01*
X113157Y18236D01*
X113179Y18207D01*
X113197Y18171D01*
X113215Y18131D01*
X113237Y18087D01*
X113255Y18040D01*
X113270Y17985D01*
X113288Y17931D01*
X113299Y17869D01*
X113310Y17803D01*
X113313Y17810D01*
X113321Y17825D01*
X113335Y17847D01*
X113350Y17876D01*
X113390Y17941D01*
X113415Y17974D01*
X113437Y18003D01*
X113444Y18011D01*
X113463Y18029D01*
X113492Y18058D01*
X113528Y18094D01*
X113579Y18134D01*
X113634Y18182D01*
X113699Y18229D01*
X113772Y18280D01*
X114456Y18713D01*
Y18298D01*
D02*
G37*
G36*
X114019Y243032D02*
X114015Y242966D01*
X114012Y242894D01*
X114004Y242821D01*
X113993Y242748D01*
X113982Y242686D01*
Y242682D01*
X113979Y242675D01*
Y242664D01*
X113971Y242650D01*
X113961Y242610D01*
X113942Y242559D01*
X113917Y242500D01*
X113884Y242439D01*
X113848Y242377D01*
X113800Y242318D01*
X113797Y242315D01*
X113793Y242311D01*
X113782Y242300D01*
X113771Y242286D01*
X113735Y242249D01*
X113684Y242206D01*
X113622Y242158D01*
X113549Y242107D01*
X113466Y242060D01*
X113371Y242020D01*
X113367D01*
X113360Y242016D01*
X113345Y242009D01*
X113324Y242005D01*
X113298Y241994D01*
X113269Y241987D01*
X113236Y241980D01*
X113196Y241969D01*
X113156Y241958D01*
X113109Y241951D01*
X113007Y241933D01*
X112894Y241922D01*
X112770Y241918D01*
X112767D01*
X112759D01*
X112741D01*
X112723D01*
X112698Y241922D01*
X112668D01*
X112599Y241925D01*
X112519Y241936D01*
X112435Y241947D01*
X112348Y241965D01*
X112261Y241987D01*
X112257D01*
X112250Y241991D01*
X112239Y241994D01*
X112224Y241998D01*
X112184Y242013D01*
X112133Y242034D01*
X112075Y242056D01*
X112017Y242085D01*
X111955Y242122D01*
X111897Y242158D01*
X111889Y242162D01*
X111871Y242176D01*
X111846Y242198D01*
X111813Y242227D01*
X111777Y242260D01*
X111740Y242300D01*
X111700Y242340D01*
X111667Y242388D01*
X111664Y242395D01*
X111653Y242409D01*
X111638Y242435D01*
X111620Y242471D01*
X111598Y242515D01*
X111580Y242566D01*
X111558Y242624D01*
X111540Y242690D01*
Y242697D01*
X111536Y242708D01*
X111533Y242719D01*
X111529Y242755D01*
X111522Y242806D01*
X111514Y242864D01*
X111507Y242934D01*
X111504Y243010D01*
X111500Y243094D01*
Y244000D01*
X114019D01*
Y243032D01*
D02*
G37*
G36*
X113396Y241347D02*
X113404Y241339D01*
X113407Y241325D01*
X113418Y241306D01*
X113429Y241285D01*
X113444Y241259D01*
X113480Y241197D01*
X113520Y241124D01*
X113571Y241052D01*
X113629Y240975D01*
X113691Y240899D01*
X113695Y240895D01*
X113698Y240892D01*
X113709Y240880D01*
X113720Y240866D01*
X113757Y240833D01*
X113800Y240790D01*
X113851Y240746D01*
X113910Y240699D01*
X113968Y240658D01*
X114030Y240622D01*
Y240422D01*
X111500D01*
Y240731D01*
X113469D01*
X113466Y240735D01*
X113451Y240753D01*
X113429Y240775D01*
X113404Y240811D01*
X113371Y240851D01*
X113335Y240902D01*
X113294Y240961D01*
X113254Y241026D01*
Y241030D01*
X113251Y241033D01*
X113236Y241055D01*
X113218Y241092D01*
X113196Y241135D01*
X113171Y241186D01*
X113145Y241241D01*
X113120Y241296D01*
X113098Y241350D01*
X113396D01*
Y241347D01*
D02*
G37*
G36*
X36887Y188996D02*
X36923D01*
X36960Y188993D01*
X37007Y188989D01*
X37054Y188982D01*
X37160Y188964D01*
X37276Y188938D01*
X37393Y188902D01*
X37506Y188851D01*
X37509Y188847D01*
X37520Y188844D01*
X37535Y188836D01*
X37553Y188822D01*
X37578Y188807D01*
X37607Y188789D01*
X37673Y188742D01*
X37746Y188680D01*
X37819Y188607D01*
X37891Y188523D01*
X37953Y188425D01*
X37957Y188421D01*
X37961Y188410D01*
X37968Y188396D01*
X37979Y188378D01*
X37990Y188348D01*
X38001Y188319D01*
X38015Y188283D01*
X38030Y188243D01*
X38044Y188199D01*
X38059Y188152D01*
X38081Y188050D01*
X38099Y187934D01*
X38106Y187813D01*
Y187777D01*
X38103Y187751D01*
X38099Y187719D01*
X38095Y187679D01*
X38092Y187639D01*
X38081Y187591D01*
X38059Y187493D01*
X38026Y187384D01*
X38004Y187329D01*
X37979Y187278D01*
X37946Y187227D01*
X37913Y187176D01*
X37910Y187173D01*
X37906Y187165D01*
X37895Y187151D01*
X37877Y187133D01*
X37859Y187115D01*
X37833Y187089D01*
X37804Y187064D01*
X37775Y187034D01*
X37738Y187005D01*
X37695Y186976D01*
X37651Y186943D01*
X37604Y186914D01*
X37549Y186889D01*
X37495Y186860D01*
X37436Y186838D01*
X37371Y186816D01*
X37295Y187144D01*
X37298D01*
X37305Y187147D01*
X37320Y187154D01*
X37338Y187162D01*
X37360Y187169D01*
X37389Y187180D01*
X37447Y187209D01*
X37513Y187246D01*
X37578Y187289D01*
X37640Y187344D01*
X37695Y187402D01*
X37702Y187409D01*
X37717Y187431D01*
X37735Y187468D01*
X37760Y187515D01*
X37782Y187577D01*
X37804Y187646D01*
X37819Y187730D01*
X37822Y187821D01*
Y187850D01*
X37819Y187868D01*
Y187893D01*
X37815Y187923D01*
X37804Y187992D01*
X37789Y188068D01*
X37764Y188148D01*
X37728Y188232D01*
X37680Y188308D01*
Y188312D01*
X37673Y188316D01*
X37655Y188341D01*
X37626Y188374D01*
X37582Y188414D01*
X37527Y188461D01*
X37466Y188505D01*
X37389Y188545D01*
X37305Y188581D01*
X37302D01*
X37295Y188585D01*
X37284Y188589D01*
X37265Y188592D01*
X37244Y188600D01*
X37218Y188607D01*
X37156Y188618D01*
X37083Y188632D01*
X37003Y188647D01*
X36916Y188654D01*
X36821Y188658D01*
X36818D01*
X36807D01*
X36788D01*
X36767D01*
X36741Y188654D01*
X36708D01*
X36672Y188651D01*
X36632Y188647D01*
X36545Y188636D01*
X36450Y188618D01*
X36355Y188596D01*
X36261Y188567D01*
X36257D01*
X36250Y188563D01*
X36239Y188556D01*
X36221Y188549D01*
X36177Y188527D01*
X36126Y188494D01*
X36068Y188454D01*
X36006Y188403D01*
X35951Y188345D01*
X35900Y188276D01*
Y188272D01*
X35897Y188265D01*
X35889Y188254D01*
X35882Y188239D01*
X35875Y188221D01*
X35864Y188199D01*
X35842Y188148D01*
X35820Y188083D01*
X35802Y188010D01*
X35787Y187930D01*
X35784Y187846D01*
Y187821D01*
X35787Y187799D01*
Y187773D01*
X35791Y187748D01*
X35806Y187682D01*
X35824Y187606D01*
X35853Y187530D01*
X35893Y187449D01*
X35915Y187409D01*
X35944Y187373D01*
X35948Y187369D01*
X35951Y187366D01*
X35962Y187355D01*
X35973Y187340D01*
X35991Y187326D01*
X36013Y187307D01*
X36035Y187286D01*
X36064Y187267D01*
X36097Y187246D01*
X36133Y187220D01*
X36170Y187198D01*
X36213Y187176D01*
X36261Y187158D01*
X36312Y187140D01*
X36366Y187122D01*
X36424Y187107D01*
X36341Y186772D01*
X36337D01*
X36323Y186776D01*
X36301Y186783D01*
X36272Y186794D01*
X36239Y186805D01*
X36199Y186820D01*
X36155Y186838D01*
X36108Y186860D01*
X36006Y186911D01*
X35904Y186976D01*
X35853Y187016D01*
X35802Y187056D01*
X35758Y187100D01*
X35715Y187151D01*
X35711Y187154D01*
X35704Y187162D01*
X35697Y187180D01*
X35682Y187198D01*
X35664Y187227D01*
X35645Y187257D01*
X35627Y187296D01*
X35609Y187337D01*
X35587Y187384D01*
X35569Y187435D01*
X35551Y187489D01*
X35533Y187548D01*
X35518Y187610D01*
X35511Y187675D01*
X35504Y187744D01*
X35500Y187817D01*
Y187857D01*
X35504Y187886D01*
Y187919D01*
X35507Y187959D01*
X35515Y188003D01*
X35522Y188054D01*
X35540Y188159D01*
X35569Y188268D01*
X35609Y188378D01*
X35635Y188428D01*
X35664Y188479D01*
X35667Y188483D01*
X35671Y188490D01*
X35682Y188505D01*
X35697Y188520D01*
X35711Y188541D01*
X35733Y188567D01*
X35758Y188596D01*
X35787Y188625D01*
X35820Y188654D01*
X35853Y188687D01*
X35937Y188752D01*
X36035Y188814D01*
X36144Y188869D01*
X36148D01*
X36159Y188876D01*
X36177Y188880D01*
X36199Y188891D01*
X36228Y188898D01*
X36264Y188909D01*
X36304Y188924D01*
X36348Y188935D01*
X36395Y188945D01*
X36450Y188960D01*
X36563Y188978D01*
X36690Y188993D01*
X36821Y189000D01*
X36825D01*
X36840D01*
X36861D01*
X36887Y188996D01*
D02*
G37*
G36*
X37440Y186248D02*
X37447Y186241D01*
X37451Y186226D01*
X37462Y186208D01*
X37473Y186186D01*
X37487Y186161D01*
X37524Y186099D01*
X37564Y186026D01*
X37615Y185953D01*
X37673Y185877D01*
X37735Y185801D01*
X37738Y185797D01*
X37742Y185793D01*
X37753Y185782D01*
X37764Y185768D01*
X37800Y185735D01*
X37844Y185691D01*
X37895Y185648D01*
X37953Y185600D01*
X38012Y185560D01*
X38073Y185524D01*
Y185324D01*
X35544D01*
Y185633D01*
X37513D01*
X37509Y185637D01*
X37495Y185655D01*
X37473Y185677D01*
X37447Y185713D01*
X37415Y185753D01*
X37378Y185804D01*
X37338Y185862D01*
X37298Y185928D01*
Y185932D01*
X37295Y185935D01*
X37280Y185957D01*
X37262Y185993D01*
X37240Y186037D01*
X37214Y186088D01*
X37189Y186143D01*
X37163Y186197D01*
X37142Y186252D01*
X37440D01*
Y186248D01*
D02*
G37*
G36*
X70052Y31103D02*
X70077D01*
X70147Y31095D01*
X70223Y31084D01*
X70303Y31066D01*
X70390Y31044D01*
X70470Y31015D01*
X70474D01*
X70481Y31012D01*
X70492Y31004D01*
X70507Y30997D01*
X70543Y30979D01*
X70591Y30946D01*
X70645Y30910D01*
X70700Y30862D01*
X70751Y30808D01*
X70798Y30746D01*
Y30742D01*
X70802Y30738D01*
X70809Y30728D01*
X70816Y30717D01*
X70834Y30680D01*
X70856Y30633D01*
X70882Y30575D01*
X70900Y30506D01*
X70918Y30433D01*
X70925Y30353D01*
X70605Y30327D01*
Y30331D01*
Y30338D01*
X70601Y30349D01*
X70598Y30367D01*
X70587Y30407D01*
X70572Y30462D01*
X70551Y30520D01*
X70518Y30578D01*
X70478Y30633D01*
X70427Y30684D01*
X70420Y30688D01*
X70401Y30702D01*
X70365Y30724D01*
X70318Y30746D01*
X70256Y30768D01*
X70183Y30790D01*
X70092Y30804D01*
X69990Y30808D01*
X69939D01*
X69917Y30804D01*
X69888Y30800D01*
X69823Y30793D01*
X69750Y30779D01*
X69677Y30760D01*
X69608Y30731D01*
X69579Y30713D01*
X69550Y30695D01*
X69542Y30691D01*
X69528Y30677D01*
X69506Y30651D01*
X69484Y30622D01*
X69459Y30582D01*
X69437Y30538D01*
X69422Y30487D01*
X69415Y30429D01*
Y30422D01*
Y30407D01*
X69419Y30382D01*
X69426Y30353D01*
X69437Y30316D01*
X69455Y30280D01*
X69477Y30244D01*
X69510Y30207D01*
X69513Y30204D01*
X69531Y30193D01*
X69546Y30182D01*
X69560Y30174D01*
X69582Y30163D01*
X69608Y30149D01*
X69641Y30138D01*
X69677Y30123D01*
X69717Y30109D01*
X69764Y30091D01*
X69815Y30076D01*
X69874Y30058D01*
X69939Y30043D01*
X70012Y30025D01*
X70016D01*
X70030Y30022D01*
X70052Y30018D01*
X70077Y30011D01*
X70110Y30003D01*
X70150Y29992D01*
X70190Y29981D01*
X70234Y29970D01*
X70328Y29945D01*
X70420Y29919D01*
X70463Y29905D01*
X70503Y29890D01*
X70540Y29880D01*
X70569Y29865D01*
X70572D01*
X70580Y29861D01*
X70591Y29854D01*
X70605Y29847D01*
X70645Y29825D01*
X70693Y29796D01*
X70747Y29756D01*
X70802Y29712D01*
X70853Y29661D01*
X70896Y29607D01*
X70900Y29599D01*
X70915Y29581D01*
X70929Y29548D01*
X70951Y29505D01*
X70969Y29454D01*
X70987Y29392D01*
X70998Y29323D01*
X71002Y29250D01*
Y29246D01*
Y29243D01*
Y29232D01*
Y29217D01*
X70995Y29177D01*
X70987Y29126D01*
X70973Y29068D01*
X70955Y29006D01*
X70925Y28940D01*
X70885Y28871D01*
Y28868D01*
X70882Y28864D01*
X70864Y28842D01*
X70838Y28809D01*
X70802Y28773D01*
X70754Y28729D01*
X70696Y28682D01*
X70631Y28638D01*
X70554Y28598D01*
X70551D01*
X70543Y28595D01*
X70532Y28591D01*
X70518Y28584D01*
X70496Y28576D01*
X70470Y28565D01*
X70412Y28551D01*
X70343Y28533D01*
X70259Y28515D01*
X70168Y28504D01*
X70070Y28500D01*
X70012D01*
X69983Y28504D01*
X69950D01*
X69914Y28507D01*
X69870Y28511D01*
X69779Y28525D01*
X69684Y28540D01*
X69590Y28565D01*
X69499Y28598D01*
X69495D01*
X69488Y28602D01*
X69477Y28609D01*
X69462Y28616D01*
X69419Y28638D01*
X69368Y28671D01*
X69309Y28715D01*
X69248Y28766D01*
X69189Y28828D01*
X69135Y28897D01*
Y28900D01*
X69127Y28908D01*
X69124Y28918D01*
X69113Y28933D01*
X69105Y28951D01*
X69095Y28973D01*
X69069Y29028D01*
X69044Y29097D01*
X69022Y29173D01*
X69007Y29261D01*
X69000Y29352D01*
X69313Y29381D01*
Y29377D01*
Y29374D01*
X69317Y29363D01*
Y29348D01*
X69324Y29315D01*
X69335Y29268D01*
X69349Y29221D01*
X69364Y29166D01*
X69389Y29115D01*
X69415Y29068D01*
X69419Y29064D01*
X69429Y29050D01*
X69448Y29024D01*
X69477Y28999D01*
X69513Y28966D01*
X69553Y28933D01*
X69608Y28900D01*
X69666Y28871D01*
X69670D01*
X69673Y28868D01*
X69684Y28864D01*
X69695Y28860D01*
X69732Y28849D01*
X69779Y28835D01*
X69837Y28820D01*
X69903Y28809D01*
X69976Y28802D01*
X70056Y28798D01*
X70088D01*
X70125Y28802D01*
X70168Y28806D01*
X70219Y28813D01*
X70278Y28820D01*
X70336Y28835D01*
X70390Y28853D01*
X70398Y28857D01*
X70416Y28864D01*
X70441Y28879D01*
X70474Y28893D01*
X70507Y28918D01*
X70543Y28944D01*
X70580Y28973D01*
X70609Y29010D01*
X70613Y29013D01*
X70620Y29028D01*
X70631Y29046D01*
X70645Y29075D01*
X70660Y29104D01*
X70671Y29141D01*
X70678Y29181D01*
X70682Y29224D01*
Y29228D01*
Y29246D01*
X70678Y29268D01*
X70674Y29297D01*
X70663Y29326D01*
X70653Y29363D01*
X70634Y29399D01*
X70609Y29432D01*
X70605Y29435D01*
X70594Y29446D01*
X70580Y29461D01*
X70554Y29483D01*
X70525Y29505D01*
X70485Y29530D01*
X70438Y29555D01*
X70383Y29577D01*
X70380Y29581D01*
X70361Y29585D01*
X70332Y29596D01*
X70314Y29599D01*
X70288Y29607D01*
X70263Y29617D01*
X70230Y29625D01*
X70194Y29636D01*
X70150Y29647D01*
X70107Y29658D01*
X70056Y29672D01*
X69997Y29687D01*
X69935Y29701D01*
X69932D01*
X69921Y29705D01*
X69903Y29708D01*
X69881Y29716D01*
X69852Y29723D01*
X69819Y29730D01*
X69746Y29752D01*
X69666Y29778D01*
X69582Y29803D01*
X69510Y29829D01*
X69477Y29843D01*
X69448Y29858D01*
X69444D01*
X69440Y29861D01*
X69419Y29876D01*
X69386Y29894D01*
X69349Y29923D01*
X69306Y29956D01*
X69262Y29996D01*
X69218Y30043D01*
X69182Y30094D01*
X69178Y30101D01*
X69167Y30120D01*
X69153Y30149D01*
X69138Y30185D01*
X69124Y30233D01*
X69109Y30287D01*
X69098Y30345D01*
X69095Y30407D01*
Y30411D01*
Y30415D01*
Y30426D01*
Y30440D01*
X69102Y30476D01*
X69109Y30524D01*
X69120Y30578D01*
X69138Y30640D01*
X69164Y30702D01*
X69200Y30764D01*
Y30768D01*
X69204Y30771D01*
X69222Y30793D01*
X69248Y30822D01*
X69280Y30859D01*
X69324Y30899D01*
X69379Y30942D01*
X69444Y30982D01*
X69517Y31019D01*
X69520D01*
X69528Y31023D01*
X69539Y31026D01*
X69553Y31033D01*
X69571Y31041D01*
X69597Y31048D01*
X69652Y31062D01*
X69721Y31077D01*
X69801Y31092D01*
X69885Y31103D01*
X69979Y31106D01*
X70026D01*
X70052Y31103D01*
D02*
G37*
G36*
X73779Y28544D02*
X73452D01*
X72924Y30462D01*
Y30466D01*
X72920Y30473D01*
X72917Y30484D01*
X72913Y30502D01*
X72902Y30542D01*
X72891Y30589D01*
X72877Y30640D01*
X72862Y30688D01*
X72851Y30728D01*
X72847Y30746D01*
X72844Y30757D01*
Y30753D01*
X72840Y30749D01*
X72837Y30728D01*
X72829Y30695D01*
X72818Y30655D01*
X72807Y30611D01*
X72793Y30560D01*
X72782Y30509D01*
X72767Y30462D01*
X72236Y28544D01*
X71886D01*
X71228Y31062D01*
X71573D01*
X71948Y29410D01*
Y29406D01*
X71952Y29399D01*
X71956Y29384D01*
X71959Y29366D01*
X71963Y29341D01*
X71970Y29315D01*
X71978Y29283D01*
X71985Y29246D01*
X72003Y29170D01*
X72021Y29082D01*
X72039Y28988D01*
X72058Y28893D01*
Y28897D01*
X72061Y28911D01*
X72069Y28929D01*
X72072Y28959D01*
X72079Y28988D01*
X72090Y29024D01*
X72109Y29104D01*
X72130Y29184D01*
X72138Y29224D01*
X72149Y29261D01*
X72156Y29294D01*
X72163Y29323D01*
X72170Y29344D01*
X72174Y29359D01*
X72651Y31062D01*
X73055D01*
X73412Y29785D01*
Y29781D01*
X73419Y29763D01*
X73426Y29737D01*
X73434Y29705D01*
X73444Y29661D01*
X73459Y29614D01*
X73474Y29559D01*
X73488Y29497D01*
X73506Y29428D01*
X73521Y29359D01*
X73554Y29210D01*
X73586Y29053D01*
X73612Y28893D01*
Y28897D01*
X73615Y28904D01*
Y28918D01*
X73623Y28937D01*
X73626Y28959D01*
X73634Y28984D01*
X73637Y29017D01*
X73648Y29053D01*
X73666Y29133D01*
X73688Y29228D01*
X73710Y29330D01*
X73739Y29443D01*
X74132Y31062D01*
X74471D01*
X73779Y28544D01*
D02*
G37*
G36*
X75821D02*
X75512D01*
Y30513D01*
X75508Y30509D01*
X75490Y30495D01*
X75468Y30473D01*
X75432Y30447D01*
X75392Y30415D01*
X75341Y30378D01*
X75283Y30338D01*
X75217Y30298D01*
X75213D01*
X75210Y30294D01*
X75188Y30280D01*
X75151Y30262D01*
X75108Y30240D01*
X75057Y30214D01*
X75002Y30189D01*
X74948Y30163D01*
X74893Y30142D01*
Y30440D01*
X74897D01*
X74904Y30447D01*
X74919Y30451D01*
X74937Y30462D01*
X74959Y30473D01*
X74984Y30487D01*
X75046Y30524D01*
X75119Y30564D01*
X75192Y30615D01*
X75268Y30673D01*
X75345Y30735D01*
X75348Y30738D01*
X75352Y30742D01*
X75363Y30753D01*
X75377Y30764D01*
X75410Y30800D01*
X75454Y30844D01*
X75497Y30895D01*
X75545Y30953D01*
X75585Y31012D01*
X75621Y31073D01*
X75821D01*
Y28544D01*
D02*
G37*
G36*
X295052Y31103D02*
X295077D01*
X295146Y31095D01*
X295223Y31084D01*
X295303Y31066D01*
X295390Y31044D01*
X295470Y31015D01*
X295474D01*
X295481Y31012D01*
X295492Y31004D01*
X295507Y30997D01*
X295543Y30979D01*
X295591Y30946D01*
X295645Y30910D01*
X295700Y30862D01*
X295751Y30808D01*
X295798Y30746D01*
Y30742D01*
X295802Y30738D01*
X295809Y30728D01*
X295816Y30717D01*
X295834Y30680D01*
X295856Y30633D01*
X295882Y30575D01*
X295900Y30506D01*
X295918Y30433D01*
X295925Y30353D01*
X295605Y30327D01*
Y30331D01*
Y30338D01*
X295602Y30349D01*
X295598Y30367D01*
X295587Y30407D01*
X295572Y30462D01*
X295551Y30520D01*
X295518Y30578D01*
X295478Y30633D01*
X295427Y30684D01*
X295420Y30688D01*
X295401Y30702D01*
X295365Y30724D01*
X295318Y30746D01*
X295256Y30768D01*
X295183Y30790D01*
X295092Y30804D01*
X294990Y30808D01*
X294939D01*
X294917Y30804D01*
X294888Y30800D01*
X294823Y30793D01*
X294750Y30779D01*
X294677Y30760D01*
X294608Y30731D01*
X294579Y30713D01*
X294550Y30695D01*
X294542Y30691D01*
X294528Y30677D01*
X294506Y30651D01*
X294484Y30622D01*
X294459Y30582D01*
X294437Y30538D01*
X294422Y30487D01*
X294415Y30429D01*
Y30422D01*
Y30407D01*
X294419Y30382D01*
X294426Y30353D01*
X294437Y30316D01*
X294455Y30280D01*
X294477Y30244D01*
X294510Y30207D01*
X294513Y30204D01*
X294531Y30193D01*
X294546Y30182D01*
X294561Y30174D01*
X294582Y30163D01*
X294608Y30149D01*
X294641Y30138D01*
X294677Y30123D01*
X294717Y30109D01*
X294764Y30091D01*
X294815Y30076D01*
X294873Y30058D01*
X294939Y30043D01*
X295012Y30025D01*
X295016D01*
X295030Y30022D01*
X295052Y30018D01*
X295077Y30011D01*
X295110Y30003D01*
X295150Y29992D01*
X295190Y29981D01*
X295234Y29970D01*
X295328Y29945D01*
X295420Y29919D01*
X295463Y29905D01*
X295503Y29890D01*
X295540Y29880D01*
X295569Y29865D01*
X295572D01*
X295580Y29861D01*
X295591Y29854D01*
X295605Y29847D01*
X295645Y29825D01*
X295692Y29796D01*
X295747Y29756D01*
X295802Y29712D01*
X295853Y29661D01*
X295896Y29607D01*
X295900Y29599D01*
X295915Y29581D01*
X295929Y29548D01*
X295951Y29505D01*
X295969Y29454D01*
X295987Y29392D01*
X295998Y29323D01*
X296002Y29250D01*
Y29246D01*
Y29243D01*
Y29232D01*
Y29217D01*
X295995Y29177D01*
X295987Y29126D01*
X295973Y29068D01*
X295955Y29006D01*
X295925Y28940D01*
X295885Y28871D01*
Y28868D01*
X295882Y28864D01*
X295864Y28842D01*
X295838Y28809D01*
X295802Y28773D01*
X295754Y28729D01*
X295696Y28682D01*
X295631Y28638D01*
X295554Y28598D01*
X295551D01*
X295543Y28595D01*
X295532Y28591D01*
X295518Y28584D01*
X295496Y28576D01*
X295470Y28565D01*
X295412Y28551D01*
X295343Y28533D01*
X295259Y28515D01*
X295168Y28504D01*
X295070Y28500D01*
X295012D01*
X294983Y28504D01*
X294950D01*
X294914Y28507D01*
X294870Y28511D01*
X294779Y28525D01*
X294684Y28540D01*
X294590Y28565D01*
X294499Y28598D01*
X294495D01*
X294488Y28602D01*
X294477Y28609D01*
X294462Y28616D01*
X294419Y28638D01*
X294368Y28671D01*
X294309Y28715D01*
X294248Y28766D01*
X294189Y28828D01*
X294135Y28897D01*
Y28900D01*
X294127Y28908D01*
X294124Y28918D01*
X294113Y28933D01*
X294106Y28951D01*
X294095Y28973D01*
X294069Y29028D01*
X294044Y29097D01*
X294022Y29173D01*
X294007Y29261D01*
X294000Y29352D01*
X294313Y29381D01*
Y29377D01*
Y29374D01*
X294317Y29363D01*
Y29348D01*
X294324Y29315D01*
X294335Y29268D01*
X294349Y29221D01*
X294364Y29166D01*
X294389Y29115D01*
X294415Y29068D01*
X294419Y29064D01*
X294429Y29050D01*
X294448Y29024D01*
X294477Y28999D01*
X294513Y28966D01*
X294553Y28933D01*
X294608Y28900D01*
X294666Y28871D01*
X294670D01*
X294673Y28868D01*
X294684Y28864D01*
X294695Y28860D01*
X294732Y28849D01*
X294779Y28835D01*
X294837Y28820D01*
X294903Y28809D01*
X294975Y28802D01*
X295056Y28798D01*
X295088D01*
X295125Y28802D01*
X295168Y28806D01*
X295219Y28813D01*
X295278Y28820D01*
X295336Y28835D01*
X295390Y28853D01*
X295398Y28857D01*
X295416Y28864D01*
X295441Y28879D01*
X295474Y28893D01*
X295507Y28918D01*
X295543Y28944D01*
X295580Y28973D01*
X295609Y29010D01*
X295613Y29013D01*
X295620Y29028D01*
X295631Y29046D01*
X295645Y29075D01*
X295660Y29104D01*
X295671Y29141D01*
X295678Y29181D01*
X295682Y29224D01*
Y29228D01*
Y29246D01*
X295678Y29268D01*
X295674Y29297D01*
X295663Y29326D01*
X295653Y29363D01*
X295634Y29399D01*
X295609Y29432D01*
X295605Y29435D01*
X295594Y29446D01*
X295580Y29461D01*
X295554Y29483D01*
X295525Y29505D01*
X295485Y29530D01*
X295438Y29555D01*
X295383Y29577D01*
X295379Y29581D01*
X295361Y29585D01*
X295332Y29596D01*
X295314Y29599D01*
X295288Y29607D01*
X295263Y29617D01*
X295230Y29625D01*
X295194Y29636D01*
X295150Y29647D01*
X295107Y29658D01*
X295056Y29672D01*
X294997Y29687D01*
X294935Y29701D01*
X294932D01*
X294921Y29705D01*
X294903Y29708D01*
X294881Y29716D01*
X294852Y29723D01*
X294819Y29730D01*
X294746Y29752D01*
X294666Y29778D01*
X294582Y29803D01*
X294510Y29829D01*
X294477Y29843D01*
X294448Y29858D01*
X294444D01*
X294440Y29861D01*
X294419Y29876D01*
X294386Y29894D01*
X294349Y29923D01*
X294306Y29956D01*
X294262Y29996D01*
X294218Y30043D01*
X294182Y30094D01*
X294178Y30101D01*
X294167Y30120D01*
X294153Y30149D01*
X294138Y30185D01*
X294124Y30233D01*
X294109Y30287D01*
X294098Y30345D01*
X294095Y30407D01*
Y30411D01*
Y30415D01*
Y30426D01*
Y30440D01*
X294102Y30476D01*
X294109Y30524D01*
X294120Y30578D01*
X294138Y30640D01*
X294164Y30702D01*
X294200Y30764D01*
Y30768D01*
X294204Y30771D01*
X294222Y30793D01*
X294248Y30822D01*
X294280Y30859D01*
X294324Y30899D01*
X294378Y30942D01*
X294444Y30982D01*
X294517Y31019D01*
X294520D01*
X294528Y31023D01*
X294539Y31026D01*
X294553Y31033D01*
X294571Y31041D01*
X294597Y31048D01*
X294652Y31062D01*
X294721Y31077D01*
X294801Y31092D01*
X294884Y31103D01*
X294979Y31106D01*
X295026D01*
X295052Y31103D01*
D02*
G37*
G36*
X298779Y28544D02*
X298452D01*
X297924Y30462D01*
Y30466D01*
X297920Y30473D01*
X297917Y30484D01*
X297913Y30502D01*
X297902Y30542D01*
X297891Y30589D01*
X297877Y30640D01*
X297862Y30688D01*
X297851Y30728D01*
X297847Y30746D01*
X297844Y30757D01*
Y30753D01*
X297840Y30749D01*
X297836Y30728D01*
X297829Y30695D01*
X297818Y30655D01*
X297807Y30611D01*
X297793Y30560D01*
X297782Y30509D01*
X297767Y30462D01*
X297236Y28544D01*
X296886D01*
X296228Y31062D01*
X296573D01*
X296948Y29410D01*
Y29406D01*
X296952Y29399D01*
X296956Y29384D01*
X296959Y29366D01*
X296963Y29341D01*
X296970Y29315D01*
X296977Y29283D01*
X296985Y29246D01*
X297003Y29170D01*
X297021Y29082D01*
X297039Y28988D01*
X297058Y28893D01*
Y28897D01*
X297061Y28911D01*
X297069Y28929D01*
X297072Y28959D01*
X297079Y28988D01*
X297090Y29024D01*
X297109Y29104D01*
X297130Y29184D01*
X297138Y29224D01*
X297148Y29261D01*
X297156Y29294D01*
X297163Y29323D01*
X297170Y29344D01*
X297174Y29359D01*
X297651Y31062D01*
X298055D01*
X298412Y29785D01*
Y29781D01*
X298419Y29763D01*
X298426Y29737D01*
X298433Y29705D01*
X298444Y29661D01*
X298459Y29614D01*
X298474Y29559D01*
X298488Y29497D01*
X298506Y29428D01*
X298521Y29359D01*
X298554Y29210D01*
X298586Y29053D01*
X298612Y28893D01*
Y28897D01*
X298616Y28904D01*
Y28918D01*
X298623Y28937D01*
X298626Y28959D01*
X298634Y28984D01*
X298637Y29017D01*
X298648Y29053D01*
X298666Y29133D01*
X298688Y29228D01*
X298710Y29330D01*
X298739Y29443D01*
X299132Y31062D01*
X299471D01*
X298779Y28544D01*
D02*
G37*
G36*
X300956Y29432D02*
X301298D01*
Y29148D01*
X300956D01*
Y28544D01*
X300647D01*
Y29148D01*
X299551D01*
Y29432D01*
X300705Y31062D01*
X300956D01*
Y29432D01*
D02*
G37*
G36*
X220052Y31103D02*
X220077D01*
X220146Y31095D01*
X220223Y31084D01*
X220303Y31066D01*
X220390Y31044D01*
X220470Y31015D01*
X220474D01*
X220481Y31012D01*
X220492Y31004D01*
X220507Y30997D01*
X220543Y30979D01*
X220591Y30946D01*
X220645Y30910D01*
X220700Y30862D01*
X220751Y30808D01*
X220798Y30746D01*
Y30742D01*
X220802Y30738D01*
X220809Y30728D01*
X220816Y30717D01*
X220834Y30680D01*
X220856Y30633D01*
X220882Y30575D01*
X220900Y30506D01*
X220918Y30433D01*
X220925Y30353D01*
X220605Y30327D01*
Y30331D01*
Y30338D01*
X220602Y30349D01*
X220598Y30367D01*
X220587Y30407D01*
X220572Y30462D01*
X220551Y30520D01*
X220518Y30578D01*
X220478Y30633D01*
X220427Y30684D01*
X220420Y30688D01*
X220401Y30702D01*
X220365Y30724D01*
X220318Y30746D01*
X220256Y30768D01*
X220183Y30790D01*
X220092Y30804D01*
X219990Y30808D01*
X219939D01*
X219917Y30804D01*
X219888Y30800D01*
X219823Y30793D01*
X219750Y30779D01*
X219677Y30760D01*
X219608Y30731D01*
X219579Y30713D01*
X219550Y30695D01*
X219542Y30691D01*
X219528Y30677D01*
X219506Y30651D01*
X219484Y30622D01*
X219459Y30582D01*
X219437Y30538D01*
X219422Y30487D01*
X219415Y30429D01*
Y30422D01*
Y30407D01*
X219419Y30382D01*
X219426Y30353D01*
X219437Y30316D01*
X219455Y30280D01*
X219477Y30244D01*
X219510Y30207D01*
X219513Y30204D01*
X219531Y30193D01*
X219546Y30182D01*
X219561Y30174D01*
X219582Y30163D01*
X219608Y30149D01*
X219641Y30138D01*
X219677Y30123D01*
X219717Y30109D01*
X219764Y30091D01*
X219815Y30076D01*
X219873Y30058D01*
X219939Y30043D01*
X220012Y30025D01*
X220016D01*
X220030Y30022D01*
X220052Y30018D01*
X220077Y30011D01*
X220110Y30003D01*
X220150Y29992D01*
X220190Y29981D01*
X220234Y29970D01*
X220328Y29945D01*
X220420Y29919D01*
X220463Y29905D01*
X220503Y29890D01*
X220540Y29880D01*
X220569Y29865D01*
X220572D01*
X220580Y29861D01*
X220591Y29854D01*
X220605Y29847D01*
X220645Y29825D01*
X220692Y29796D01*
X220747Y29756D01*
X220802Y29712D01*
X220853Y29661D01*
X220896Y29607D01*
X220900Y29599D01*
X220915Y29581D01*
X220929Y29548D01*
X220951Y29505D01*
X220969Y29454D01*
X220987Y29392D01*
X220998Y29323D01*
X221002Y29250D01*
Y29246D01*
Y29243D01*
Y29232D01*
Y29217D01*
X220995Y29177D01*
X220987Y29126D01*
X220973Y29068D01*
X220955Y29006D01*
X220925Y28940D01*
X220885Y28871D01*
Y28868D01*
X220882Y28864D01*
X220864Y28842D01*
X220838Y28809D01*
X220802Y28773D01*
X220754Y28729D01*
X220696Y28682D01*
X220631Y28638D01*
X220554Y28598D01*
X220551D01*
X220543Y28595D01*
X220532Y28591D01*
X220518Y28584D01*
X220496Y28576D01*
X220470Y28565D01*
X220412Y28551D01*
X220343Y28533D01*
X220259Y28515D01*
X220168Y28504D01*
X220070Y28500D01*
X220012D01*
X219983Y28504D01*
X219950D01*
X219914Y28507D01*
X219870Y28511D01*
X219779Y28525D01*
X219684Y28540D01*
X219590Y28565D01*
X219499Y28598D01*
X219495D01*
X219488Y28602D01*
X219477Y28609D01*
X219462Y28616D01*
X219419Y28638D01*
X219368Y28671D01*
X219309Y28715D01*
X219248Y28766D01*
X219189Y28828D01*
X219135Y28897D01*
Y28900D01*
X219127Y28908D01*
X219124Y28918D01*
X219113Y28933D01*
X219106Y28951D01*
X219095Y28973D01*
X219069Y29028D01*
X219044Y29097D01*
X219022Y29173D01*
X219007Y29261D01*
X219000Y29352D01*
X219313Y29381D01*
Y29377D01*
Y29374D01*
X219317Y29363D01*
Y29348D01*
X219324Y29315D01*
X219335Y29268D01*
X219349Y29221D01*
X219364Y29166D01*
X219389Y29115D01*
X219415Y29068D01*
X219419Y29064D01*
X219429Y29050D01*
X219448Y29024D01*
X219477Y28999D01*
X219513Y28966D01*
X219553Y28933D01*
X219608Y28900D01*
X219666Y28871D01*
X219670D01*
X219673Y28868D01*
X219684Y28864D01*
X219695Y28860D01*
X219732Y28849D01*
X219779Y28835D01*
X219837Y28820D01*
X219903Y28809D01*
X219975Y28802D01*
X220056Y28798D01*
X220088D01*
X220125Y28802D01*
X220168Y28806D01*
X220219Y28813D01*
X220278Y28820D01*
X220336Y28835D01*
X220390Y28853D01*
X220398Y28857D01*
X220416Y28864D01*
X220441Y28879D01*
X220474Y28893D01*
X220507Y28918D01*
X220543Y28944D01*
X220580Y28973D01*
X220609Y29010D01*
X220613Y29013D01*
X220620Y29028D01*
X220631Y29046D01*
X220645Y29075D01*
X220660Y29104D01*
X220671Y29141D01*
X220678Y29181D01*
X220682Y29224D01*
Y29228D01*
Y29246D01*
X220678Y29268D01*
X220674Y29297D01*
X220663Y29326D01*
X220653Y29363D01*
X220634Y29399D01*
X220609Y29432D01*
X220605Y29435D01*
X220594Y29446D01*
X220580Y29461D01*
X220554Y29483D01*
X220525Y29505D01*
X220485Y29530D01*
X220438Y29555D01*
X220383Y29577D01*
X220379Y29581D01*
X220361Y29585D01*
X220332Y29596D01*
X220314Y29599D01*
X220288Y29607D01*
X220263Y29617D01*
X220230Y29625D01*
X220194Y29636D01*
X220150Y29647D01*
X220107Y29658D01*
X220056Y29672D01*
X219997Y29687D01*
X219935Y29701D01*
X219932D01*
X219921Y29705D01*
X219903Y29708D01*
X219881Y29716D01*
X219852Y29723D01*
X219819Y29730D01*
X219746Y29752D01*
X219666Y29778D01*
X219582Y29803D01*
X219510Y29829D01*
X219477Y29843D01*
X219448Y29858D01*
X219444D01*
X219440Y29861D01*
X219419Y29876D01*
X219386Y29894D01*
X219349Y29923D01*
X219306Y29956D01*
X219262Y29996D01*
X219218Y30043D01*
X219182Y30094D01*
X219178Y30101D01*
X219167Y30120D01*
X219153Y30149D01*
X219138Y30185D01*
X219124Y30233D01*
X219109Y30287D01*
X219098Y30345D01*
X219095Y30407D01*
Y30411D01*
Y30415D01*
Y30426D01*
Y30440D01*
X219102Y30476D01*
X219109Y30524D01*
X219120Y30578D01*
X219138Y30640D01*
X219164Y30702D01*
X219200Y30764D01*
Y30768D01*
X219204Y30771D01*
X219222Y30793D01*
X219248Y30822D01*
X219280Y30859D01*
X219324Y30899D01*
X219378Y30942D01*
X219444Y30982D01*
X219517Y31019D01*
X219520D01*
X219528Y31023D01*
X219539Y31026D01*
X219553Y31033D01*
X219571Y31041D01*
X219597Y31048D01*
X219652Y31062D01*
X219721Y31077D01*
X219801Y31092D01*
X219884Y31103D01*
X219979Y31106D01*
X220026D01*
X220052Y31103D01*
D02*
G37*
G36*
X225523Y31070D02*
X225570Y31062D01*
X225628Y31052D01*
X225694Y31033D01*
X225759Y31012D01*
X225825Y30982D01*
X225829D01*
X225832Y30979D01*
X225854Y30968D01*
X225887Y30946D01*
X225923Y30920D01*
X225967Y30884D01*
X226011Y30844D01*
X226054Y30797D01*
X226091Y30742D01*
X226094Y30735D01*
X226105Y30717D01*
X226120Y30684D01*
X226138Y30644D01*
X226156Y30597D01*
X226171Y30542D01*
X226182Y30480D01*
X226185Y30418D01*
Y30411D01*
Y30389D01*
X226182Y30360D01*
X226174Y30320D01*
X226164Y30273D01*
X226145Y30222D01*
X226123Y30171D01*
X226094Y30120D01*
X226091Y30112D01*
X226080Y30098D01*
X226058Y30072D01*
X226029Y30043D01*
X225992Y30011D01*
X225949Y29974D01*
X225898Y29941D01*
X225836Y29909D01*
X225839D01*
X225847Y29905D01*
X225858Y29901D01*
X225872Y29898D01*
X225912Y29883D01*
X225963Y29861D01*
X226022Y29832D01*
X226080Y29796D01*
X226134Y29748D01*
X226185Y29694D01*
X226189Y29687D01*
X226203Y29665D01*
X226225Y29628D01*
X226247Y29581D01*
X226269Y29523D01*
X226291Y29454D01*
X226305Y29374D01*
X226309Y29286D01*
Y29283D01*
Y29272D01*
Y29253D01*
X226305Y29232D01*
X226302Y29202D01*
X226294Y29170D01*
X226287Y29133D01*
X226280Y29093D01*
X226251Y29006D01*
X226229Y28959D01*
X226207Y28915D01*
X226178Y28868D01*
X226145Y28820D01*
X226109Y28773D01*
X226065Y28729D01*
X226062Y28726D01*
X226054Y28718D01*
X226040Y28707D01*
X226022Y28693D01*
X226000Y28675D01*
X225971Y28657D01*
X225938Y28635D01*
X225898Y28616D01*
X225858Y28595D01*
X225810Y28573D01*
X225763Y28555D01*
X225709Y28536D01*
X225650Y28522D01*
X225588Y28511D01*
X225526Y28504D01*
X225457Y28500D01*
X225425D01*
X225403Y28504D01*
X225374Y28507D01*
X225341Y28511D01*
X225304Y28518D01*
X225264Y28525D01*
X225177Y28547D01*
X225086Y28584D01*
X225039Y28605D01*
X224995Y28631D01*
X224951Y28664D01*
X224908Y28697D01*
X224904Y28700D01*
X224897Y28707D01*
X224886Y28718D01*
X224875Y28733D01*
X224857Y28751D01*
X224838Y28777D01*
X224817Y28802D01*
X224795Y28835D01*
X224773Y28871D01*
X224751Y28908D01*
X224711Y28995D01*
X224678Y29097D01*
X224667Y29151D01*
X224660Y29210D01*
X224970Y29250D01*
Y29246D01*
X224973Y29239D01*
X224977Y29224D01*
X224980Y29206D01*
X224984Y29184D01*
X224991Y29159D01*
X225010Y29104D01*
X225035Y29039D01*
X225068Y28977D01*
X225104Y28918D01*
X225148Y28868D01*
X225155Y28864D01*
X225170Y28849D01*
X225199Y28831D01*
X225235Y28813D01*
X225279Y28791D01*
X225334Y28773D01*
X225395Y28758D01*
X225461Y28755D01*
X225483D01*
X225497Y28758D01*
X225537Y28762D01*
X225588Y28773D01*
X225647Y28791D01*
X225709Y28817D01*
X225770Y28853D01*
X225829Y28904D01*
X225836Y28911D01*
X225854Y28933D01*
X225876Y28966D01*
X225905Y29010D01*
X225934Y29064D01*
X225956Y29126D01*
X225974Y29199D01*
X225981Y29279D01*
Y29283D01*
Y29290D01*
Y29301D01*
X225978Y29315D01*
X225974Y29355D01*
X225963Y29403D01*
X225949Y29461D01*
X225923Y29519D01*
X225887Y29577D01*
X225839Y29632D01*
X225832Y29639D01*
X225814Y29654D01*
X225785Y29676D01*
X225745Y29701D01*
X225694Y29727D01*
X225632Y29748D01*
X225563Y29763D01*
X225486Y29770D01*
X225454D01*
X225428Y29767D01*
X225395Y29763D01*
X225359Y29756D01*
X225315Y29748D01*
X225268Y29737D01*
X225304Y30011D01*
X225323D01*
X225337Y30007D01*
X225384D01*
X225425Y30014D01*
X225472Y30022D01*
X225526Y30032D01*
X225588Y30051D01*
X225647Y30076D01*
X225709Y30109D01*
X225712D01*
X225716Y30112D01*
X225734Y30127D01*
X225759Y30152D01*
X225788Y30185D01*
X225818Y30233D01*
X225843Y30287D01*
X225861Y30349D01*
X225869Y30386D01*
Y30426D01*
Y30429D01*
Y30433D01*
Y30455D01*
X225861Y30484D01*
X225854Y30524D01*
X225839Y30567D01*
X225821Y30615D01*
X225792Y30662D01*
X225752Y30706D01*
X225748Y30709D01*
X225730Y30724D01*
X225705Y30742D01*
X225672Y30764D01*
X225628Y30782D01*
X225577Y30800D01*
X225519Y30815D01*
X225454Y30819D01*
X225425D01*
X225392Y30811D01*
X225348Y30804D01*
X225301Y30790D01*
X225254Y30771D01*
X225202Y30742D01*
X225155Y30706D01*
X225151Y30702D01*
X225137Y30684D01*
X225115Y30659D01*
X225090Y30622D01*
X225064Y30575D01*
X225039Y30516D01*
X225017Y30447D01*
X225002Y30367D01*
X224693Y30422D01*
Y30426D01*
X224696Y30436D01*
X224700Y30451D01*
X224704Y30473D01*
X224711Y30498D01*
X224722Y30527D01*
X224744Y30597D01*
X224780Y30677D01*
X224824Y30757D01*
X224879Y30833D01*
X224948Y30902D01*
X224951Y30906D01*
X224959Y30910D01*
X224970Y30917D01*
X224984Y30928D01*
X225002Y30942D01*
X225028Y30957D01*
X225053Y30972D01*
X225086Y30990D01*
X225159Y31019D01*
X225242Y31048D01*
X225341Y31066D01*
X225392Y31073D01*
X225483D01*
X225523Y31070D01*
D02*
G37*
G36*
X223779Y28544D02*
X223452D01*
X222924Y30462D01*
Y30466D01*
X222920Y30473D01*
X222917Y30484D01*
X222913Y30502D01*
X222902Y30542D01*
X222891Y30589D01*
X222877Y30640D01*
X222862Y30688D01*
X222851Y30728D01*
X222847Y30746D01*
X222844Y30757D01*
Y30753D01*
X222840Y30749D01*
X222836Y30728D01*
X222829Y30695D01*
X222818Y30655D01*
X222807Y30611D01*
X222793Y30560D01*
X222782Y30509D01*
X222767Y30462D01*
X222236Y28544D01*
X221886D01*
X221228Y31062D01*
X221573D01*
X221948Y29410D01*
Y29406D01*
X221952Y29399D01*
X221956Y29384D01*
X221959Y29366D01*
X221963Y29341D01*
X221970Y29315D01*
X221977Y29283D01*
X221985Y29246D01*
X222003Y29170D01*
X222021Y29082D01*
X222039Y28988D01*
X222058Y28893D01*
Y28897D01*
X222061Y28911D01*
X222069Y28929D01*
X222072Y28959D01*
X222079Y28988D01*
X222090Y29024D01*
X222109Y29104D01*
X222130Y29184D01*
X222138Y29224D01*
X222148Y29261D01*
X222156Y29294D01*
X222163Y29323D01*
X222170Y29344D01*
X222174Y29359D01*
X222651Y31062D01*
X223055D01*
X223412Y29785D01*
Y29781D01*
X223419Y29763D01*
X223426Y29737D01*
X223433Y29705D01*
X223444Y29661D01*
X223459Y29614D01*
X223474Y29559D01*
X223488Y29497D01*
X223506Y29428D01*
X223521Y29359D01*
X223554Y29210D01*
X223586Y29053D01*
X223612Y28893D01*
Y28897D01*
X223616Y28904D01*
Y28918D01*
X223623Y28937D01*
X223626Y28959D01*
X223634Y28984D01*
X223637Y29017D01*
X223648Y29053D01*
X223666Y29133D01*
X223688Y29228D01*
X223710Y29330D01*
X223739Y29443D01*
X224132Y31062D01*
X224471D01*
X223779Y28544D01*
D02*
G37*
%LPC*%
G36*
X307356Y259905D02*
X307334D01*
X307320Y259901D01*
X307283Y259898D01*
X307232Y259887D01*
X307178Y259869D01*
X307116Y259840D01*
X307057Y259803D01*
X306999Y259752D01*
X306992Y259745D01*
X306978Y259727D01*
X306952Y259694D01*
X306926Y259647D01*
X306901Y259592D01*
X306876Y259523D01*
X306861Y259446D01*
X306854Y259359D01*
Y259352D01*
Y259333D01*
X306857Y259301D01*
X306861Y259261D01*
X306868Y259213D01*
X306883Y259162D01*
X306897Y259108D01*
X306919Y259053D01*
X306923Y259046D01*
X306934Y259028D01*
X306948Y259002D01*
X306970Y258969D01*
X306996Y258937D01*
X307028Y258897D01*
X307065Y258864D01*
X307108Y258831D01*
X307116Y258828D01*
X307130Y258820D01*
X307156Y258806D01*
X307189Y258795D01*
X307225Y258780D01*
X307269Y258766D01*
X307316Y258758D01*
X307367Y258755D01*
X307385D01*
X307400Y258758D01*
X307436Y258762D01*
X307483Y258773D01*
X307534Y258795D01*
X307593Y258820D01*
X307651Y258860D01*
X307680Y258882D01*
X307705Y258911D01*
Y258915D01*
X307713Y258919D01*
X307727Y258940D01*
X307749Y258977D01*
X307778Y259024D01*
X307804Y259086D01*
X307826Y259159D01*
X307840Y259243D01*
X307847Y259341D01*
Y259344D01*
Y259352D01*
Y259366D01*
X307844Y259384D01*
Y259406D01*
X307840Y259432D01*
X307829Y259490D01*
X307815Y259556D01*
X307789Y259625D01*
X307753Y259690D01*
X307705Y259752D01*
X307698Y259759D01*
X307680Y259778D01*
X307651Y259799D01*
X307611Y259828D01*
X307560Y259858D01*
X307502Y259879D01*
X307433Y259898D01*
X307356Y259905D01*
D02*
G37*
G36*
X37673Y18171D02*
X37669D01*
X37666D01*
X37644Y18167D01*
X37611Y18163D01*
X37567Y18156D01*
X37523Y18138D01*
X37473Y18116D01*
X37425Y18083D01*
X37378Y18040D01*
X37374Y18032D01*
X37360Y18014D01*
X37341Y17985D01*
X37320Y17938D01*
X37298Y17883D01*
X37280Y17810D01*
X37265Y17727D01*
X37261Y17628D01*
Y16835D01*
X38095D01*
Y17585D01*
X38091Y17628D01*
X38088Y17679D01*
X38084Y17738D01*
X38077Y17796D01*
X38066Y17854D01*
X38051Y17905D01*
X38048Y17912D01*
X38040Y17927D01*
X38030Y17949D01*
X38015Y17978D01*
X37993Y18011D01*
X37968Y18043D01*
X37935Y18076D01*
X37898Y18102D01*
X37895Y18105D01*
X37880Y18113D01*
X37858Y18123D01*
X37829Y18138D01*
X37797Y18149D01*
X37760Y18160D01*
X37716Y18167D01*
X37673Y18171D01*
D02*
G37*
G36*
X110234Y179180D02*
X109106D01*
X110234Y178386D01*
Y179180D01*
D02*
G37*
G36*
X99739Y163665D02*
X98905D01*
Y162915D01*
X98909Y162872D01*
X98912Y162821D01*
X98916Y162762D01*
X98923Y162704D01*
X98934Y162646D01*
X98949Y162595D01*
X98952Y162588D01*
X98960Y162573D01*
X98971Y162551D01*
X98985Y162522D01*
X99007Y162489D01*
X99032Y162457D01*
X99065Y162424D01*
X99102Y162398D01*
X99105Y162395D01*
X99120Y162388D01*
X99142Y162377D01*
X99171Y162362D01*
X99203Y162351D01*
X99240Y162340D01*
X99284Y162333D01*
X99327Y162329D01*
X99331D01*
X99335D01*
X99356Y162333D01*
X99389Y162337D01*
X99433Y162344D01*
X99476Y162362D01*
X99527Y162384D01*
X99575Y162417D01*
X99622Y162460D01*
X99626Y162468D01*
X99640Y162486D01*
X99659Y162515D01*
X99680Y162562D01*
X99702Y162617D01*
X99720Y162690D01*
X99735Y162773D01*
X99739Y162872D01*
Y163665D01*
D02*
G37*
G36*
X85673Y165171D02*
X85669D01*
X85666D01*
X85644Y165167D01*
X85611Y165163D01*
X85567Y165156D01*
X85523Y165138D01*
X85473Y165116D01*
X85425Y165083D01*
X85378Y165040D01*
X85374Y165032D01*
X85360Y165014D01*
X85342Y164985D01*
X85320Y164938D01*
X85298Y164883D01*
X85280Y164810D01*
X85265Y164727D01*
X85261Y164628D01*
Y163835D01*
X86095D01*
Y164585D01*
X86091Y164628D01*
X86088Y164679D01*
X86084Y164738D01*
X86077Y164796D01*
X86066Y164854D01*
X86051Y164905D01*
X86048Y164912D01*
X86040Y164927D01*
X86029Y164949D01*
X86015Y164978D01*
X85993Y165010D01*
X85968Y165043D01*
X85935Y165076D01*
X85898Y165102D01*
X85895Y165105D01*
X85880Y165112D01*
X85858Y165123D01*
X85829Y165138D01*
X85796Y165149D01*
X85760Y165160D01*
X85716Y165167D01*
X85673Y165171D01*
D02*
G37*
G36*
X185220Y243665D02*
X183298D01*
Y243068D01*
X183302Y243043D01*
X183306Y242988D01*
X183309Y242926D01*
X183317Y242861D01*
X183327Y242795D01*
X183342Y242741D01*
X183346Y242733D01*
X183349Y242715D01*
X183360Y242690D01*
X183375Y242657D01*
X183397Y242620D01*
X183419Y242584D01*
X183444Y242548D01*
X183473Y242511D01*
X183480Y242508D01*
X183495Y242493D01*
X183520Y242471D01*
X183557Y242446D01*
X183604Y242417D01*
X183659Y242384D01*
X183721Y242355D01*
X183790Y242329D01*
X183793D01*
X183801Y242326D01*
X183812Y242322D01*
X183826Y242318D01*
X183844Y242315D01*
X183870Y242307D01*
X183895Y242300D01*
X183924Y242293D01*
X183997Y242282D01*
X184081Y242271D01*
X184176Y242264D01*
X184278Y242260D01*
X184281D01*
X184296D01*
X184314D01*
X184343Y242264D01*
X184376D01*
X184412Y242267D01*
X184456Y242271D01*
X184500Y242275D01*
X184598Y242293D01*
X184700Y242315D01*
X184794Y242348D01*
X184842Y242369D01*
X184882Y242391D01*
X184886D01*
X184893Y242398D01*
X184904Y242406D01*
X184918Y242413D01*
X184955Y242442D01*
X184998Y242478D01*
X185046Y242526D01*
X185093Y242580D01*
X185133Y242642D01*
X185166Y242708D01*
X185169Y242715D01*
X185173Y242733D01*
X185184Y242766D01*
X185195Y242813D01*
X185202Y242872D01*
X185213Y242944D01*
X185217Y242988D01*
Y243035D01*
X185220Y243083D01*
Y243665D01*
D02*
G37*
G36*
X311044Y231392D02*
X311036D01*
X311018D01*
X310985D01*
X310942Y231388D01*
X310894D01*
X310836Y231384D01*
X310774Y231381D01*
X310709Y231373D01*
X310567Y231355D01*
X310498Y231344D01*
X310432Y231330D01*
X310370Y231315D01*
X310312Y231293D01*
X310261Y231272D01*
X310217Y231246D01*
X310214D01*
X310210Y231239D01*
X310185Y231221D01*
X310152Y231188D01*
X310116Y231148D01*
X310079Y231093D01*
X310046Y231031D01*
X310021Y230962D01*
X310017Y230926D01*
X310014Y230886D01*
Y230864D01*
X310017Y230849D01*
X310024Y230813D01*
X310039Y230762D01*
X310065Y230707D01*
X310101Y230645D01*
X310123Y230616D01*
X310152Y230587D01*
X310181Y230558D01*
X310217Y230529D01*
X310221D01*
X310228Y230522D01*
X310239Y230514D01*
X310258Y230507D01*
X310283Y230492D01*
X310316Y230482D01*
X310352Y230467D01*
X310396Y230452D01*
X310450Y230442D01*
X310509Y230427D01*
X310578Y230412D01*
X310651Y230401D01*
X310738Y230394D01*
X310829Y230387D01*
X310931Y230380D01*
X311044D01*
X311047D01*
X311051D01*
X311069D01*
X311102D01*
X311146Y230383D01*
X311193D01*
X311251Y230387D01*
X311313Y230391D01*
X311382Y230398D01*
X311521Y230416D01*
X311590Y230427D01*
X311655Y230442D01*
X311717Y230456D01*
X311775Y230478D01*
X311826Y230500D01*
X311870Y230525D01*
X311874D01*
X311877Y230533D01*
X311888Y230540D01*
X311903Y230551D01*
X311935Y230584D01*
X311976Y230624D01*
X312012Y230678D01*
X312045Y230740D01*
X312059Y230773D01*
X312070Y230809D01*
X312074Y230849D01*
X312077Y230889D01*
Y230911D01*
X312074Y230926D01*
X312067Y230966D01*
X312056Y231013D01*
X312034Y231068D01*
X312001Y231126D01*
X311979Y231155D01*
X311957Y231184D01*
X311928Y231210D01*
X311895Y231235D01*
X311892D01*
X311884Y231242D01*
X311870Y231250D01*
X311852Y231261D01*
X311823Y231272D01*
X311790Y231286D01*
X311750Y231297D01*
X311703Y231311D01*
X311648Y231326D01*
X311586Y231341D01*
X311517Y231355D01*
X311440Y231366D01*
X311353Y231377D01*
X311259Y231384D01*
X311157Y231388D01*
X311044Y231392D01*
D02*
G37*
G36*
X308029Y206073D02*
X308025D01*
X308021D01*
X307999Y206070D01*
X307967Y206066D01*
X307927Y206059D01*
X307879Y206044D01*
X307832Y206026D01*
X307781Y205997D01*
X307737Y205961D01*
X307734Y205957D01*
X307719Y205939D01*
X307701Y205913D01*
X307683Y205881D01*
X307661Y205837D01*
X307643Y205786D01*
X307628Y205728D01*
X307625Y205662D01*
Y205655D01*
X307628Y205633D01*
X307632Y205600D01*
X307639Y205557D01*
X307654Y205509D01*
X307672Y205462D01*
X307701Y205411D01*
X307737Y205367D01*
X307741Y205364D01*
X307759Y205349D01*
X307781Y205331D01*
X307814Y205309D01*
X307854Y205287D01*
X307901Y205269D01*
X307956Y205255D01*
X308014Y205251D01*
X308018D01*
X308021D01*
X308043D01*
X308076Y205258D01*
X308116Y205265D01*
X308160Y205280D01*
X308207Y205302D01*
X308254Y205331D01*
X308302Y205371D01*
X308305Y205375D01*
X308320Y205393D01*
X308338Y205418D01*
X308360Y205451D01*
X308382Y205495D01*
X308400Y205542D01*
X308414Y205600D01*
X308418Y205662D01*
Y205691D01*
X308411Y205724D01*
X308403Y205768D01*
X308389Y205815D01*
X308371Y205866D01*
X308342Y205913D01*
X308302Y205961D01*
X308298Y205964D01*
X308283Y205979D01*
X308258Y205997D01*
X308225Y206015D01*
X308185Y206037D01*
X308138Y206055D01*
X308087Y206070D01*
X308029Y206073D01*
D02*
G37*
G36*
X306867Y206175D02*
X306860D01*
X306846D01*
X306820Y206172D01*
X306787Y206168D01*
X306747Y206161D01*
X306704Y206150D01*
X306660Y206135D01*
X306613Y206117D01*
X306609Y206114D01*
X306591Y206106D01*
X306569Y206092D01*
X306543Y206070D01*
X306511Y206044D01*
X306478Y206012D01*
X306449Y205975D01*
X306420Y205931D01*
X306416Y205924D01*
X306409Y205910D01*
X306398Y205884D01*
X306387Y205851D01*
X306376Y205811D01*
X306365Y205764D01*
X306358Y205713D01*
X306354Y205662D01*
Y205640D01*
X306358Y205626D01*
X306362Y205582D01*
X306372Y205531D01*
X306391Y205473D01*
X306412Y205411D01*
X306449Y205353D01*
X306496Y205294D01*
X306503Y205287D01*
X306522Y205273D01*
X306554Y205247D01*
X306594Y205222D01*
X306645Y205196D01*
X306707Y205171D01*
X306780Y205156D01*
X306856Y205149D01*
X306860D01*
X306867D01*
X306878D01*
X306893Y205153D01*
X306933Y205156D01*
X306988Y205167D01*
X307042Y205185D01*
X307104Y205211D01*
X307166Y205247D01*
X307224Y205298D01*
X307231Y205305D01*
X307246Y205324D01*
X307272Y205356D01*
X307301Y205400D01*
X307326Y205455D01*
X307351Y205520D01*
X307366Y205593D01*
X307373Y205673D01*
Y205695D01*
X307370Y205710D01*
X307366Y205750D01*
X307355Y205801D01*
X307337Y205859D01*
X307312Y205917D01*
X307275Y205979D01*
X307228Y206033D01*
X307221Y206041D01*
X307202Y206055D01*
X307170Y206077D01*
X307130Y206103D01*
X307075Y206132D01*
X307013Y206154D01*
X306944Y206168D01*
X306867Y206175D01*
D02*
G37*
G36*
X275669Y257328D02*
X275648D01*
X275633Y257324D01*
X275593Y257321D01*
X275546Y257310D01*
X275487Y257292D01*
X275429Y257266D01*
X275371Y257230D01*
X275316Y257179D01*
X275309Y257171D01*
X275294Y257150D01*
X275273Y257117D01*
X275244Y257069D01*
X275218Y257011D01*
X275196Y256942D01*
X275182Y256858D01*
X275174Y256764D01*
Y256760D01*
Y256753D01*
Y256738D01*
X275178Y256720D01*
Y256695D01*
X275182Y256669D01*
X275193Y256611D01*
X275207Y256542D01*
X275233Y256469D01*
X275269Y256400D01*
X275316Y256338D01*
Y256334D01*
X275324Y256331D01*
X275342Y256312D01*
X275371Y256287D01*
X275411Y256258D01*
X275462Y256232D01*
X275520Y256207D01*
X275586Y256189D01*
X275622Y256181D01*
X275680D01*
X275695Y256185D01*
X275735Y256189D01*
X275782Y256203D01*
X275840Y256221D01*
X275902Y256254D01*
X275964Y256294D01*
X275993Y256323D01*
X276023Y256352D01*
Y256356D01*
X276030Y256360D01*
X276037Y256371D01*
X276044Y256382D01*
X276070Y256418D01*
X276095Y256469D01*
X276124Y256531D01*
X276150Y256607D01*
X276165Y256695D01*
X276172Y256789D01*
Y256793D01*
Y256800D01*
Y256811D01*
X276168Y256829D01*
Y256851D01*
X276165Y256873D01*
X276153Y256928D01*
X276135Y256989D01*
X276114Y257055D01*
X276077Y257120D01*
X276030Y257179D01*
X276023Y257186D01*
X276004Y257201D01*
X275972Y257226D01*
X275932Y257252D01*
X275877Y257281D01*
X275815Y257306D01*
X275746Y257321D01*
X275669Y257328D01*
D02*
G37*
G36*
X262328Y22197D02*
X262215D01*
X262211D01*
X262208D01*
X262190D01*
X262157D01*
X262113Y22193D01*
X262066D01*
X262008Y22189D01*
X261946Y22186D01*
X261877Y22178D01*
X261738Y22160D01*
X261669Y22149D01*
X261604Y22135D01*
X261542Y22120D01*
X261484Y22098D01*
X261433Y22076D01*
X261389Y22051D01*
X261385D01*
X261382Y22044D01*
X261371Y22036D01*
X261356Y22026D01*
X261323Y21993D01*
X261283Y21953D01*
X261247Y21898D01*
X261214Y21836D01*
X261199Y21803D01*
X261189Y21767D01*
X261185Y21727D01*
X261181Y21687D01*
Y21665D01*
X261185Y21651D01*
X261192Y21610D01*
X261203Y21563D01*
X261225Y21509D01*
X261258Y21450D01*
X261280Y21421D01*
X261301Y21392D01*
X261331Y21367D01*
X261363Y21341D01*
X261367D01*
X261374Y21334D01*
X261389Y21327D01*
X261407Y21316D01*
X261436Y21305D01*
X261469Y21290D01*
X261509Y21279D01*
X261556Y21265D01*
X261611Y21250D01*
X261673Y21236D01*
X261742Y21221D01*
X261818Y21210D01*
X261906Y21199D01*
X262000Y21192D01*
X262102Y21188D01*
X262215Y21185D01*
X262222D01*
X262241D01*
X262273D01*
X262317Y21188D01*
X262364D01*
X262423Y21192D01*
X262485Y21196D01*
X262550Y21203D01*
X262692Y21221D01*
X262761Y21232D01*
X262827Y21247D01*
X262889Y21261D01*
X262947Y21283D01*
X262998Y21305D01*
X263041Y21330D01*
X263045D01*
X263049Y21338D01*
X263074Y21356D01*
X263107Y21388D01*
X263143Y21429D01*
X263180Y21483D01*
X263212Y21545D01*
X263238Y21614D01*
X263242Y21651D01*
X263245Y21691D01*
Y21712D01*
X263242Y21727D01*
X263234Y21763D01*
X263220Y21814D01*
X263194Y21869D01*
X263158Y21931D01*
X263136Y21960D01*
X263107Y21989D01*
X263078Y22018D01*
X263041Y22047D01*
X263038D01*
X263031Y22055D01*
X263019Y22062D01*
X263001Y22069D01*
X262976Y22084D01*
X262943Y22095D01*
X262907Y22109D01*
X262863Y22124D01*
X262808Y22135D01*
X262750Y22149D01*
X262681Y22164D01*
X262608Y22175D01*
X262521Y22182D01*
X262430Y22189D01*
X262328Y22197D01*
D02*
G37*
G36*
X261629Y18171D02*
X261625D01*
X261622D01*
X261600Y18167D01*
X261567Y18163D01*
X261524Y18156D01*
X261480Y18138D01*
X261429Y18116D01*
X261382Y18083D01*
X261334Y18040D01*
X261331Y18032D01*
X261316Y18014D01*
X261298Y17985D01*
X261276Y17938D01*
X261254Y17883D01*
X261236Y17810D01*
X261221Y17727D01*
X261218Y17628D01*
Y16835D01*
X262051D01*
Y17585D01*
X262048Y17628D01*
X262044Y17679D01*
X262040Y17738D01*
X262033Y17796D01*
X262022Y17854D01*
X262008Y17905D01*
X262004Y17912D01*
X261997Y17927D01*
X261986Y17949D01*
X261971Y17978D01*
X261949Y18011D01*
X261924Y18043D01*
X261891Y18076D01*
X261855Y18102D01*
X261851Y18105D01*
X261837Y18113D01*
X261815Y18123D01*
X261786Y18138D01*
X261753Y18149D01*
X261716Y18160D01*
X261673Y18167D01*
X261629Y18171D01*
D02*
G37*
G36*
X187764Y20224D02*
X187760D01*
X187753D01*
X187738D01*
X187720Y20220D01*
X187695D01*
X187669Y20216D01*
X187611Y20206D01*
X187542Y20191D01*
X187469Y20165D01*
X187400Y20129D01*
X187338Y20082D01*
X187334D01*
X187331Y20074D01*
X187312Y20056D01*
X187287Y20027D01*
X187258Y19987D01*
X187232Y19936D01*
X187207Y19878D01*
X187189Y19812D01*
X187181Y19776D01*
Y19718D01*
X187185Y19703D01*
X187189Y19663D01*
X187203Y19616D01*
X187221Y19558D01*
X187254Y19496D01*
X187294Y19434D01*
X187323Y19405D01*
X187352Y19376D01*
X187356D01*
X187360Y19368D01*
X187371Y19361D01*
X187381Y19354D01*
X187418Y19328D01*
X187469Y19303D01*
X187531Y19274D01*
X187607Y19248D01*
X187695Y19234D01*
X187789Y19226D01*
X187793D01*
X187800D01*
X187811D01*
X187829Y19230D01*
X187851D01*
X187873Y19234D01*
X187927Y19244D01*
X187989Y19263D01*
X188055Y19285D01*
X188120Y19321D01*
X188179Y19368D01*
X188186Y19376D01*
X188200Y19394D01*
X188226Y19426D01*
X188251Y19467D01*
X188281Y19521D01*
X188306Y19583D01*
X188321Y19652D01*
X188328Y19729D01*
Y19750D01*
X188324Y19765D01*
X188321Y19805D01*
X188310Y19852D01*
X188292Y19911D01*
X188266Y19969D01*
X188230Y20027D01*
X188179Y20082D01*
X188171Y20089D01*
X188150Y20104D01*
X188117Y20125D01*
X188069Y20155D01*
X188011Y20180D01*
X187942Y20202D01*
X187858Y20216D01*
X187764Y20224D01*
D02*
G37*
G36*
X187629Y18171D02*
X187625D01*
X187622D01*
X187600Y18167D01*
X187567Y18163D01*
X187523Y18156D01*
X187480Y18138D01*
X187429Y18116D01*
X187381Y18083D01*
X187334Y18040D01*
X187331Y18032D01*
X187316Y18014D01*
X187298Y17985D01*
X187276Y17938D01*
X187254Y17883D01*
X187236Y17810D01*
X187221Y17727D01*
X187218Y17628D01*
Y16835D01*
X188051D01*
Y17585D01*
X188048Y17628D01*
X188044Y17679D01*
X188040Y17738D01*
X188033Y17796D01*
X188022Y17854D01*
X188008Y17905D01*
X188004Y17912D01*
X187997Y17927D01*
X187986Y17949D01*
X187971Y17978D01*
X187949Y18011D01*
X187924Y18043D01*
X187891Y18076D01*
X187855Y18102D01*
X187851Y18105D01*
X187837Y18113D01*
X187815Y18123D01*
X187786Y18138D01*
X187753Y18149D01*
X187716Y18160D01*
X187673Y18167D01*
X187629Y18171D01*
D02*
G37*
G36*
X112585Y20147D02*
X112582D01*
X112578D01*
X112556D01*
X112523Y20140D01*
X112484Y20133D01*
X112440Y20118D01*
X112392Y20096D01*
X112345Y20067D01*
X112298Y20027D01*
X112294Y20023D01*
X112280Y20005D01*
X112261Y19980D01*
X112240Y19947D01*
X112218Y19903D01*
X112199Y19856D01*
X112185Y19798D01*
X112181Y19736D01*
Y19707D01*
X112189Y19674D01*
X112196Y19630D01*
X112211Y19583D01*
X112229Y19532D01*
X112258Y19485D01*
X112298Y19437D01*
X112302Y19434D01*
X112316Y19419D01*
X112341Y19401D01*
X112374Y19383D01*
X112414Y19361D01*
X112462Y19343D01*
X112513Y19328D01*
X112571Y19325D01*
X112575D01*
X112578D01*
X112600Y19328D01*
X112633Y19332D01*
X112673Y19339D01*
X112720Y19354D01*
X112767Y19372D01*
X112818Y19401D01*
X112862Y19437D01*
X112866Y19441D01*
X112880Y19459D01*
X112898Y19485D01*
X112917Y19518D01*
X112938Y19561D01*
X112957Y19612D01*
X112971Y19670D01*
X112975Y19736D01*
Y19743D01*
X112971Y19765D01*
X112968Y19798D01*
X112960Y19841D01*
X112946Y19889D01*
X112927Y19936D01*
X112898Y19987D01*
X112862Y20031D01*
X112858Y20034D01*
X112840Y20049D01*
X112818Y20067D01*
X112786Y20089D01*
X112746Y20111D01*
X112698Y20129D01*
X112644Y20144D01*
X112585Y20147D01*
D02*
G37*
G36*
X113743Y20249D02*
X113739D01*
X113732D01*
X113721D01*
X113707Y20245D01*
X113666Y20242D01*
X113612Y20231D01*
X113557Y20213D01*
X113495Y20187D01*
X113434Y20151D01*
X113375Y20100D01*
X113368Y20093D01*
X113353Y20074D01*
X113328Y20042D01*
X113299Y19998D01*
X113273Y19943D01*
X113248Y19878D01*
X113233Y19805D01*
X113226Y19725D01*
Y19703D01*
X113230Y19689D01*
X113233Y19649D01*
X113244Y19598D01*
X113262Y19539D01*
X113288Y19481D01*
X113324Y19419D01*
X113372Y19365D01*
X113379Y19357D01*
X113397Y19343D01*
X113430Y19321D01*
X113470Y19296D01*
X113524Y19266D01*
X113586Y19244D01*
X113655Y19230D01*
X113732Y19223D01*
X113739D01*
X113754D01*
X113779Y19226D01*
X113812Y19230D01*
X113852Y19237D01*
X113896Y19248D01*
X113939Y19263D01*
X113987Y19281D01*
X113990Y19285D01*
X114009Y19292D01*
X114031Y19306D01*
X114056Y19328D01*
X114089Y19354D01*
X114121Y19387D01*
X114151Y19423D01*
X114180Y19467D01*
X114183Y19474D01*
X114191Y19488D01*
X114201Y19514D01*
X114213Y19547D01*
X114223Y19587D01*
X114234Y19634D01*
X114242Y19685D01*
X114245Y19736D01*
Y19758D01*
X114242Y19772D01*
X114238Y19816D01*
X114227Y19867D01*
X114209Y19925D01*
X114187Y19987D01*
X114151Y20045D01*
X114103Y20104D01*
X114096Y20111D01*
X114078Y20125D01*
X114045Y20151D01*
X114005Y20176D01*
X113954Y20202D01*
X113892Y20227D01*
X113819Y20242D01*
X113743Y20249D01*
D02*
G37*
G36*
X112629Y18171D02*
X112625D01*
X112622D01*
X112600Y18167D01*
X112567Y18163D01*
X112523Y18156D01*
X112480Y18138D01*
X112429Y18116D01*
X112381Y18083D01*
X112334Y18040D01*
X112331Y18032D01*
X112316Y18014D01*
X112298Y17985D01*
X112276Y17938D01*
X112254Y17883D01*
X112236Y17810D01*
X112221Y17727D01*
X112218Y17628D01*
Y16835D01*
X113051D01*
Y17585D01*
X113048Y17628D01*
X113044Y17679D01*
X113040Y17738D01*
X113033Y17796D01*
X113022Y17854D01*
X113008Y17905D01*
X113004Y17912D01*
X112997Y17927D01*
X112986Y17949D01*
X112971Y17978D01*
X112949Y18011D01*
X112924Y18043D01*
X112891Y18076D01*
X112855Y18102D01*
X112851Y18105D01*
X112837Y18113D01*
X112815Y18123D01*
X112786Y18138D01*
X112753Y18149D01*
X112716Y18160D01*
X112673Y18167D01*
X112629Y18171D01*
D02*
G37*
G36*
X113720Y243665D02*
X111798D01*
Y243068D01*
X111802Y243043D01*
X111806Y242988D01*
X111809Y242926D01*
X111817Y242861D01*
X111828Y242795D01*
X111842Y242741D01*
X111846Y242733D01*
X111849Y242715D01*
X111860Y242690D01*
X111875Y242657D01*
X111897Y242620D01*
X111919Y242584D01*
X111944Y242548D01*
X111973Y242511D01*
X111980Y242508D01*
X111995Y242493D01*
X112021Y242471D01*
X112057Y242446D01*
X112104Y242417D01*
X112159Y242384D01*
X112221Y242355D01*
X112290Y242329D01*
X112294D01*
X112301Y242326D01*
X112312Y242322D01*
X112326Y242318D01*
X112344Y242315D01*
X112370Y242307D01*
X112395Y242300D01*
X112425Y242293D01*
X112497Y242282D01*
X112581Y242271D01*
X112676Y242264D01*
X112778Y242260D01*
X112781D01*
X112796D01*
X112814D01*
X112843Y242264D01*
X112876D01*
X112912Y242267D01*
X112956Y242271D01*
X113000Y242275D01*
X113098Y242293D01*
X113200Y242315D01*
X113294Y242348D01*
X113342Y242369D01*
X113382Y242391D01*
X113385D01*
X113393Y242398D01*
X113404Y242406D01*
X113418Y242413D01*
X113455Y242442D01*
X113498Y242478D01*
X113546Y242526D01*
X113593Y242580D01*
X113633Y242642D01*
X113666Y242708D01*
X113669Y242715D01*
X113673Y242733D01*
X113684Y242766D01*
X113695Y242813D01*
X113702Y242872D01*
X113713Y242944D01*
X113717Y242988D01*
Y243035D01*
X113720Y243083D01*
Y243665D01*
D02*
G37*
G36*
X300647Y30560D02*
X299853Y29432D01*
X300647D01*
Y30560D01*
D02*
G37*
%LPD*%
D12*
X296126Y262437D02*
X311874D01*
Y254563D02*
Y262437D01*
X296126Y254563D02*
X311874D01*
X296126D02*
Y262437D01*
X32626Y166063D02*
Y173937D01*
Y166063D02*
X48374D01*
Y173937D01*
X32626D02*
X48374D01*
X121559Y15705D02*
Y41295D01*
Y15705D02*
X166441D01*
Y41295D01*
X121559D02*
X166441D01*
X36350Y11267D02*
X42650D01*
Y21733D01*
X36350D02*
X42650D01*
X36350Y11267D02*
Y21733D01*
X107229Y167804D02*
X115103D01*
Y183552D01*
X107229D02*
X115103D01*
X107229Y167804D02*
Y183552D01*
X94350Y169233D02*
X100650D01*
X94350Y158767D02*
Y169233D01*
Y158767D02*
X100650D01*
Y169233D01*
X84252Y157398D02*
X90748D01*
Y169602D01*
X84252D02*
X90748D01*
X84252Y157398D02*
Y169602D01*
X178847Y261768D02*
X187153D01*
X178847Y226232D02*
Y261768D01*
Y226232D02*
X187153D01*
Y261768D01*
X305822Y244052D02*
X313696D01*
X305822Y228304D02*
Y244052D01*
Y228304D02*
X313696D01*
Y244052D01*
X310036Y201126D02*
Y216874D01*
X302162Y201126D02*
X310036D01*
X302162D02*
Y216874D01*
X310036D01*
X282838Y201126D02*
Y216874D01*
X274964Y201126D02*
X282838D01*
X274964D02*
Y216874D01*
X282838D01*
X284626Y218437D02*
X300374D01*
Y210563D02*
Y218437D01*
X284626Y210563D02*
X300374D01*
X284626D02*
Y218437D01*
X90626Y204944D02*
Y212818D01*
Y204944D02*
X106374D01*
Y212818D01*
X90626D02*
X106374D01*
X286874Y254563D02*
Y262437D01*
X271126D02*
X286874D01*
X271126Y254563D02*
Y262437D01*
Y254563D02*
X286874D01*
X260350Y11267D02*
Y21733D01*
X266650D01*
Y11267D02*
Y21733D01*
X260350Y11267D02*
X266650D01*
X186350D02*
Y21733D01*
X192650D01*
Y11267D02*
Y21733D01*
X186350Y11267D02*
X192650D01*
X111350D02*
Y21733D01*
X117650D01*
Y11267D02*
Y21733D01*
X111350Y11267D02*
X117650D01*
X115654Y226232D02*
Y261768D01*
X107346Y226232D02*
X115654D01*
X107346D02*
Y261768D01*
X115654D01*
X39437Y181126D02*
Y196874D01*
X31563Y181126D02*
X39437D01*
X31563D02*
Y196874D01*
X39437D01*
X46559Y15705D02*
Y41295D01*
Y15705D02*
X91441D01*
Y41295D01*
X46559D02*
X91441D01*
X271559Y15705D02*
Y41295D01*
Y15705D02*
X316441D01*
Y41295D01*
X271559D02*
X316441D01*
X196559Y15705D02*
Y41295D01*
Y15705D02*
X241441D01*
Y41295D01*
X196559D02*
X241441D01*
M02*
