G04*
G04 #@! TF.GenerationSoftware,Altium Limited,Altium Designer,24.2.2 (26)*
G04*
G04 Layer_Color=8421504*
%FSLAX25Y25*%
%MOIN*%
G70*
G04*
G04 #@! TF.SameCoordinates,004D1183-16E1-436D-8927-E0D308D58255*
G04*
G04*
G04 #@! TF.FilePolarity,Positive*
G04*
G01*
G75*
%ADD15R,0.03740X0.06693*%
G04:AMPARAMS|DCode=16|XSize=25.59mil|YSize=64.96mil|CornerRadius=1.92mil|HoleSize=0mil|Usage=FLASHONLY|Rotation=180.000|XOffset=0mil|YOffset=0mil|HoleType=Round|Shape=RoundedRectangle|*
%AMROUNDEDRECTD16*
21,1,0.02559,0.06112,0,0,180.0*
21,1,0.02175,0.06496,0,0,180.0*
1,1,0.00384,-0.01088,0.03056*
1,1,0.00384,0.01088,0.03056*
1,1,0.00384,0.01088,-0.03056*
1,1,0.00384,-0.01088,-0.03056*
%
%ADD16ROUNDEDRECTD16*%
%ADD17R,0.06102X0.05315*%
%ADD18R,0.08268X0.05512*%
%ADD19R,0.05180X0.03567*%
G04:AMPARAMS|DCode=20|XSize=21.65mil|YSize=49.21mil|CornerRadius=1.95mil|HoleSize=0mil|Usage=FLASHONLY|Rotation=180.000|XOffset=0mil|YOffset=0mil|HoleType=Round|Shape=RoundedRectangle|*
%AMROUNDEDRECTD20*
21,1,0.02165,0.04532,0,0,180.0*
21,1,0.01776,0.04921,0,0,180.0*
1,1,0.00390,-0.00888,0.02266*
1,1,0.00390,0.00888,0.02266*
1,1,0.00390,0.00888,-0.02266*
1,1,0.00390,-0.00888,-0.02266*
%
%ADD20ROUNDEDRECTD20*%
%ADD21R,0.06693X0.03740*%
%ADD22R,0.05709X0.03740*%
D15*
X298488Y258500D02*
D03*
X309512D02*
D03*
X46012Y170000D02*
D03*
X34988D02*
D03*
X286988Y214500D02*
D03*
X298012D02*
D03*
X104012Y208881D02*
D03*
X92988D02*
D03*
X273488Y258500D02*
D03*
X284512D02*
D03*
D16*
X299500Y247622D02*
D03*
X294500D02*
D03*
X289500D02*
D03*
X284500D02*
D03*
X299500Y225378D02*
D03*
X294500D02*
D03*
X289500D02*
D03*
X284500D02*
D03*
D17*
X273853Y232161D02*
D03*
Y239839D02*
D03*
D18*
X161913Y19642D02*
D03*
X126087D02*
D03*
X161913Y37358D02*
D03*
X126087D02*
D03*
X86913Y19642D02*
D03*
X51087D02*
D03*
X86913Y37358D02*
D03*
X51087D02*
D03*
X311913Y19642D02*
D03*
X276087D02*
D03*
X311913Y37358D02*
D03*
X276087D02*
D03*
X236913Y19642D02*
D03*
X201087D02*
D03*
X236913Y37358D02*
D03*
X201087D02*
D03*
D19*
X39500Y19555D02*
D03*
Y13445D02*
D03*
X97500Y160945D02*
D03*
Y167055D02*
D03*
X263500Y13445D02*
D03*
Y19555D02*
D03*
X189500Y13445D02*
D03*
Y19555D02*
D03*
X114500Y13445D02*
D03*
Y19555D02*
D03*
D20*
X103000Y196835D02*
D03*
X98000D02*
D03*
X93000D02*
D03*
X88000D02*
D03*
X103000Y176165D02*
D03*
X98000D02*
D03*
X93000D02*
D03*
X88000D02*
D03*
D21*
X111166Y181190D02*
D03*
Y170166D02*
D03*
X309759Y230666D02*
D03*
Y241690D02*
D03*
X306099Y214512D02*
D03*
Y203488D02*
D03*
X278901Y214512D02*
D03*
Y203488D02*
D03*
X35500Y194512D02*
D03*
Y183488D02*
D03*
D22*
X87500Y167339D02*
D03*
Y159661D02*
D03*
M02*
