G04*
G04 #@! TF.GenerationSoftware,Altium Limited,Altium Designer,24.2.2 (26)*
G04*
G04 Layer_Physical_Order=4*
G04 Layer_Color=16711680*
%FSLAX25Y25*%
%MOIN*%
G70*
G04*
G04 #@! TF.SameCoordinates,004D1183-16E1-436D-8927-E0D308D58255*
G04*
G04*
G04 #@! TF.FilePolarity,Positive*
G04*
G01*
G75*
%ADD14C,0.01000*%
%ADD33C,0.04724*%
%ADD34R,0.04724X0.04724*%
%ADD38C,0.11811*%
%ADD39C,0.12000*%
%ADD41R,0.06693X0.06693*%
%ADD42C,0.06693*%
%ADD43C,0.14961*%
%ADD44C,0.05543*%
%ADD45R,0.05543X0.05543*%
%ADD46O,0.07480X0.14961*%
%ADD47O,0.14961X0.07480*%
%ADD48R,0.06693X0.06693*%
%ADD49C,0.05000*%
%ADD50C,0.08858*%
%ADD67R,0.02500X0.05000*%
%ADD68R,0.04739X0.06528*%
%ADD69R,0.03567X0.05180*%
D14*
X147000Y125000D02*
Y138000D01*
Y125000D02*
X165000Y107000D01*
X179500D01*
X178735Y107765D02*
X179500Y107000D01*
X184000Y73000D02*
X237414D01*
X160000Y97000D02*
X184000Y73000D01*
X238000Y73586D02*
Y80520D01*
X237414Y73000D02*
X238000Y73586D01*
Y80520D02*
X255906Y98425D01*
X77000Y68000D02*
X112000Y103000D01*
Y145500D01*
X131000Y164500D01*
X172500Y201500D02*
X179791D01*
X180000Y201291D01*
X185000D01*
X168500Y165500D02*
Y177500D01*
Y165500D02*
X175500Y158500D01*
X164500Y209414D02*
X165086Y210000D01*
X164500Y149000D02*
X167000Y146500D01*
X164500Y149000D02*
Y209414D01*
X131000Y232500D02*
X137000D01*
X139000Y147500D02*
Y230500D01*
X137000Y232500D02*
X139000Y230500D01*
Y147500D02*
X142000Y144500D01*
X129272Y55728D02*
X236370D01*
X295776Y115134D01*
Y125925D01*
X117000Y68000D02*
X129272Y55728D01*
X268500Y116650D02*
X295776Y143925D01*
X268500Y90686D02*
Y116650D01*
X235542Y57728D02*
X268500Y90686D01*
X137272Y57728D02*
X235542D01*
X127000Y68000D02*
X137272Y57728D01*
X263835Y91678D02*
Y118496D01*
X233885Y61728D02*
X263835Y91678D01*
X261835Y92506D02*
Y104764D01*
X233057Y63728D02*
X261835Y92506D01*
X163272Y61728D02*
X233885D01*
X171272Y63728D02*
X233057D01*
X250476Y116123D02*
Y137996D01*
X157000Y68000D02*
X163272Y61728D01*
X256405Y125925D02*
X263835Y118496D01*
X250476Y116123D02*
X261835Y104764D01*
X250476Y137996D02*
X256405Y143925D01*
X167000Y68000D02*
X171272Y63728D01*
X167000Y138000D02*
Y146500D01*
X165086Y210000D02*
X198500D01*
X202500Y214000D01*
Y232500D01*
X142000Y103000D02*
X177000Y68000D01*
X142000Y103000D02*
Y144500D01*
X235988Y185042D02*
X287446Y236500D01*
X295000D01*
X189414Y158500D02*
X190000Y159086D01*
X175500Y158500D02*
X189414D01*
X190000Y159086D02*
Y162709D01*
X212522Y185042D02*
X235988D01*
X198586D02*
X202478D01*
X198000Y184457D02*
X198586Y185042D01*
X198000Y171086D02*
Y184457D01*
X183791Y170500D02*
X197414D01*
X198000Y171086D01*
X180000Y166709D02*
X183791Y170500D01*
X180000Y162709D02*
Y166709D01*
X207500Y163055D02*
Y174000D01*
Y163055D02*
X207555Y163000D01*
X190000Y162709D02*
X201153D01*
X201445Y163000D01*
X209022Y201000D02*
X218500D01*
X190000Y201291D02*
X190291Y201000D01*
X198978D01*
D33*
X183000Y228988D02*
D03*
X111500D02*
D03*
D34*
X183000Y259012D02*
D03*
X111500D02*
D03*
D38*
X15748Y15748D02*
D03*
X338583D02*
D03*
Y284299D02*
D03*
D39*
X15748Y284300D02*
D03*
D41*
X131000Y232500D02*
D03*
X202500D02*
D03*
D42*
X131000Y242500D02*
D03*
Y252500D02*
D03*
X202500Y242500D02*
D03*
Y252500D02*
D03*
X17500Y174000D02*
D03*
Y184000D02*
D03*
D43*
X185000Y182000D02*
D03*
D44*
X127000Y68000D02*
D03*
X117000D02*
D03*
X137000D02*
D03*
X147000D02*
D03*
X157000D02*
D03*
X167000D02*
D03*
X177000D02*
D03*
X187000D02*
D03*
X197000D02*
D03*
X207000D02*
D03*
X107000D02*
D03*
X97000D02*
D03*
X87000D02*
D03*
X77000D02*
D03*
X67000D02*
D03*
X57000D02*
D03*
X47000D02*
D03*
X37000D02*
D03*
X27000D02*
D03*
X127000Y138000D02*
D03*
X117000D02*
D03*
X137000D02*
D03*
X147000D02*
D03*
X157000D02*
D03*
X167000D02*
D03*
X177000D02*
D03*
X187000D02*
D03*
X197000D02*
D03*
X207000D02*
D03*
X107000D02*
D03*
X97000D02*
D03*
X87000D02*
D03*
X77000D02*
D03*
X67000D02*
D03*
X57000D02*
D03*
X47000D02*
D03*
X37000D02*
D03*
X27000D02*
D03*
D45*
X217000Y68000D02*
D03*
Y138000D02*
D03*
D46*
X65248Y248500D02*
D03*
X41902D02*
D03*
D47*
X51075Y229878D02*
D03*
D48*
X17500Y194000D02*
D03*
D49*
X179500Y107000D02*
D03*
X160000Y97000D02*
D03*
X172500Y201500D02*
D03*
X131000Y164500D02*
D03*
X168500Y177500D02*
D03*
X317268Y258204D02*
D03*
X52500Y183500D02*
D03*
X293000Y195500D02*
D03*
X295000Y236500D02*
D03*
X207500Y174000D02*
D03*
X218500Y201000D02*
D03*
X310000Y223000D02*
D03*
X322500Y37500D02*
D03*
X247000D02*
D03*
X171500Y37000D02*
D03*
X96500Y37500D02*
D03*
X264500Y258500D02*
D03*
X112500Y209000D02*
D03*
X122000Y181000D02*
D03*
D50*
X295776Y125925D02*
D03*
X255906Y98425D02*
D03*
X256405Y125925D02*
D03*
X334646Y98425D02*
D03*
X276406Y135925D02*
D03*
X316276Y156425D02*
D03*
X295776Y143925D02*
D03*
X335146D02*
D03*
X256405D02*
D03*
X295276Y98425D02*
D03*
X183075Y282965D02*
D03*
X202728D02*
D03*
X131110D02*
D03*
X110425D02*
D03*
D67*
X185000Y162709D02*
D03*
X180000D02*
D03*
X190000D02*
D03*
X185000Y201291D02*
D03*
X190000D02*
D03*
X180000D02*
D03*
D68*
X202478Y185042D02*
D03*
X212522D02*
D03*
X209022Y201000D02*
D03*
X198978D02*
D03*
D69*
X207555Y163000D02*
D03*
X201445D02*
D03*
M02*
