G04*
G04 #@! TF.GenerationSoftware,Altium Limited,Altium Designer,24.2.2 (26)*
G04*
G04 Layer_Color=255*
%FSLAX25Y25*%
%MOIN*%
G70*
G04*
G04 #@! TF.SameCoordinates,004D1183-16E1-436D-8927-E0D308D58255*
G04*
G04*
G04 #@! TF.FilePolarity,Positive*
G04*
G01*
G75*
%ADD33C,0.04724*%
%ADD34R,0.04724X0.04724*%
%ADD41R,0.06693X0.06693*%
%ADD42C,0.06693*%
%ADD43C,0.14961*%
%ADD44C,0.05543*%
%ADD45R,0.05543X0.05543*%
%ADD46O,0.07480X0.14961*%
%ADD47O,0.14961X0.07480*%
%ADD48R,0.06693X0.06693*%
%ADD67R,0.02500X0.05000*%
%ADD68R,0.04739X0.06528*%
%ADD69R,0.03567X0.05180*%
D33*
X183000Y228988D02*
D03*
X111500D02*
D03*
D34*
X183000Y259012D02*
D03*
X111500D02*
D03*
D41*
X131000Y232500D02*
D03*
X202500D02*
D03*
D42*
X131000Y242500D02*
D03*
Y252500D02*
D03*
X202500Y242500D02*
D03*
Y252500D02*
D03*
X17500Y174000D02*
D03*
Y184000D02*
D03*
D43*
X185000Y182000D02*
D03*
D44*
X127000Y68000D02*
D03*
X117000D02*
D03*
X137000D02*
D03*
X147000D02*
D03*
X157000D02*
D03*
X167000D02*
D03*
X177000D02*
D03*
X187000D02*
D03*
X197000D02*
D03*
X207000D02*
D03*
X107000D02*
D03*
X97000D02*
D03*
X87000D02*
D03*
X77000D02*
D03*
X67000D02*
D03*
X57000D02*
D03*
X47000D02*
D03*
X37000D02*
D03*
X27000D02*
D03*
X127000Y138000D02*
D03*
X117000D02*
D03*
X137000D02*
D03*
X147000D02*
D03*
X157000D02*
D03*
X167000D02*
D03*
X177000D02*
D03*
X187000D02*
D03*
X197000D02*
D03*
X207000D02*
D03*
X107000D02*
D03*
X97000D02*
D03*
X87000D02*
D03*
X77000D02*
D03*
X67000D02*
D03*
X57000D02*
D03*
X47000D02*
D03*
X37000D02*
D03*
X27000D02*
D03*
D45*
X217000Y68000D02*
D03*
Y138000D02*
D03*
D46*
X65248Y248500D02*
D03*
X41902D02*
D03*
D47*
X51075Y229878D02*
D03*
D48*
X17500Y194000D02*
D03*
D67*
X185000Y162709D02*
D03*
X180000D02*
D03*
X190000D02*
D03*
X185000Y201291D02*
D03*
X190000D02*
D03*
X180000D02*
D03*
D68*
X202478Y185042D02*
D03*
X212522D02*
D03*
X209022Y201000D02*
D03*
X198978D02*
D03*
D69*
X207555Y163000D02*
D03*
X201445D02*
D03*
M02*
