G04*
G04 #@! TF.GenerationSoftware,Altium Limited,Altium Designer,24.2.2 (26)*
G04*
G04 Layer_Color=16711935*
%FSLAX25Y25*%
%MOIN*%
G70*
G04*
G04 #@! TF.SameCoordinates,004D1183-16E1-436D-8927-E0D308D58255*
G04*
G04*
G04 #@! TF.FilePolarity,Positive*
G04*
G01*
G75*
%ADD12C,0.00787*%
%ADD13C,0.00500*%
%ADD71C,0.00394*%
D12*
X227709Y68000D02*
G03*
X227709Y68000I-394J0D01*
G01*
X73319Y248500D02*
G03*
X73319Y248500I-394J0D01*
G01*
X297307Y262043D02*
X310693D01*
Y254957D02*
Y262043D01*
X297307Y254957D02*
X310693D01*
X297307D02*
Y262043D01*
X33807Y166457D02*
Y173543D01*
Y166457D02*
X47193D01*
Y173543D01*
X33807D02*
X47193D01*
X131598Y16098D02*
Y40902D01*
Y16098D02*
X156402D01*
Y40902D01*
X131598D02*
X156402D01*
X37039Y12563D02*
X41961D01*
Y20437D01*
X37039D02*
X41961D01*
X37039Y12563D02*
Y20437D01*
X107623Y168985D02*
X114710D01*
Y182371D01*
X107623D02*
X114710D01*
X107623Y168985D02*
Y182371D01*
X95039Y167937D02*
X99961D01*
X95039Y160063D02*
Y167937D01*
Y160063D02*
X99961D01*
Y167937D01*
X84744Y159169D02*
X90256D01*
Y167831D01*
X84744D02*
X90256D01*
X84744Y159169D02*
Y167831D01*
X179240Y252976D02*
X186760D01*
X179240Y235024D02*
Y252976D01*
Y235024D02*
X186760D01*
Y252976D01*
X306216Y242871D02*
X313302D01*
X306216Y229485D02*
Y242871D01*
Y229485D02*
X313302D01*
Y242871D01*
X309643Y202307D02*
Y215693D01*
X302556Y202307D02*
X309643D01*
X302556D02*
Y215693D01*
X309643D01*
X282444Y202307D02*
Y215693D01*
X275357Y202307D02*
X282444D01*
X275357D02*
Y215693D01*
X282444D01*
X285807Y218043D02*
X299193D01*
Y210957D02*
Y218043D01*
X285807Y210957D02*
X299193D01*
X285807D02*
Y218043D01*
X91807Y205338D02*
Y212424D01*
Y205338D02*
X105193D01*
Y212424D01*
X91807D02*
X105193D01*
X285693Y254957D02*
Y262043D01*
X272307D02*
X285693D01*
X272307Y254957D02*
Y262043D01*
Y254957D02*
X285693D01*
X261039Y12563D02*
Y20437D01*
X265961D01*
Y12563D02*
Y20437D01*
X261039Y12563D02*
X265961D01*
X187039D02*
Y20437D01*
X191961D01*
Y12563D02*
Y20437D01*
X187039Y12563D02*
X191961D01*
X112039D02*
Y20437D01*
X116961D01*
Y12563D02*
Y20437D01*
X112039Y12563D02*
X116961D01*
X115260Y235024D02*
Y252976D01*
X107740Y235024D02*
X115260D01*
X107740D02*
Y252976D01*
X115260D01*
X39043Y182307D02*
Y195693D01*
X31957Y182307D02*
X39043D01*
X31957D02*
Y195693D01*
X39043D01*
X56598Y16098D02*
Y40902D01*
Y16098D02*
X81402D01*
Y40902D01*
X56598D02*
X81402D01*
X281598Y16098D02*
Y40902D01*
Y16098D02*
X306402D01*
Y40902D01*
X281598D02*
X306402D01*
X206598Y16098D02*
Y40902D01*
Y16098D02*
X231402D01*
Y40902D01*
X206598D02*
X231402D01*
D13*
X19638Y63039D02*
X224362D01*
X19638D02*
Y142961D01*
X224362D01*
Y63039D02*
Y142961D01*
X68279Y230784D02*
Y266216D01*
X10721Y230784D02*
X68279D01*
X10721D02*
Y266216D01*
X68279D01*
D71*
X287669Y232169D02*
G03*
X287669Y232169I-1969J0D01*
G01*
X91169Y182169D02*
G03*
X91169Y182169I-1969J0D01*
G01*
X301842Y228626D02*
Y244374D01*
X282157Y228626D02*
Y244374D01*
X301842D01*
X282157Y228626D02*
X301842D01*
X270999Y231669D02*
X276708D01*
X270999Y240331D02*
X276708D01*
X270999Y231669D02*
Y240331D01*
X276708Y231669D02*
Y240331D01*
X139583Y222224D02*
Y262776D01*
X120488Y222224D02*
Y262776D01*
Y222224D02*
X139583D01*
X120488Y262776D02*
X139583D01*
X125409Y222224D02*
Y262776D01*
X105342Y178626D02*
Y194374D01*
X85658Y178626D02*
Y194374D01*
X105342D01*
X85658Y178626D02*
X105342D01*
X211083Y222224D02*
Y262776D01*
X191988Y222224D02*
Y262776D01*
Y222224D02*
X211083D01*
X191988Y262776D02*
X211083D01*
X196909Y222224D02*
Y262776D01*
X10610Y163528D02*
Y204472D01*
Y204472D02*
X28721D01*
Y163528D02*
Y204472D01*
X10610Y163528D02*
X28721D01*
X23602D02*
Y204472D01*
M02*
