G04*
G04 #@! TF.GenerationSoftware,Altium Limited,Altium Designer,24.2.2 (26)*
G04*
G04 Layer_Color=32896*
%FSLAX25Y25*%
%MOIN*%
G70*
G04*
G04 #@! TF.SameCoordinates,004D1183-16E1-436D-8927-E0D308D58255*
G04*
G04*
G04 #@! TF.FilePolarity,Positive*
G04*
G01*
G75*
%ADD12C,0.00787*%
G36*
X204344Y185039D02*
X204373Y185035D01*
X204406Y185031D01*
X204442Y185024D01*
X204483Y185017D01*
X204570Y184995D01*
X204661Y184959D01*
X204708Y184937D01*
X204752Y184911D01*
X204796Y184879D01*
X204839Y184846D01*
X204843Y184842D01*
X204850Y184835D01*
X204861Y184824D01*
X204872Y184809D01*
X204890Y184791D01*
X204908Y184766D01*
X204930Y184740D01*
X204952Y184707D01*
X204974Y184671D01*
X204996Y184635D01*
X205036Y184547D01*
X205068Y184445D01*
X205079Y184391D01*
X205087Y184333D01*
X204777Y184292D01*
Y184296D01*
X204774Y184303D01*
X204770Y184318D01*
X204766Y184336D01*
X204763Y184358D01*
X204755Y184383D01*
X204737Y184438D01*
X204712Y184504D01*
X204679Y184565D01*
X204643Y184624D01*
X204599Y184675D01*
X204592Y184678D01*
X204577Y184693D01*
X204548Y184711D01*
X204512Y184729D01*
X204468Y184751D01*
X204413Y184769D01*
X204351Y184784D01*
X204286Y184788D01*
X204264D01*
X204250Y184784D01*
X204209Y184780D01*
X204158Y184769D01*
X204100Y184751D01*
X204038Y184726D01*
X203976Y184689D01*
X203918Y184638D01*
X203911Y184631D01*
X203893Y184609D01*
X203871Y184576D01*
X203842Y184533D01*
X203813Y184478D01*
X203791Y184416D01*
X203773Y184344D01*
X203765Y184263D01*
Y184260D01*
Y184253D01*
Y184242D01*
X203769Y184227D01*
X203773Y184187D01*
X203784Y184140D01*
X203798Y184081D01*
X203824Y184023D01*
X203860Y183965D01*
X203907Y183910D01*
X203915Y183903D01*
X203933Y183888D01*
X203962Y183867D01*
X204002Y183841D01*
X204053Y183816D01*
X204115Y183794D01*
X204184Y183779D01*
X204260Y183772D01*
X204293D01*
X204319Y183776D01*
X204351Y183779D01*
X204388Y183787D01*
X204432Y183794D01*
X204479Y183805D01*
X204442Y183532D01*
X204424D01*
X204410Y183535D01*
X204362D01*
X204322Y183528D01*
X204275Y183521D01*
X204220Y183510D01*
X204158Y183492D01*
X204100Y183466D01*
X204038Y183433D01*
X204035D01*
X204031Y183430D01*
X204013Y183415D01*
X203987Y183390D01*
X203958Y183357D01*
X203929Y183310D01*
X203904Y183255D01*
X203886Y183193D01*
X203878Y183157D01*
Y183117D01*
Y183113D01*
Y183109D01*
Y183088D01*
X203886Y183059D01*
X203893Y183019D01*
X203907Y182975D01*
X203925Y182928D01*
X203955Y182880D01*
X203995Y182836D01*
X203998Y182833D01*
X204017Y182818D01*
X204042Y182800D01*
X204075Y182778D01*
X204118Y182760D01*
X204169Y182742D01*
X204228Y182727D01*
X204293Y182724D01*
X204322D01*
X204355Y182731D01*
X204399Y182738D01*
X204446Y182753D01*
X204493Y182771D01*
X204544Y182800D01*
X204592Y182836D01*
X204595Y182840D01*
X204610Y182858D01*
X204632Y182884D01*
X204657Y182920D01*
X204683Y182968D01*
X204708Y183026D01*
X204730Y183095D01*
X204745Y183175D01*
X205054Y183120D01*
Y183117D01*
X205050Y183106D01*
X205047Y183091D01*
X205043Y183070D01*
X205036Y183044D01*
X205025Y183015D01*
X205003Y182946D01*
X204967Y182866D01*
X204923Y182786D01*
X204868Y182709D01*
X204799Y182640D01*
X204796Y182636D01*
X204788Y182633D01*
X204777Y182625D01*
X204763Y182615D01*
X204745Y182600D01*
X204719Y182585D01*
X204694Y182571D01*
X204661Y182553D01*
X204588Y182524D01*
X204504Y182494D01*
X204406Y182476D01*
X204355Y182469D01*
X204264D01*
X204224Y182473D01*
X204177Y182480D01*
X204118Y182491D01*
X204053Y182509D01*
X203987Y182531D01*
X203922Y182560D01*
X203918D01*
X203915Y182563D01*
X203893Y182574D01*
X203860Y182596D01*
X203824Y182622D01*
X203780Y182658D01*
X203736Y182698D01*
X203693Y182746D01*
X203656Y182800D01*
X203653Y182807D01*
X203642Y182826D01*
X203627Y182858D01*
X203609Y182898D01*
X203591Y182946D01*
X203576Y183000D01*
X203565Y183062D01*
X203562Y183124D01*
Y183131D01*
Y183153D01*
X203565Y183182D01*
X203573Y183222D01*
X203583Y183270D01*
X203602Y183321D01*
X203623Y183372D01*
X203653Y183423D01*
X203656Y183430D01*
X203667Y183444D01*
X203689Y183470D01*
X203718Y183499D01*
X203754Y183532D01*
X203798Y183568D01*
X203849Y183601D01*
X203911Y183634D01*
X203907D01*
X203900Y183637D01*
X203889Y183641D01*
X203875Y183645D01*
X203835Y183659D01*
X203784Y183681D01*
X203725Y183710D01*
X203667Y183747D01*
X203612Y183794D01*
X203562Y183848D01*
X203558Y183856D01*
X203543Y183878D01*
X203521Y183914D01*
X203500Y183961D01*
X203478Y184019D01*
X203456Y184089D01*
X203441Y184169D01*
X203438Y184256D01*
Y184260D01*
Y184271D01*
Y184289D01*
X203441Y184311D01*
X203445Y184340D01*
X203452Y184373D01*
X203460Y184409D01*
X203467Y184449D01*
X203496Y184536D01*
X203518Y184584D01*
X203540Y184627D01*
X203569Y184675D01*
X203602Y184722D01*
X203638Y184769D01*
X203682Y184813D01*
X203685Y184817D01*
X203693Y184824D01*
X203707Y184835D01*
X203725Y184849D01*
X203747Y184868D01*
X203776Y184886D01*
X203809Y184908D01*
X203849Y184926D01*
X203889Y184948D01*
X203937Y184970D01*
X203984Y184988D01*
X204038Y185006D01*
X204097Y185020D01*
X204158Y185031D01*
X204220Y185039D01*
X204290Y185042D01*
X204322D01*
X204344Y185039D01*
D02*
G37*
G36*
X207500Y182480D02*
X206332D01*
X206302Y182483D01*
X206270D01*
X206193Y182487D01*
X206113Y182498D01*
X206026Y182509D01*
X205946Y182527D01*
X205906Y182538D01*
X205873Y182549D01*
X205869D01*
X205866Y182553D01*
X205844Y182563D01*
X205811Y182578D01*
X205771Y182604D01*
X205727Y182636D01*
X205680Y182680D01*
X205636Y182731D01*
X205593Y182789D01*
Y182793D01*
X205589Y182797D01*
X205574Y182818D01*
X205560Y182855D01*
X205538Y182902D01*
X205520Y182957D01*
X205502Y183022D01*
X205491Y183091D01*
X205487Y183168D01*
Y183171D01*
Y183179D01*
Y183193D01*
X205491Y183211D01*
Y183237D01*
X205494Y183262D01*
X205509Y183324D01*
X205531Y183397D01*
X205560Y183474D01*
X205604Y183550D01*
X205633Y183586D01*
X205662Y183623D01*
X205665Y183626D01*
X205669Y183630D01*
X205680Y183641D01*
X205695Y183652D01*
X205713Y183666D01*
X205735Y183681D01*
X205764Y183699D01*
X205793Y183721D01*
X205829Y183739D01*
X205869Y183757D01*
X205913Y183779D01*
X205960Y183798D01*
X206015Y183812D01*
X206069Y183830D01*
X206131Y183841D01*
X206197Y183852D01*
X206190Y183856D01*
X206175Y183863D01*
X206153Y183878D01*
X206124Y183892D01*
X206059Y183932D01*
X206026Y183958D01*
X205997Y183979D01*
X205989Y183987D01*
X205971Y184005D01*
X205942Y184034D01*
X205906Y184071D01*
X205866Y184121D01*
X205818Y184176D01*
X205771Y184242D01*
X205720Y184314D01*
X205287Y184999D01*
X205702D01*
X206033Y184475D01*
Y184471D01*
X206040Y184464D01*
X206048Y184453D01*
X206059Y184438D01*
X206084Y184398D01*
X206117Y184347D01*
X206157Y184292D01*
X206197Y184234D01*
X206237Y184180D01*
X206273Y184129D01*
X206277Y184125D01*
X206288Y184110D01*
X206306Y184089D01*
X206332Y184063D01*
X206386Y184009D01*
X206415Y183983D01*
X206444Y183961D01*
X206448Y183958D01*
X206455Y183954D01*
X206470Y183947D01*
X206492Y183936D01*
X206514Y183925D01*
X206539Y183914D01*
X206597Y183896D01*
X206601D01*
X206608Y183892D01*
X206623D01*
X206641Y183888D01*
X206666Y183885D01*
X206696D01*
X206736Y183881D01*
X207165D01*
Y184999D01*
X207500D01*
Y182480D01*
D02*
G37*
G36*
X208209Y163888D02*
X208551D01*
Y163604D01*
X208209D01*
Y163000D01*
X207900D01*
Y163604D01*
X206804D01*
Y163888D01*
X207958Y165519D01*
X208209D01*
Y163888D01*
D02*
G37*
G36*
X205697Y165515D02*
X205730D01*
X205807Y165512D01*
X205887Y165501D01*
X205974Y165490D01*
X206054Y165471D01*
X206094Y165461D01*
X206127Y165450D01*
X206131D01*
X206134Y165446D01*
X206156Y165435D01*
X206189Y165421D01*
X206229Y165395D01*
X206273Y165362D01*
X206320Y165319D01*
X206364Y165268D01*
X206407Y165209D01*
Y165206D01*
X206411Y165202D01*
X206425Y165180D01*
X206440Y165144D01*
X206462Y165097D01*
X206480Y165042D01*
X206498Y164977D01*
X206509Y164907D01*
X206513Y164831D01*
Y164827D01*
Y164820D01*
Y164805D01*
X206509Y164787D01*
Y164762D01*
X206506Y164736D01*
X206491Y164674D01*
X206469Y164602D01*
X206440Y164525D01*
X206396Y164449D01*
X206367Y164412D01*
X206338Y164376D01*
X206334Y164372D01*
X206331Y164369D01*
X206320Y164358D01*
X206305Y164347D01*
X206287Y164332D01*
X206265Y164318D01*
X206236Y164299D01*
X206207Y164278D01*
X206171Y164259D01*
X206131Y164241D01*
X206087Y164219D01*
X206040Y164201D01*
X205985Y164187D01*
X205930Y164168D01*
X205869Y164157D01*
X205803Y164147D01*
X205810Y164143D01*
X205825Y164136D01*
X205847Y164121D01*
X205876Y164107D01*
X205941Y164067D01*
X205974Y164041D01*
X206003Y164019D01*
X206011Y164012D01*
X206029Y163994D01*
X206058Y163965D01*
X206094Y163928D01*
X206134Y163877D01*
X206182Y163823D01*
X206229Y163757D01*
X206280Y163684D01*
X206713Y163000D01*
X206298D01*
X205967Y163524D01*
Y163528D01*
X205960Y163535D01*
X205952Y163546D01*
X205941Y163560D01*
X205916Y163601D01*
X205883Y163652D01*
X205843Y163706D01*
X205803Y163764D01*
X205763Y163819D01*
X205727Y163870D01*
X205723Y163874D01*
X205712Y163888D01*
X205694Y163910D01*
X205668Y163935D01*
X205614Y163990D01*
X205585Y164015D01*
X205556Y164037D01*
X205552Y164041D01*
X205545Y164045D01*
X205530Y164052D01*
X205508Y164063D01*
X205486Y164074D01*
X205461Y164085D01*
X205403Y164103D01*
X205399D01*
X205392Y164107D01*
X205377D01*
X205359Y164110D01*
X205333Y164114D01*
X205304D01*
X205264Y164117D01*
X204835D01*
Y163000D01*
X204500D01*
Y165519D01*
X205668D01*
X205697Y165515D01*
D02*
G37*
G36*
X207960Y203235D02*
X206952D01*
X206817Y202554D01*
X206821Y202558D01*
X206828Y202561D01*
X206839Y202569D01*
X206857Y202580D01*
X206879Y202591D01*
X206905Y202605D01*
X206963Y202634D01*
X207036Y202663D01*
X207116Y202689D01*
X207203Y202707D01*
X207247Y202714D01*
X207327D01*
X207349Y202711D01*
X207378Y202707D01*
X207411Y202703D01*
X207447Y202696D01*
X207487Y202685D01*
X207574Y202660D01*
X207622Y202642D01*
X207669Y202616D01*
X207716Y202591D01*
X207764Y202561D01*
X207807Y202525D01*
X207851Y202485D01*
X207855Y202481D01*
X207862Y202474D01*
X207873Y202463D01*
X207888Y202445D01*
X207906Y202420D01*
X207924Y202394D01*
X207946Y202361D01*
X207967Y202325D01*
X207986Y202285D01*
X208008Y202241D01*
X208026Y202190D01*
X208044Y202139D01*
X208059Y202085D01*
X208069Y202023D01*
X208077Y201961D01*
X208080Y201895D01*
Y201892D01*
Y201881D01*
Y201863D01*
X208077Y201837D01*
X208073Y201808D01*
X208069Y201775D01*
X208062Y201735D01*
X208055Y201695D01*
X208033Y201601D01*
X207997Y201502D01*
X207975Y201451D01*
X207946Y201404D01*
X207917Y201353D01*
X207880Y201306D01*
X207876Y201302D01*
X207869Y201291D01*
X207855Y201277D01*
X207837Y201258D01*
X207811Y201237D01*
X207782Y201207D01*
X207746Y201182D01*
X207705Y201153D01*
X207662Y201124D01*
X207611Y201098D01*
X207556Y201073D01*
X207498Y201047D01*
X207436Y201029D01*
X207367Y201014D01*
X207294Y201004D01*
X207218Y201000D01*
X207185D01*
X207159Y201004D01*
X207130Y201007D01*
X207098Y201011D01*
X207057Y201014D01*
X207017Y201025D01*
X206926Y201047D01*
X206836Y201080D01*
X206788Y201102D01*
X206741Y201127D01*
X206697Y201156D01*
X206653Y201189D01*
X206650Y201193D01*
X206643Y201197D01*
X206635Y201211D01*
X206621Y201226D01*
X206603Y201244D01*
X206584Y201266D01*
X206562Y201295D01*
X206544Y201327D01*
X206522Y201360D01*
X206501Y201400D01*
X206461Y201488D01*
X206428Y201590D01*
X206417Y201644D01*
X206410Y201702D01*
X206734Y201728D01*
Y201724D01*
Y201717D01*
X206737Y201706D01*
X206741Y201688D01*
X206752Y201648D01*
X206766Y201593D01*
X206788Y201539D01*
X206817Y201477D01*
X206854Y201422D01*
X206897Y201371D01*
X206905Y201368D01*
X206919Y201353D01*
X206948Y201335D01*
X206988Y201313D01*
X207032Y201291D01*
X207087Y201273D01*
X207149Y201258D01*
X207218Y201255D01*
X207240D01*
X207254Y201258D01*
X207298Y201262D01*
X207349Y201277D01*
X207411Y201295D01*
X207472Y201324D01*
X207538Y201368D01*
X207567Y201393D01*
X207596Y201422D01*
X207600Y201426D01*
X207604Y201430D01*
X207611Y201440D01*
X207622Y201451D01*
X207647Y201491D01*
X207676Y201542D01*
X207702Y201604D01*
X207727Y201681D01*
X207746Y201772D01*
X207753Y201819D01*
Y201870D01*
Y201874D01*
Y201881D01*
Y201895D01*
X207749Y201914D01*
Y201935D01*
X207746Y201961D01*
X207735Y202019D01*
X207716Y202088D01*
X207691Y202157D01*
X207655Y202223D01*
X207604Y202285D01*
Y202289D01*
X207596Y202292D01*
X207578Y202310D01*
X207545Y202336D01*
X207502Y202365D01*
X207443Y202390D01*
X207378Y202416D01*
X207301Y202434D01*
X207258Y202441D01*
X207189D01*
X207159Y202438D01*
X207123Y202434D01*
X207079Y202423D01*
X207036Y202412D01*
X206988Y202394D01*
X206941Y202372D01*
X206937Y202369D01*
X206923Y202361D01*
X206901Y202343D01*
X206872Y202325D01*
X206843Y202299D01*
X206814Y202267D01*
X206781Y202234D01*
X206755Y202194D01*
X206464Y202234D01*
X206708Y203530D01*
X207960D01*
Y203235D01*
D02*
G37*
G36*
X205198Y203559D02*
X205230D01*
X205307Y203555D01*
X205387Y203544D01*
X205474Y203533D01*
X205554Y203515D01*
X205594Y203504D01*
X205627Y203493D01*
X205631D01*
X205634Y203490D01*
X205656Y203479D01*
X205689Y203464D01*
X205729Y203439D01*
X205773Y203406D01*
X205820Y203362D01*
X205864Y203311D01*
X205907Y203253D01*
Y203250D01*
X205911Y203246D01*
X205925Y203224D01*
X205940Y203188D01*
X205962Y203140D01*
X205980Y203086D01*
X205998Y203020D01*
X206009Y202951D01*
X206013Y202874D01*
Y202871D01*
Y202864D01*
Y202849D01*
X206009Y202831D01*
Y202805D01*
X206006Y202780D01*
X205991Y202718D01*
X205969Y202645D01*
X205940Y202569D01*
X205896Y202492D01*
X205867Y202456D01*
X205838Y202420D01*
X205835Y202416D01*
X205831Y202412D01*
X205820Y202401D01*
X205805Y202390D01*
X205787Y202376D01*
X205765Y202361D01*
X205736Y202343D01*
X205707Y202321D01*
X205671Y202303D01*
X205631Y202285D01*
X205587Y202263D01*
X205540Y202245D01*
X205485Y202230D01*
X205431Y202212D01*
X205369Y202201D01*
X205303Y202190D01*
X205310Y202187D01*
X205325Y202179D01*
X205347Y202165D01*
X205376Y202150D01*
X205441Y202110D01*
X205474Y202085D01*
X205503Y202063D01*
X205511Y202056D01*
X205529Y202037D01*
X205558Y202008D01*
X205594Y201972D01*
X205634Y201921D01*
X205682Y201866D01*
X205729Y201801D01*
X205780Y201728D01*
X206213Y201044D01*
X205798D01*
X205467Y201568D01*
Y201571D01*
X205460Y201579D01*
X205452Y201590D01*
X205441Y201604D01*
X205416Y201644D01*
X205383Y201695D01*
X205343Y201750D01*
X205303Y201808D01*
X205263Y201863D01*
X205227Y201914D01*
X205223Y201917D01*
X205212Y201932D01*
X205194Y201954D01*
X205168Y201979D01*
X205114Y202034D01*
X205085Y202059D01*
X205055Y202081D01*
X205052Y202085D01*
X205045Y202088D01*
X205030Y202096D01*
X205008Y202106D01*
X204986Y202117D01*
X204961Y202128D01*
X204903Y202147D01*
X204899D01*
X204892Y202150D01*
X204877D01*
X204859Y202154D01*
X204834Y202157D01*
X204804D01*
X204764Y202161D01*
X204335D01*
Y201044D01*
X204000D01*
Y203562D01*
X205168D01*
X205198Y203559D01*
D02*
G37*
%LPC*%
G36*
X207165Y183594D02*
X206415D01*
X206372Y183590D01*
X206321Y183586D01*
X206262Y183583D01*
X206204Y183575D01*
X206146Y183564D01*
X206095Y183550D01*
X206088Y183546D01*
X206073Y183539D01*
X206051Y183528D01*
X206022Y183514D01*
X205989Y183492D01*
X205957Y183466D01*
X205924Y183433D01*
X205898Y183397D01*
X205895Y183393D01*
X205888Y183379D01*
X205877Y183357D01*
X205862Y183328D01*
X205851Y183295D01*
X205840Y183259D01*
X205833Y183215D01*
X205829Y183171D01*
Y183168D01*
Y183164D01*
X205833Y183142D01*
X205837Y183109D01*
X205844Y183066D01*
X205862Y183022D01*
X205884Y182971D01*
X205917Y182924D01*
X205960Y182877D01*
X205968Y182873D01*
X205986Y182858D01*
X206015Y182840D01*
X206062Y182818D01*
X206117Y182797D01*
X206190Y182778D01*
X206273Y182764D01*
X206372Y182760D01*
X207165D01*
Y183594D01*
D02*
G37*
G36*
X207900Y165016D02*
X207106Y163888D01*
X207900D01*
Y165016D01*
D02*
G37*
G36*
X205628Y165239D02*
X204835D01*
Y164405D01*
X205585D01*
X205628Y164409D01*
X205679Y164412D01*
X205738Y164416D01*
X205796Y164423D01*
X205854Y164434D01*
X205905Y164449D01*
X205912Y164452D01*
X205927Y164460D01*
X205949Y164471D01*
X205978Y164485D01*
X206011Y164507D01*
X206043Y164532D01*
X206076Y164565D01*
X206101Y164602D01*
X206105Y164605D01*
X206113Y164620D01*
X206123Y164642D01*
X206138Y164671D01*
X206149Y164704D01*
X206160Y164740D01*
X206167Y164784D01*
X206171Y164827D01*
Y164831D01*
Y164834D01*
X206167Y164856D01*
X206163Y164889D01*
X206156Y164933D01*
X206138Y164977D01*
X206116Y165027D01*
X206083Y165075D01*
X206040Y165122D01*
X206032Y165126D01*
X206014Y165140D01*
X205985Y165158D01*
X205938Y165180D01*
X205883Y165202D01*
X205810Y165220D01*
X205727Y165235D01*
X205628Y165239D01*
D02*
G37*
G36*
X205128Y203282D02*
X204335D01*
Y202449D01*
X205085D01*
X205128Y202452D01*
X205179Y202456D01*
X205238Y202460D01*
X205296Y202467D01*
X205354Y202478D01*
X205405Y202492D01*
X205412Y202496D01*
X205427Y202503D01*
X205449Y202514D01*
X205478Y202529D01*
X205511Y202551D01*
X205543Y202576D01*
X205576Y202609D01*
X205602Y202645D01*
X205605Y202649D01*
X205612Y202663D01*
X205623Y202685D01*
X205638Y202714D01*
X205649Y202747D01*
X205660Y202783D01*
X205667Y202827D01*
X205671Y202871D01*
Y202874D01*
Y202878D01*
X205667Y202900D01*
X205663Y202933D01*
X205656Y202976D01*
X205638Y203020D01*
X205616Y203071D01*
X205583Y203118D01*
X205540Y203166D01*
X205532Y203169D01*
X205514Y203184D01*
X205485Y203202D01*
X205438Y203224D01*
X205383Y203246D01*
X205310Y203264D01*
X205227Y203279D01*
X205128Y203282D01*
D02*
G37*
%LPD*%
D12*
X215285Y181204D02*
Y188881D01*
X199715D02*
X215285D01*
X199715Y181204D02*
Y188881D01*
Y181204D02*
X215285D01*
X199267Y159850D02*
Y166150D01*
Y159850D02*
X209733D01*
Y166150D01*
X199267D02*
X209733D01*
X196215Y197161D02*
Y204839D01*
Y197161D02*
X211785D01*
Y204839D01*
X196215D02*
X211785D01*
M02*
