G04*
G04 #@! TF.GenerationSoftware,Altium Limited,Altium Designer,24.2.2 (26)*
G04*
G04 Layer_Color=65535*
%FSLAX25Y25*%
%MOIN*%
G70*
G04*
G04 #@! TF.SameCoordinates,004D1183-16E1-436D-8927-E0D308D58255*
G04*
G04*
G04 #@! TF.FilePolarity,Positive*
G04*
G01*
G75*
%ADD10C,0.02362*%
%ADD11C,0.00984*%
%ADD12C,0.00787*%
%ADD13C,0.00500*%
%ADD14C,0.01000*%
D10*
X287276Y234138D02*
G03*
X287276Y234138I-1181J0D01*
G01*
X90776Y184138D02*
G03*
X90776Y184138I-1181J0D01*
G01*
D11*
X281547Y225378D02*
G03*
X281547Y225378I-492J0D01*
G01*
X119394Y37358D02*
G03*
X119394Y37358I-492J0D01*
G01*
X131492Y219665D02*
G03*
X131492Y219665I-492J0D01*
G01*
X85244Y176165D02*
G03*
X85244Y176165I-492J0D01*
G01*
X202992Y219665D02*
G03*
X202992Y219665I-492J0D01*
G01*
X44394Y37358D02*
G03*
X44394Y37358I-492J0D01*
G01*
X269394D02*
G03*
X269394Y37358I-492J0D01*
G01*
X194394D02*
G03*
X194394Y37358I-492J0D01*
G01*
X13661Y201913D02*
G03*
X13661Y201913I-492J0D01*
G01*
D12*
X227709Y68000D02*
G03*
X227709Y68000I-394J0D01*
G01*
X73319Y248500D02*
G03*
X73319Y248500I-394J0D01*
G01*
X301835Y262043D02*
X306165D01*
X301835Y254957D02*
X306165D01*
X301842Y230201D02*
Y242799D01*
X282157Y230201D02*
Y242799D01*
X301842D01*
X282157Y230201D02*
X301842D01*
X38335Y166457D02*
X42665D01*
X38335Y173543D02*
X42665D01*
X131598Y23874D02*
Y33126D01*
Y16098D02*
X156402D01*
Y23874D02*
Y33126D01*
X131598Y40902D02*
X156402D01*
X120390Y222224D02*
X139681D01*
X120390Y262776D02*
X139681D01*
Y222224D02*
Y262776D01*
X120390Y222224D02*
Y262776D01*
X122358Y222224D02*
Y262776D01*
X35169Y11661D02*
Y21339D01*
X43831Y11661D02*
Y21339D01*
X105342Y180201D02*
Y192799D01*
X85658Y180201D02*
Y192799D01*
X105342D01*
X85658Y180201D02*
X105342D01*
X114710Y173513D02*
Y177843D01*
X107623Y173513D02*
Y177843D01*
X101831Y159161D02*
Y168839D01*
X93169Y159161D02*
Y168839D01*
X90256Y163008D02*
Y163992D01*
X84744Y163008D02*
Y163992D01*
X183000Y233449D02*
Y235024D01*
Y252976D02*
Y254551D01*
X179634Y249905D02*
X186366D01*
X179240Y252976D02*
X186760D01*
X179240Y235024D02*
Y252976D01*
Y235024D02*
X186760D01*
Y252976D01*
X191890Y222224D02*
X211181D01*
X191890Y262776D02*
X211181D01*
Y222224D02*
Y262776D01*
X191890Y222224D02*
Y262776D01*
X193858Y222224D02*
Y262776D01*
X306216Y234013D02*
Y238344D01*
X313302Y234013D02*
Y238344D01*
X309643Y206835D02*
Y211165D01*
X302556Y206835D02*
Y211165D01*
X282444Y206835D02*
Y211165D01*
X275357Y206835D02*
Y211165D01*
X290335Y218043D02*
X294665D01*
X290335Y210957D02*
X294665D01*
X96335Y205338D02*
X100665D01*
X96335Y212424D02*
X100665D01*
X276835Y262043D02*
X281165D01*
X276835Y254957D02*
X281165D01*
X267831Y11661D02*
Y21339D01*
X259169Y11661D02*
Y21339D01*
X193831Y11661D02*
Y21339D01*
X185169Y11661D02*
Y21339D01*
X118831Y11661D02*
Y21339D01*
X110169Y11661D02*
Y21339D01*
X115260Y235024D02*
Y252976D01*
X107740Y235024D02*
X115260D01*
X107740D02*
Y252976D01*
X115260D01*
X108134Y249905D02*
X114866D01*
X111500Y252976D02*
Y254551D01*
Y233449D02*
Y235024D01*
X39043Y186835D02*
Y191165D01*
X31957Y186835D02*
Y191165D01*
X56598Y23874D02*
Y33126D01*
Y16098D02*
X81402D01*
Y23874D02*
Y33126D01*
X56598Y40902D02*
X81402D01*
X281598Y23874D02*
Y33126D01*
Y16098D02*
X306402D01*
Y23874D02*
Y33126D01*
X281598Y40902D02*
X306402D01*
X206598Y23874D02*
Y33126D01*
Y16098D02*
X231402D01*
Y23874D02*
Y33126D01*
X206598Y40902D02*
X231402D01*
X26752Y163528D02*
Y204472D01*
X10610Y204472D02*
X28721D01*
X10610Y163528D02*
Y204472D01*
Y163528D02*
X28721D01*
Y204472D01*
D13*
X19638Y63039D02*
X224362D01*
X19638D02*
Y142961D01*
X224362D01*
Y63039D02*
Y142961D01*
X10721Y230784D02*
X41075D01*
X10721D02*
Y266216D01*
X68279D01*
Y230784D02*
Y239760D01*
Y257240D02*
Y266216D01*
X63437Y230784D02*
X68279D01*
D14*
X284999Y77498D02*
X281000D01*
Y74499D01*
X282999D01*
X281000D01*
Y71500D01*
X286998Y77498D02*
Y71500D01*
X290997D01*
X292996Y77498D02*
Y72500D01*
X293996Y71500D01*
X295995D01*
X296995Y72500D01*
Y77498D01*
X298994D02*
X300993D01*
X299994D01*
Y71500D01*
X298994D01*
X300993D01*
X303993Y77498D02*
Y71500D01*
X306992D01*
X307991Y72500D01*
Y76498D01*
X306992Y77498D01*
X303993D01*
X319987Y76498D02*
X318988Y77498D01*
X316988D01*
X315989Y76498D01*
Y75499D01*
X316988Y74499D01*
X318988D01*
X319987Y73499D01*
Y72500D01*
X318988Y71500D01*
X316988D01*
X315989Y72500D01*
X325985Y77498D02*
X321987D01*
Y71500D01*
X325985D01*
X321987Y74499D02*
X323986D01*
X327985Y71500D02*
Y77498D01*
X331983Y71500D01*
Y77498D01*
X337982Y76498D02*
X336982Y77498D01*
X334982D01*
X333983Y76498D01*
Y75499D01*
X334982Y74499D01*
X336982D01*
X337982Y73499D01*
Y72500D01*
X336982Y71500D01*
X334982D01*
X333983Y72500D01*
X342980Y77498D02*
X340981D01*
X339981Y76498D01*
Y72500D01*
X340981Y71500D01*
X342980D01*
X343980Y72500D01*
Y76498D01*
X342980Y77498D01*
X345979Y71500D02*
Y77498D01*
X348978D01*
X349978Y76498D01*
Y74499D01*
X348978Y73499D01*
X345979D01*
X347978D02*
X349978Y71500D01*
X246000Y113000D02*
Y118998D01*
X247999Y116999D01*
X249999Y118998D01*
Y113000D01*
X254997Y118998D02*
X252998D01*
X251998Y117998D01*
Y114000D01*
X252998Y113000D01*
X254997D01*
X255997Y114000D01*
Y117998D01*
X254997Y118998D01*
X261995Y117998D02*
X260995Y118998D01*
X258996D01*
X257996Y117998D01*
Y116999D01*
X258996Y115999D01*
X260995D01*
X261995Y114999D01*
Y114000D01*
X260995Y113000D01*
X258996D01*
X257996Y114000D01*
X263994Y118998D02*
X265993D01*
X264994D01*
Y113000D01*
X263994D01*
X265993D01*
X327000Y144000D02*
X323001D01*
X247000Y151000D02*
Y156998D01*
X248999Y154999D01*
X250999Y156998D01*
Y151000D01*
X252998Y156998D02*
X254997D01*
X253998D01*
Y151000D01*
X252998D01*
X254997D01*
X261995Y155998D02*
X260996Y156998D01*
X258996D01*
X257996Y155998D01*
Y154999D01*
X258996Y153999D01*
X260996D01*
X261995Y152999D01*
Y152000D01*
X260996Y151000D01*
X258996D01*
X257996Y152000D01*
X266993Y156998D02*
X264994D01*
X263995Y155998D01*
Y152000D01*
X264994Y151000D01*
X266993D01*
X267993Y152000D01*
Y155998D01*
X266993Y156998D01*
X272999Y128498D02*
X271999Y129498D01*
X270000D01*
X269000Y128498D01*
Y124500D01*
X270000Y123500D01*
X271999D01*
X272999Y124500D01*
X274998Y129498D02*
Y123500D01*
X278997D01*
X280996Y129498D02*
Y123500D01*
Y125499D01*
X284995Y129498D01*
X281996Y126499D01*
X284995Y123500D01*
X294999Y155498D02*
X293999Y156498D01*
X292000D01*
X291000Y155498D01*
Y151500D01*
X292000Y150500D01*
X293999D01*
X294999Y151500D01*
X300997Y155498D02*
X299997Y156498D01*
X297998D01*
X296998Y155498D01*
Y154499D01*
X297998Y153499D01*
X299997D01*
X300997Y152499D01*
Y151500D01*
X299997Y150500D01*
X297998D01*
X296998Y151500D01*
X291000Y119998D02*
Y114000D01*
X293999D01*
X294999Y115000D01*
Y118998D01*
X293999Y119998D01*
X291000D01*
X300997Y118998D02*
X299997Y119998D01*
X297998D01*
X296998Y118998D01*
Y115000D01*
X297998Y114000D01*
X299997D01*
X300997Y115000D01*
X295001Y87500D02*
Y91499D01*
X293001Y89499D02*
X297000D01*
X326001Y155000D02*
Y158999D01*
X324001Y156999D02*
X328000D01*
X319999Y173998D02*
X318999Y174998D01*
X317000D01*
X316000Y173998D01*
Y172999D01*
X317000Y171999D01*
X318999D01*
X319999Y170999D01*
Y170000D01*
X318999Y169000D01*
X317000D01*
X316000Y170000D01*
X325997Y173998D02*
X324997Y174998D01*
X322998D01*
X321998Y173998D01*
Y170000D01*
X322998Y169000D01*
X324997D01*
X325997Y170000D01*
X327996Y169000D02*
Y174998D01*
X330995D01*
X331995Y173998D01*
Y171999D01*
X330995Y170999D01*
X327996D01*
X329995D02*
X331995Y169000D01*
X337993Y174998D02*
X333994D01*
Y169000D01*
X337993D01*
X333994Y171999D02*
X335994D01*
X343991Y174998D02*
X339992D01*
Y169000D01*
X343991D01*
X339992Y171999D02*
X341992D01*
X345990Y169000D02*
Y174998D01*
X349989Y169000D01*
Y174998D01*
X335000Y87000D02*
Y90999D01*
X244000Y90498D02*
Y84500D01*
X246999D01*
X247999Y85500D01*
Y89498D01*
X246999Y90498D01*
X244000D01*
X249998Y84500D02*
Y88499D01*
X251997Y90498D01*
X253997Y88499D01*
Y84500D01*
Y87499D01*
X249998D01*
X255996Y90498D02*
X259995D01*
X257996D01*
Y84500D01*
X261994D02*
Y88499D01*
X263994Y90498D01*
X265993Y88499D01*
Y84500D01*
Y87499D01*
X261994D01*
X224002Y251499D02*
X223002Y250499D01*
Y248500D01*
X224002Y247500D01*
X225001D01*
X226001Y248500D01*
Y250499D01*
X227001Y251499D01*
X228000D01*
X229000Y250499D01*
Y248500D01*
X228000Y247500D01*
X223002Y256497D02*
Y254498D01*
X224002Y253498D01*
X228000D01*
X229000Y254498D01*
Y256497D01*
X228000Y257497D01*
X224002D01*
X223002Y256497D01*
Y259496D02*
X229000D01*
Y263495D01*
X223002Y269493D02*
Y265494D01*
X229000D01*
Y269493D01*
X226001Y265494D02*
Y267494D01*
X229000Y271492D02*
X223002D01*
X229000Y275491D01*
X223002D01*
Y280489D02*
Y278490D01*
X224002Y277490D01*
X228000D01*
X229000Y278490D01*
Y280489D01*
X228000Y281489D01*
X224002D01*
X223002Y280489D01*
Y283488D02*
Y285488D01*
Y284488D01*
X229000D01*
Y283488D01*
Y285488D01*
X223002Y288487D02*
X229000D01*
Y291486D01*
X228000Y292485D01*
X224002D01*
X223002Y291486D01*
Y288487D01*
X93500Y261000D02*
X87502D01*
Y263999D01*
X88502Y264999D01*
X90501D01*
X91501Y263999D01*
Y261000D01*
X87502Y266998D02*
X92500D01*
X93500Y267998D01*
Y269997D01*
X92500Y270997D01*
X87502D01*
X93500Y272996D02*
X87502D01*
X89501Y274995D01*
X87502Y276995D01*
X93500D01*
Y278994D02*
X87502D01*
Y281993D01*
X88502Y282993D01*
X90501D01*
X91501Y281993D01*
Y278994D01*
X169000Y282999D02*
X172999D01*
X170999Y284999D02*
Y281000D01*
X213500Y283000D02*
X217499D01*
X143500D02*
X147499D01*
X96500Y283499D02*
X100499D01*
X98499Y285499D02*
Y281500D01*
X268502Y250999D02*
Y246001D01*
X269501Y245001D01*
X271501D01*
X272500Y246001D01*
Y250999D01*
X277499Y245001D02*
Y250999D01*
X274500Y248000D01*
X278498D01*
X122899Y49698D02*
X121899Y50698D01*
X119900D01*
X118900Y49698D01*
Y48699D01*
X119900Y47699D01*
X121899D01*
X122899Y46699D01*
Y45700D01*
X121899Y44700D01*
X119900D01*
X118900Y45700D01*
X124898Y50698D02*
Y44700D01*
X126897Y46699D01*
X128897Y44700D01*
Y50698D01*
X134895Y44700D02*
X130896D01*
X134895Y48699D01*
Y49698D01*
X133895Y50698D01*
X131896D01*
X130896Y49698D01*
X130500Y266001D02*
Y269999D01*
X129500Y270999D01*
X127501D01*
X126501Y269999D01*
Y266001D01*
X127501Y265001D01*
X129500D01*
X128501Y267000D02*
X130500Y265001D01*
X129500D02*
X130500Y266001D01*
X132499Y265001D02*
X134499D01*
X133499D01*
Y270999D01*
X132499Y269999D01*
X320001Y237999D02*
X319002Y238999D01*
X317002D01*
X316002Y237999D01*
Y234001D01*
X317002Y233001D01*
X319002D01*
X320001Y234001D01*
X322001Y233001D02*
X324000D01*
X323000D01*
Y238999D01*
X322001Y237999D01*
X326999D02*
X327998Y238999D01*
X329998D01*
X330998Y237999D01*
Y234001D01*
X329998Y233001D01*
X327998D01*
X326999Y234001D01*
Y237999D01*
X275699Y270798D02*
X274699Y271798D01*
X272700D01*
X271700Y270798D01*
Y266800D01*
X272700Y265800D01*
X274699D01*
X275699Y266800D01*
X277698D02*
X278698Y265800D01*
X280697D01*
X281697Y266800D01*
Y270798D01*
X280697Y271798D01*
X278698D01*
X277698Y270798D01*
Y269799D01*
X278698Y268799D01*
X281697D01*
X73002Y194499D02*
Y189501D01*
X74001Y188501D01*
X76001D01*
X77000Y189501D01*
Y194499D01*
X82998Y188501D02*
X79000D01*
X82998Y192500D01*
Y193499D01*
X81999Y194499D01*
X79999D01*
X79000Y193499D01*
X11200Y213898D02*
Y208900D01*
X12200Y207900D01*
X14199D01*
X15199Y208900D01*
Y213898D01*
X17198Y207900D02*
X19197D01*
X18198D01*
Y213898D01*
X17198Y212898D01*
X272899Y49698D02*
X271899Y50698D01*
X269900D01*
X268900Y49698D01*
Y48699D01*
X269900Y47699D01*
X271899D01*
X272899Y46699D01*
Y45700D01*
X271899Y44700D01*
X269900D01*
X268900Y45700D01*
X274898Y50698D02*
Y44700D01*
X276897Y46699D01*
X278897Y44700D01*
Y50698D01*
X283895Y44700D02*
Y50698D01*
X280896Y47699D01*
X284895D01*
X197899Y49698D02*
X196899Y50698D01*
X194900D01*
X193900Y49698D01*
Y48699D01*
X194900Y47699D01*
X196899D01*
X197899Y46699D01*
Y45700D01*
X196899Y44700D01*
X194900D01*
X193900Y45700D01*
X199898Y50698D02*
Y44700D01*
X201897Y46699D01*
X203897Y44700D01*
Y50698D01*
X205896Y49698D02*
X206896Y50698D01*
X208895D01*
X209895Y49698D01*
Y48699D01*
X208895Y47699D01*
X207895D01*
X208895D01*
X209895Y46699D01*
Y45700D01*
X208895Y44700D01*
X206896D01*
X205896Y45700D01*
X47899Y49698D02*
X46899Y50698D01*
X44900D01*
X43900Y49698D01*
Y48699D01*
X44900Y47699D01*
X46899D01*
X47899Y46699D01*
Y45700D01*
X46899Y44700D01*
X44900D01*
X43900Y45700D01*
X49898Y50698D02*
Y44700D01*
X51897Y46699D01*
X53897Y44700D01*
Y50698D01*
X55896Y44700D02*
X57895D01*
X56896D01*
Y50698D01*
X55896Y49698D01*
X251002Y26001D02*
Y31999D01*
X254001D01*
X255001Y30999D01*
Y29000D01*
X254001Y28000D01*
X251002D01*
X253002D02*
X255001Y26001D01*
X257000D02*
X259000D01*
X258000D01*
Y31999D01*
X257000Y30999D01*
X261999D02*
X262999Y31999D01*
X264998D01*
X265998Y30999D01*
Y27001D01*
X264998Y26001D01*
X262999D01*
X261999Y27001D01*
Y30999D01*
X180502Y25501D02*
Y31499D01*
X183501D01*
X184500Y30499D01*
Y28500D01*
X183501Y27500D01*
X180502D01*
X182501D02*
X184500Y25501D01*
X186500Y26501D02*
X187499Y25501D01*
X189499D01*
X190498Y26501D01*
Y30499D01*
X189499Y31499D01*
X187499D01*
X186500Y30499D01*
Y29500D01*
X187499Y28500D01*
X190498D01*
X106002Y25001D02*
Y30999D01*
X109001D01*
X110000Y29999D01*
Y28000D01*
X109001Y27000D01*
X106002D01*
X108001D02*
X110000Y25001D01*
X112000Y29999D02*
X112999Y30999D01*
X114999D01*
X115998Y29999D01*
Y29000D01*
X114999Y28000D01*
X115998Y27000D01*
Y26001D01*
X114999Y25001D01*
X112999D01*
X112000Y26001D01*
Y27000D01*
X112999Y28000D01*
X112000Y29000D01*
Y29999D01*
X112999Y28000D02*
X114999D01*
X29502Y25001D02*
Y30999D01*
X32501D01*
X33500Y29999D01*
Y28000D01*
X32501Y27000D01*
X29502D01*
X31501D02*
X33500Y25001D01*
X35500Y30999D02*
X39498D01*
Y29999D01*
X35500Y26001D01*
Y25001D01*
X257002Y229001D02*
Y234999D01*
X260001D01*
X261000Y233999D01*
Y232000D01*
X260001Y231000D01*
X257002D01*
X259001D02*
X261000Y229001D01*
X266998Y234999D02*
X264999Y233999D01*
X263000Y232000D01*
Y230001D01*
X263999Y229001D01*
X265999D01*
X266998Y230001D01*
Y231000D01*
X265999Y232000D01*
X263000D01*
X94502Y149501D02*
Y155499D01*
X97501D01*
X98500Y154499D01*
Y152500D01*
X97501Y151500D01*
X94502D01*
X96501D02*
X98500Y149501D01*
X104498D02*
X100500D01*
X104498Y153500D01*
Y154499D01*
X103499Y155499D01*
X101499D01*
X100500Y154499D01*
X81001Y149501D02*
Y155499D01*
X84000D01*
X85000Y154499D01*
Y152500D01*
X84000Y151500D01*
X81001D01*
X83001D02*
X85000Y149501D01*
X86999D02*
X88999D01*
X87999D01*
Y155499D01*
X86999Y154499D01*
X195899Y267900D02*
Y271898D01*
X194899Y272898D01*
X192900D01*
X191900Y271898D01*
Y267900D01*
X192900Y266900D01*
X194899D01*
X193899Y268899D02*
X195899Y266900D01*
X194899D02*
X195899Y267900D01*
X201897Y266900D02*
X197898D01*
X201897Y270899D01*
Y271898D01*
X200897Y272898D01*
X198898D01*
X197898Y271898D01*
X14500Y274999D02*
X12501D01*
X13501D01*
Y270001D01*
X12501Y269001D01*
X11501D01*
X10502Y270001D01*
X20498Y269001D02*
X16500D01*
X20498Y273000D01*
Y273999D01*
X19499Y274999D01*
X17499D01*
X16500Y273999D01*
X23599Y152998D02*
X21599D01*
X22599D01*
Y148000D01*
X21599Y147000D01*
X20600D01*
X19600Y148000D01*
X25598Y147000D02*
X27597D01*
X26598D01*
Y152998D01*
X25598Y151998D01*
X171001Y238502D02*
X176999D01*
Y241501D01*
X175999Y242500D01*
X172001D01*
X171001Y241501D01*
Y238502D01*
X176999Y248498D02*
Y244500D01*
X173000Y248498D01*
X172001D01*
X171001Y247499D01*
Y245499D01*
X172001Y244500D01*
X100001Y239501D02*
X105999D01*
Y242500D01*
X104999Y243500D01*
X101001D01*
X100001Y242500D01*
Y239501D01*
X105999Y245499D02*
Y247499D01*
Y246499D01*
X100001D01*
X101001Y245499D01*
X304500Y197999D02*
X303501Y198999D01*
X301501D01*
X300502Y197999D01*
Y194001D01*
X301501Y193001D01*
X303501D01*
X304500Y194001D01*
X306500Y197999D02*
X307499Y198999D01*
X309499D01*
X310498Y197999D01*
Y197000D01*
X309499Y196000D01*
X310498Y195000D01*
Y194001D01*
X309499Y193001D01*
X307499D01*
X306500Y194001D01*
Y195000D01*
X307499Y196000D01*
X306500Y197000D01*
Y197999D01*
X307499Y196000D02*
X309499D01*
X278000Y196999D02*
X277001Y197999D01*
X275001D01*
X274002Y196999D01*
Y193001D01*
X275001Y192001D01*
X277001D01*
X278000Y193001D01*
X280000Y197999D02*
X283998D01*
Y196999D01*
X280000Y193001D01*
Y192001D01*
X300699Y270798D02*
X299699Y271798D01*
X297700D01*
X296700Y270798D01*
Y266800D01*
X297700Y265800D01*
X299699D01*
X300699Y266800D01*
X306697Y271798D02*
X304697Y270798D01*
X302698Y268799D01*
Y266800D01*
X303698Y265800D01*
X305697D01*
X306697Y266800D01*
Y267799D01*
X305697Y268799D01*
X302698D01*
X291500Y207499D02*
X290501Y208499D01*
X288501D01*
X287502Y207499D01*
Y203501D01*
X288501Y202501D01*
X290501D01*
X291500Y203501D01*
X297498Y208499D02*
X293500D01*
Y205500D01*
X295499Y206500D01*
X296499D01*
X297498Y205500D01*
Y203501D01*
X296499Y202501D01*
X294499D01*
X293500Y203501D01*
X121398Y177499D02*
X120398Y178499D01*
X118399D01*
X117399Y177499D01*
Y173501D01*
X118399Y172501D01*
X120398D01*
X121398Y173501D01*
X126396Y172501D02*
Y178499D01*
X123397Y175500D01*
X127396D01*
X82000Y210999D02*
X81001Y211999D01*
X79001D01*
X78002Y210999D01*
Y207001D01*
X79001Y206001D01*
X81001D01*
X82000Y207001D01*
X84000Y210999D02*
X84999Y211999D01*
X86999D01*
X87998Y210999D01*
Y210000D01*
X86999Y209000D01*
X85999D01*
X86999D01*
X87998Y208000D01*
Y207001D01*
X86999Y206001D01*
X84999D01*
X84000Y207001D01*
X40000Y161999D02*
X39001Y162999D01*
X37001D01*
X36002Y161999D01*
Y158001D01*
X37001Y157001D01*
X39001D01*
X40000Y158001D01*
X45998Y157001D02*
X42000D01*
X45998Y161000D01*
Y161999D01*
X44999Y162999D01*
X42999D01*
X42000Y161999D01*
X45000Y194999D02*
X44000Y195999D01*
X42001D01*
X41001Y194999D01*
Y191001D01*
X42001Y190001D01*
X44000D01*
X45000Y191001D01*
X46999Y190001D02*
X48999D01*
X47999D01*
Y195999D01*
X46999Y194999D01*
M02*
