G04*
G04 #@! TF.GenerationSoftware,Altium Limited,Altium Designer,24.2.2 (26)*
G04*
G04 Layer_Color=2752767*
%FSLAX25Y25*%
%MOIN*%
G70*
G04*
G04 #@! TF.SameCoordinates,004D1183-16E1-436D-8927-E0D308D58255*
G04*
G04*
G04 #@! TF.FilePolarity,Positive*
G04*
G01*
G75*
%ADD13C,0.00500*%
%ADD73C,0.00667*%
%ADD74C,0.00400*%
D13*
X185000Y180000D02*
X183000Y184000D01*
X187000D01*
X185000Y180000D01*
X125000Y66000D02*
X126000Y68000D01*
X125000Y70000D01*
X127000Y69000D01*
X129000Y70000D01*
X128000Y68000D01*
X129000Y66000D01*
X127000Y67000D01*
X125000Y66000D01*
X115000D02*
X116000Y68000D01*
X115000Y70000D01*
X117000Y69000D01*
X119000Y70000D01*
X118000Y68000D01*
X119000Y66000D01*
X117000Y67000D01*
X115000Y66000D01*
X135000D02*
X136000Y68000D01*
X135000Y70000D01*
X137000Y69000D01*
X139000Y70000D01*
X138000Y68000D01*
X139000Y66000D01*
X137000Y67000D01*
X135000Y66000D01*
X145000D02*
X146000Y68000D01*
X145000Y70000D01*
X147000Y69000D01*
X149000Y70000D01*
X148000Y68000D01*
X149000Y66000D01*
X147000Y67000D01*
X145000Y66000D01*
X155000D02*
X156000Y68000D01*
X155000Y70000D01*
X157000Y69000D01*
X159000Y70000D01*
X158000Y68000D01*
X159000Y66000D01*
X157000Y67000D01*
X155000Y66000D01*
X165000D02*
X166000Y68000D01*
X165000Y70000D01*
X167000Y69000D01*
X169000Y70000D01*
X168000Y68000D01*
X169000Y66000D01*
X167000Y67000D01*
X165000Y66000D01*
X175000D02*
X176000Y68000D01*
X175000Y70000D01*
X177000Y69000D01*
X179000Y70000D01*
X178000Y68000D01*
X179000Y66000D01*
X177000Y67000D01*
X175000Y66000D01*
X185000D02*
X186000Y68000D01*
X185000Y70000D01*
X187000Y69000D01*
X189000Y70000D01*
X188000Y68000D01*
X189000Y66000D01*
X187000Y67000D01*
X185000Y66000D01*
X195000D02*
X196000Y68000D01*
X195000Y70000D01*
X197000Y69000D01*
X199000Y70000D01*
X198000Y68000D01*
X199000Y66000D01*
X197000Y67000D01*
X195000Y66000D01*
X205000D02*
X206000Y68000D01*
X205000Y70000D01*
X207000Y69000D01*
X209000Y70000D01*
X208000Y68000D01*
X209000Y66000D01*
X207000Y67000D01*
X205000Y66000D01*
X215000D02*
X216000Y68000D01*
X215000Y70000D01*
X217000Y69000D01*
X219000Y70000D01*
X218000Y68000D01*
X219000Y66000D01*
X217000Y67000D01*
X215000Y66000D01*
X105000D02*
X106000Y68000D01*
X105000Y70000D01*
X107000Y69000D01*
X109000Y70000D01*
X108000Y68000D01*
X109000Y66000D01*
X107000Y67000D01*
X105000Y66000D01*
X95000D02*
X96000Y68000D01*
X95000Y70000D01*
X97000Y69000D01*
X99000Y70000D01*
X98000Y68000D01*
X99000Y66000D01*
X97000Y67000D01*
X95000Y66000D01*
X85000D02*
X86000Y68000D01*
X85000Y70000D01*
X87000Y69000D01*
X89000Y70000D01*
X88000Y68000D01*
X89000Y66000D01*
X87000Y67000D01*
X85000Y66000D01*
X75000D02*
X76000Y68000D01*
X75000Y70000D01*
X77000Y69000D01*
X79000Y70000D01*
X78000Y68000D01*
X79000Y66000D01*
X77000Y67000D01*
X75000Y66000D01*
X65000D02*
X66000Y68000D01*
X65000Y70000D01*
X67000Y69000D01*
X69000Y70000D01*
X68000Y68000D01*
X69000Y66000D01*
X67000Y67000D01*
X65000Y66000D01*
X55000D02*
X56000Y68000D01*
X55000Y70000D01*
X57000Y69000D01*
X59000Y70000D01*
X58000Y68000D01*
X59000Y66000D01*
X57000Y67000D01*
X55000Y66000D01*
X45000D02*
X46000Y68000D01*
X45000Y70000D01*
X47000Y69000D01*
X49000Y70000D01*
X48000Y68000D01*
X49000Y66000D01*
X47000Y67000D01*
X45000Y66000D01*
X35000D02*
X36000Y68000D01*
X35000Y70000D01*
X37000Y69000D01*
X39000Y70000D01*
X38000Y68000D01*
X39000Y66000D01*
X37000Y67000D01*
X35000Y66000D01*
X25000D02*
X26000Y68000D01*
X25000Y70000D01*
X27000Y69000D01*
X29000Y70000D01*
X28000Y68000D01*
X29000Y66000D01*
X27000Y67000D01*
X25000Y66000D01*
X125000Y136000D02*
X126000Y138000D01*
X125000Y140000D01*
X127000Y139000D01*
X129000Y140000D01*
X128000Y138000D01*
X129000Y136000D01*
X127000Y137000D01*
X125000Y136000D01*
X115000D02*
X116000Y138000D01*
X115000Y140000D01*
X117000Y139000D01*
X119000Y140000D01*
X118000Y138000D01*
X119000Y136000D01*
X117000Y137000D01*
X115000Y136000D01*
X135000D02*
X136000Y138000D01*
X135000Y140000D01*
X137000Y139000D01*
X139000Y140000D01*
X138000Y138000D01*
X139000Y136000D01*
X137000Y137000D01*
X135000Y136000D01*
X145000D02*
X146000Y138000D01*
X145000Y140000D01*
X147000Y139000D01*
X149000Y140000D01*
X148000Y138000D01*
X149000Y136000D01*
X147000Y137000D01*
X145000Y136000D01*
X155000D02*
X156000Y138000D01*
X155000Y140000D01*
X157000Y139000D01*
X159000Y140000D01*
X158000Y138000D01*
X159000Y136000D01*
X157000Y137000D01*
X155000Y136000D01*
X165000D02*
X166000Y138000D01*
X165000Y140000D01*
X167000Y139000D01*
X169000Y140000D01*
X168000Y138000D01*
X169000Y136000D01*
X167000Y137000D01*
X165000Y136000D01*
X175000D02*
X176000Y138000D01*
X175000Y140000D01*
X177000Y139000D01*
X179000Y140000D01*
X178000Y138000D01*
X179000Y136000D01*
X177000Y137000D01*
X175000Y136000D01*
X185000D02*
X186000Y138000D01*
X185000Y140000D01*
X187000Y139000D01*
X189000Y140000D01*
X188000Y138000D01*
X189000Y136000D01*
X187000Y137000D01*
X185000Y136000D01*
X195000D02*
X196000Y138000D01*
X195000Y140000D01*
X197000Y139000D01*
X199000Y140000D01*
X198000Y138000D01*
X199000Y136000D01*
X197000Y137000D01*
X195000Y136000D01*
X205000D02*
X206000Y138000D01*
X205000Y140000D01*
X207000Y139000D01*
X209000Y140000D01*
X208000Y138000D01*
X209000Y136000D01*
X207000Y137000D01*
X205000Y136000D01*
X215000D02*
X216000Y138000D01*
X215000Y140000D01*
X217000Y139000D01*
X219000Y140000D01*
X218000Y138000D01*
X219000Y136000D01*
X217000Y137000D01*
X215000Y136000D01*
X105000D02*
X106000Y138000D01*
X105000Y140000D01*
X107000Y139000D01*
X109000Y140000D01*
X108000Y138000D01*
X109000Y136000D01*
X107000Y137000D01*
X105000Y136000D01*
X95000D02*
X96000Y138000D01*
X95000Y140000D01*
X97000Y139000D01*
X99000Y140000D01*
X98000Y138000D01*
X99000Y136000D01*
X97000Y137000D01*
X95000Y136000D01*
X85000D02*
X86000Y138000D01*
X85000Y140000D01*
X87000Y139000D01*
X89000Y140000D01*
X88000Y138000D01*
X89000Y136000D01*
X87000Y137000D01*
X85000Y136000D01*
X75000D02*
X76000Y138000D01*
X75000Y140000D01*
X77000Y139000D01*
X79000Y140000D01*
X78000Y138000D01*
X79000Y136000D01*
X77000Y137000D01*
X75000Y136000D01*
X65000D02*
X66000Y138000D01*
X65000Y140000D01*
X67000Y139000D01*
X69000Y140000D01*
X68000Y138000D01*
X69000Y136000D01*
X67000Y137000D01*
X65000Y136000D01*
X55000D02*
X56000Y138000D01*
X55000Y140000D01*
X57000Y139000D01*
X59000Y140000D01*
X58000Y138000D01*
X59000Y136000D01*
X57000Y137000D01*
X55000Y136000D01*
X45000D02*
X46000Y138000D01*
X45000Y140000D01*
X47000Y139000D01*
X49000Y140000D01*
X48000Y138000D01*
X49000Y136000D01*
X47000Y137000D01*
X45000Y136000D01*
X35000D02*
X36000Y138000D01*
X35000Y140000D01*
X37000Y139000D01*
X39000Y140000D01*
X38000Y138000D01*
X39000Y136000D01*
X37000Y137000D01*
X35000Y136000D01*
X25000D02*
X26000Y138000D01*
X25000Y140000D01*
X27000Y139000D01*
X29000Y140000D01*
X28000Y138000D01*
X29000Y136000D01*
X27000Y137000D01*
X25000Y136000D01*
X65248Y246500D02*
X66248Y247500D01*
X67248D01*
X66248Y248500D01*
X67248Y249500D01*
X66248D01*
X65248Y250500D01*
X64248Y249500D01*
X63248D01*
X64248Y248500D01*
X63248Y247500D01*
X64248D01*
X65248Y246500D01*
X41902D02*
X42902Y247500D01*
X43902D01*
X42902Y248500D01*
X43902Y249500D01*
X42902D01*
X41902Y250500D01*
X40902Y249500D01*
X39902D01*
X40902Y248500D01*
X39902Y247500D01*
X40902D01*
X41902Y246500D01*
X51075Y227878D02*
X52075Y228878D01*
X53075D01*
X52075Y229878D01*
X53075Y230878D01*
X52075D01*
X51075Y231878D01*
X50075Y230878D01*
X49075D01*
X50075Y229878D01*
X49075Y228878D01*
X50075D01*
X51075Y227878D01*
X181000Y226988D02*
Y230988D01*
X185000D01*
Y226988D01*
X181000D01*
Y257012D02*
Y261012D01*
X185000D01*
Y257012D01*
X181000D01*
X109500D02*
Y261012D01*
X113500D01*
Y257012D01*
X109500D01*
Y226988D02*
Y230988D01*
X113500D01*
Y226988D01*
X109500D01*
X178500Y106000D02*
Y105000D01*
X180500D01*
Y106000D01*
X181500D01*
Y108000D01*
X180500D01*
Y109000D01*
X178500D01*
Y108000D01*
X177500D01*
Y106000D01*
X178500D01*
X159000Y96000D02*
Y95000D01*
X161000D01*
Y96000D01*
X162000D01*
Y98000D01*
X161000D01*
Y99000D01*
X159000D01*
Y98000D01*
X158000D01*
Y96000D01*
X159000D01*
X171500Y200500D02*
Y199500D01*
X173500D01*
Y200500D01*
X174500D01*
Y202500D01*
X173500D01*
Y203500D01*
X171500D01*
Y202500D01*
X170500D01*
Y200500D01*
X171500D01*
X130000Y163500D02*
Y162500D01*
X132000D01*
Y163500D01*
X133000D01*
Y165500D01*
X132000D01*
Y166500D01*
X130000D01*
Y165500D01*
X129000D01*
Y163500D01*
X130000D01*
X167500Y176500D02*
Y175500D01*
X169500D01*
Y176500D01*
X170500D01*
Y178500D01*
X169500D01*
Y179500D01*
X167500D01*
Y178500D01*
X166500D01*
Y176500D01*
X167500D01*
X316268Y257204D02*
Y256204D01*
X318268D01*
Y257204D01*
X319268D01*
Y259204D01*
X318268D01*
Y260204D01*
X316268D01*
Y259204D01*
X315268D01*
Y257204D01*
X316268D01*
X51500Y182500D02*
Y181500D01*
X53500D01*
Y182500D01*
X54500D01*
Y184500D01*
X53500D01*
Y185500D01*
X51500D01*
Y184500D01*
X50500D01*
Y182500D01*
X51500D01*
X292000Y194500D02*
Y193500D01*
X294000D01*
Y194500D01*
X295000D01*
Y196500D01*
X294000D01*
Y197500D01*
X292000D01*
Y196500D01*
X291000D01*
Y194500D01*
X292000D01*
X294000Y235500D02*
Y234500D01*
X296000D01*
Y235500D01*
X297000D01*
Y237500D01*
X296000D01*
Y238500D01*
X294000D01*
Y237500D01*
X293000D01*
Y235500D01*
X294000D01*
X206500Y173000D02*
Y172000D01*
X208500D01*
Y173000D01*
X209500D01*
Y175000D01*
X208500D01*
Y176000D01*
X206500D01*
Y175000D01*
X205500D01*
Y173000D01*
X206500D01*
X217500Y200000D02*
Y199000D01*
X219500D01*
Y200000D01*
X220500D01*
Y202000D01*
X219500D01*
Y203000D01*
X217500D01*
Y202000D01*
X216500D01*
Y200000D01*
X217500D01*
X309000Y222000D02*
Y221000D01*
X311000D01*
Y222000D01*
X312000D01*
Y224000D01*
X311000D01*
Y225000D01*
X309000D01*
Y224000D01*
X308000D01*
Y222000D01*
X309000D01*
X321500Y36500D02*
Y35500D01*
X323500D01*
Y36500D01*
X324500D01*
Y38500D01*
X323500D01*
Y39500D01*
X321500D01*
Y38500D01*
X320500D01*
Y36500D01*
X321500D01*
X246000D02*
Y35500D01*
X248000D01*
Y36500D01*
X249000D01*
Y38500D01*
X248000D01*
Y39500D01*
X246000D01*
Y38500D01*
X245000D01*
Y36500D01*
X246000D01*
X170500Y36000D02*
Y35000D01*
X172500D01*
Y36000D01*
X173500D01*
Y38000D01*
X172500D01*
Y39000D01*
X170500D01*
Y38000D01*
X169500D01*
Y36000D01*
X170500D01*
X95500Y36500D02*
Y35500D01*
X97500D01*
Y36500D01*
X98500D01*
Y38500D01*
X97500D01*
Y39500D01*
X95500D01*
Y38500D01*
X94500D01*
Y36500D01*
X95500D01*
X263500Y257500D02*
Y256500D01*
X265500D01*
Y257500D01*
X266500D01*
Y259500D01*
X265500D01*
Y260500D01*
X263500D01*
Y259500D01*
X262500D01*
Y257500D01*
X263500D01*
X111500Y208000D02*
Y207000D01*
X113500D01*
Y208000D01*
X114500D01*
Y210000D01*
X113500D01*
Y211000D01*
X111500D01*
Y210000D01*
X110500D01*
Y208000D01*
X111500D01*
X121000Y180000D02*
Y179000D01*
X123000D01*
Y180000D01*
X124000D01*
Y182000D01*
X123000D01*
Y183000D01*
X121000D01*
Y182000D01*
X120000D01*
Y180000D01*
X121000D01*
X13748Y15748D02*
X15748Y17748D01*
X17748Y15748D01*
X15748Y13748D01*
X13748Y15748D01*
X336583D02*
X338583Y17748D01*
X340583Y15748D01*
X338583Y13748D01*
X336583Y15748D01*
Y284299D02*
X338583Y286299D01*
X340583Y284299D01*
X338583Y282299D01*
X336583Y284299D01*
X13748Y282300D02*
X14748D01*
X15748Y283300D01*
X16748Y282300D01*
X17748D01*
Y283300D01*
X16748Y284300D01*
X17748Y285300D01*
Y286300D01*
X16748D01*
X15748Y285300D01*
X14748Y286300D01*
X13748D01*
Y285300D01*
X14748Y284300D01*
X13748Y283300D01*
Y282300D01*
D73*
X133000Y232500D02*
G03*
X133000Y232500I-2000J0D01*
G01*
Y242500D02*
G03*
X133000Y242500I-2000J0D01*
G01*
Y252500D02*
G03*
X133000Y252500I-2000J0D01*
G01*
X204500Y232500D02*
G03*
X204500Y232500I-2000J0D01*
G01*
Y242500D02*
G03*
X204500Y242500I-2000J0D01*
G01*
Y252500D02*
G03*
X204500Y252500I-2000J0D01*
G01*
X19500Y174000D02*
G03*
X19500Y174000I-2000J0D01*
G01*
Y184000D02*
G03*
X19500Y184000I-2000J0D01*
G01*
Y194000D02*
G03*
X19500Y194000I-2000J0D01*
G01*
X297776Y125925D02*
G03*
X297776Y125925I-2000J0D01*
G01*
X257906Y98425D02*
G03*
X257906Y98425I-2000J0D01*
G01*
X258405Y125925D02*
G03*
X258405Y125925I-2000J0D01*
G01*
X336646Y98425D02*
G03*
X336646Y98425I-2000J0D01*
G01*
X278405Y135925D02*
G03*
X278405Y135925I-2000J0D01*
G01*
X318276Y156425D02*
G03*
X318276Y156425I-2000J0D01*
G01*
X297776Y143925D02*
G03*
X297776Y143925I-2000J0D01*
G01*
X337146D02*
G03*
X337146Y143925I-2000J0D01*
G01*
X258405D02*
G03*
X258405Y143925I-2000J0D01*
G01*
X297276Y98425D02*
G03*
X297276Y98425I-2000J0D01*
G01*
X185075Y282965D02*
G03*
X185075Y282965I-2000J0D01*
G01*
X204728D02*
G03*
X204728Y282965I-2000J0D01*
G01*
X133110D02*
G03*
X133110Y282965I-2000J0D01*
G01*
X112425D02*
G03*
X112425Y282965I-2000J0D01*
G01*
D74*
X296976Y125925D02*
G03*
X296976Y125925I-1200J0D01*
G01*
X257105Y98425D02*
G03*
X257105Y98425I-1200J0D01*
G01*
X257606Y125925D02*
G03*
X257606Y125925I-1200J0D01*
G01*
X335846Y98425D02*
G03*
X335846Y98425I-1200J0D01*
G01*
X277606Y135925D02*
G03*
X277606Y135925I-1200J0D01*
G01*
X317476Y156425D02*
G03*
X317476Y156425I-1200J0D01*
G01*
X296976Y143925D02*
G03*
X296976Y143925I-1200J0D01*
G01*
X336346D02*
G03*
X336346Y143925I-1200J0D01*
G01*
X257606D02*
G03*
X257606Y143925I-1200J0D01*
G01*
X296476Y98425D02*
G03*
X296476Y98425I-1200J0D01*
G01*
X184275Y282965D02*
G03*
X184275Y282965I-1200J0D01*
G01*
X203928D02*
G03*
X203928Y282965I-1200J0D01*
G01*
X132310D02*
G03*
X132310Y282965I-1200J0D01*
G01*
X111625D02*
G03*
X111625Y282965I-1200J0D01*
G01*
M02*
