G04*
G04 #@! TF.GenerationSoftware,Altium Limited,Altium Designer,24.2.2 (26)*
G04*
G04 Layer_Color=16711935*
%FSLAX25Y25*%
%MOIN*%
G70*
G04*
G04 #@! TF.SameCoordinates,004D1183-16E1-436D-8927-E0D308D58255*
G04*
G04*
G04 #@! TF.FilePolarity,Negative*
G04*
G01*
G75*
%ADD26R,0.07493X0.07493*%
%ADD27C,0.07493*%
%ADD28C,0.15761*%
%ADD29C,0.06343*%
%ADD30R,0.06343X0.06343*%
%ADD31O,0.08280X0.15761*%
%ADD32O,0.15761X0.08280*%
%ADD33C,0.04724*%
%ADD34R,0.04724X0.04724*%
%ADD35R,0.07493X0.07493*%
%ADD36C,0.05800*%
%ADD37C,0.09658*%
%ADD38C,0.11811*%
%ADD39C,0.12000*%
%ADD68R,0.04739X0.06528*%
%ADD69R,0.03567X0.05180*%
%ADD70R,0.03300X0.05800*%
D26*
X131000Y232500D02*
D03*
X202500D02*
D03*
D27*
X131000Y242500D02*
D03*
Y252500D02*
D03*
X202500Y242500D02*
D03*
Y252500D02*
D03*
X17500Y174000D02*
D03*
Y184000D02*
D03*
D28*
X185000Y182000D02*
D03*
D29*
X127000Y68000D02*
D03*
X117000D02*
D03*
X137000D02*
D03*
X147000D02*
D03*
X157000D02*
D03*
X167000D02*
D03*
X177000D02*
D03*
X187000D02*
D03*
X197000D02*
D03*
X207000D02*
D03*
X107000D02*
D03*
X97000D02*
D03*
X87000D02*
D03*
X77000D02*
D03*
X67000D02*
D03*
X57000D02*
D03*
X47000D02*
D03*
X37000D02*
D03*
X27000D02*
D03*
X127000Y138000D02*
D03*
X117000D02*
D03*
X137000D02*
D03*
X147000D02*
D03*
X157000D02*
D03*
X167000D02*
D03*
X177000D02*
D03*
X187000D02*
D03*
X197000D02*
D03*
X207000D02*
D03*
X107000D02*
D03*
X97000D02*
D03*
X87000D02*
D03*
X77000D02*
D03*
X67000D02*
D03*
X57000D02*
D03*
X47000D02*
D03*
X37000D02*
D03*
X27000D02*
D03*
D30*
X217000Y68000D02*
D03*
Y138000D02*
D03*
D31*
X65248Y248500D02*
D03*
X41902D02*
D03*
D32*
X51075Y229878D02*
D03*
D33*
X183000Y228988D02*
D03*
X111500D02*
D03*
D34*
X183000Y259012D02*
D03*
X111500D02*
D03*
D35*
X17500Y194000D02*
D03*
D36*
X179500Y107000D02*
D03*
X160000Y97000D02*
D03*
X172500Y201500D02*
D03*
X131000Y164500D02*
D03*
X168500Y177500D02*
D03*
X317268Y258204D02*
D03*
X52500Y183500D02*
D03*
X293000Y195500D02*
D03*
X295000Y236500D02*
D03*
X207500Y174000D02*
D03*
X218500Y201000D02*
D03*
X310000Y223000D02*
D03*
X322500Y37500D02*
D03*
X247000D02*
D03*
X171500Y37000D02*
D03*
X96500Y37500D02*
D03*
X264500Y258500D02*
D03*
X112500Y209000D02*
D03*
X122000Y181000D02*
D03*
D37*
X295776Y125925D02*
D03*
X255906Y98425D02*
D03*
X256405Y125925D02*
D03*
X334646Y98425D02*
D03*
X276406Y135925D02*
D03*
X316276Y156425D02*
D03*
X295776Y143925D02*
D03*
X335146D02*
D03*
X256405D02*
D03*
X295276Y98425D02*
D03*
X183075Y282965D02*
D03*
X202728D02*
D03*
X131110D02*
D03*
X110425D02*
D03*
D38*
X15748Y15748D02*
D03*
X338583D02*
D03*
Y284299D02*
D03*
D39*
X15748Y284300D02*
D03*
D68*
X202478Y185042D02*
D03*
X212522D02*
D03*
X209022Y201000D02*
D03*
X198978D02*
D03*
D69*
X207555Y163000D02*
D03*
X201445D02*
D03*
D70*
X185000Y162709D02*
D03*
X180000D02*
D03*
X190000D02*
D03*
X185000Y201291D02*
D03*
X190000D02*
D03*
X180000D02*
D03*
M02*
