G04*
G04 #@! TF.GenerationSoftware,Altium Limited,Altium Designer,24.2.2 (26)*
G04*
G04 Layer_Color=0*
%FSLAX25Y25*%
%MOIN*%
G70*
G04*
G04 #@! TF.SameCoordinates,004D1183-16E1-436D-8927-E0D308D58255*
G04*
G04*
G04 #@! TF.FilePolarity,Positive*
G04*
G01*
G75*
%ADD71C,0.00394*%
D71*
X302031Y258500D02*
X305968D01*
X304000Y256532D02*
Y260469D01*
X40500Y168032D02*
Y171968D01*
X38532Y170000D02*
X42469D01*
X144000Y26531D02*
Y30468D01*
X142032Y28500D02*
X145968D01*
X37532Y16500D02*
X41469D01*
X39500Y14532D02*
Y18469D01*
X109198Y175678D02*
X113135D01*
X111166Y173710D02*
Y177647D01*
X95531Y164000D02*
X99468D01*
X97500Y162031D02*
Y165969D01*
X85532Y163500D02*
X89468D01*
X87500Y161531D02*
Y165469D01*
X181032Y244000D02*
X184968D01*
X183000Y242032D02*
Y245969D01*
X307790Y236178D02*
X311727D01*
X309759Y234210D02*
Y238147D01*
X306099Y207031D02*
Y210968D01*
X304131Y209000D02*
X308068D01*
X278901Y207031D02*
Y210968D01*
X276932Y209000D02*
X280869D01*
X290531Y214500D02*
X294468D01*
X292500Y212531D02*
Y216469D01*
X98500Y206912D02*
Y210849D01*
X96531Y208881D02*
X100469D01*
X279000Y256532D02*
Y260469D01*
X277031Y258500D02*
X280968D01*
X263500Y14532D02*
Y18469D01*
X261531Y16500D02*
X265469D01*
X189500Y14532D02*
Y18469D01*
X187531Y16500D02*
X191469D01*
X114500Y14532D02*
Y18469D01*
X112531Y16500D02*
X116469D01*
X111500Y242032D02*
Y245969D01*
X109531Y244000D02*
X113469D01*
X35500Y187031D02*
Y190969D01*
X33531Y189000D02*
X37468D01*
X69000Y26531D02*
Y30468D01*
X67032Y28500D02*
X70969D01*
X294000Y26531D02*
Y30468D01*
X292032Y28500D02*
X295969D01*
X219000Y26531D02*
Y30468D01*
X217032Y28500D02*
X220969D01*
M02*
