M48
;Layer_Color=9474304
;FILE_FORMAT=2:5
INCH,TZ
;TYPE=PLATED
T01F00S00C0.02756
T02F00S00C0.02800
T04F00S00C0.03543
T05F00S00C0.04331
T06F00S00C0.05906
T07F00S00C0.11811
T08F00S00C0.12000
;TYPE=NON_PLATED
T09F00S00C0.14961
%
T01
X111500Y228988
Y259012
X183000
Y228988
T02
X96500Y37500
X171500Y37000
X247000Y37500
X322500
X293000Y195500
X218500Y201000
X207500Y174000
X168500Y177500
X172500Y201500
X112500Y209000
X122000Y181000
X131000Y164500
X160000Y97000
X179500Y107000
X52500Y183500
X264500Y258500
X295000Y236500
X310000Y223000
X317268Y258204
T04
X217000Y68000
Y138000
X207000
X197000
X187000
X177000
X167000
X157000
X147000
X137000
X127000
X117000
X107000
X97000
X87000
X77000
X67000
X57000
Y68000
X67000
X77000
X87000
X97000
X107000
X117000
X127000
X137000
X147000
X157000
X167000
X177000
X187000
X197000
X207000
X47000
X37000
X27000
Y138000
X37000
X47000
T05
X17500Y174000
Y184000
Y194000
X131000Y232500
Y242500
Y252500
X202500
Y242500
Y232500
T06
X255906Y98425
X256405Y125925
Y143925
X276406Y135925
X295776Y143925
Y125925
X295276Y98425
X334646
X335146Y143925
X316276Y156425
X202728Y282965
X183075
X131110
X110425
T07
X15748Y15748
X338583
Y284299
T08
X15748Y284300
T09
X185000Y182000
M30
